<svg width="740" height="644" fill="none" xmlns="http://www.w3.org/2000/svg"><path fill-rule="evenodd" clip-rule="evenodd" d="M141.345 2.812c-2.011 2.508-2.375 2.605-5.434 1.455-1.804-.678-3.413-1.099-3.576-.935-.163.163-.345 5.78-.403 12.482L131.825 28l-44.662.171c-53.203.204-48.802.081-50.128 1.4-.592.589-1.357 4.076-1.701 7.75-.607 6.501-.561 6.679 1.7 6.679 2.007 0 8.599 1.825 9.909 2.743.748.524-5.982 6.257-7.344 6.257-1.43 0-3.8 4.466-2.865 5.4.329.33 2.324.6 4.433.6 2.108 0 3.833.45 3.833 1s-.499 1-1.108 1C41.605 61 33 65.538 33 66.744c0 .961 4.286 1.262 18.25 1.283 10.037.015 32.2.127 49.25.25l31 .223.2 46.5c.109 25.575.35 51.675.534 58l.335 11.5-3.703 4c-2.036 2.2-4.621 5.173-5.744 6.607-1.82 2.323-2.572 2.556-6.906 2.14-7.856-.755-15.318 3.992-20.454 13.013-1.928 3.386-2.452 3.701-5.265 3.173-3.157-.592-10.497 2.67-10.497 4.666 0 1.588-1.786.978-6.552-2.239-6.451-4.354-13.567-4.532-18.889-.473-2.033 1.551-4.195 3.916-4.806 5.256-1.196 2.625-1.973 2.637-11.54.178-8.874-2.281-26.747.95-32.582 5.889C2.444 229.408 0 232.204 0 233.153c0 .466 1.462.892 3.25.947 1.787.055 6.4.207 10.25.338 3.85.131 32.313.322 63.25.424l56.25.186.099 33.226c.054 18.274.291 40.876.526 50.226.236 9.35.842 62.45 1.348 118 .506 55.55 1.218 111.29 1.583 123.866l.663 22.866-17.86-.525c-24.139-.709-84.494-.905-85.123-.277-.504.504 5.467 18.176 6.781 20.07 1.901 2.739 1.538 6.376-1.624 16.269-1.886 5.902-4.402 13.763-5.59 17.469-1.188 3.706-1.931 6.967-1.651 7.247.719.719 593.033.663 593.755-.056.942-.938 1.229-38.007.371-47.929l-.778-9-80-.647c-44-.356-102.802-.714-130.67-.797l-50.67-.15-.636-4.203c-1.608-10.628-7.149-28.537-9.5-30.703-.299-.275-1.76-2.379-3.248-4.675-5.63-8.689-16.617-18.033-28.348-24.108-9.23-4.78-30.184-7.763-40.975-5.833l-4.048.723-2.338-5.303c-2.852-6.472-11.423-24.448-22.793-47.804-4.685-9.625-8.473-18.625-8.417-20 .056-1.375.376-4.807.711-7.626.665-5.606.625-5.715-10.171-28.03-2.968-6.136-5.397-11.465-5.397-11.843 0-1.334-4.055-5.817-6.328-6.996-4.735-2.457-7.248-2.506-11.748-.232-2.424 1.225-5.424 3.756-6.666 5.625-2.279 3.429-3.01 8.519-1.369 9.534.489.302 1.168 1.66 1.509 3.019 1.259 5.016 15.634 34.816 17.961 37.234.628.652 3.376 2.056 6.107 3.12 2.732 1.063 5.283 2.555 5.67 3.314.387.76 2.495 5.206 4.685 9.881 3.461 7.39 6.339 13.527 15.271 32.566 1.05 2.236 1.908 4.561 1.908 5.166 0 .606.337 1.251.75 1.435.956.425 9.25 17.038 9.25 18.528 0 .614-2.934 2.489-6.52 4.167-21.392 10.011-36.705 31.36-39.073 54.474l-.683 6.664h-35.7l-.025-349.738 3.75-.62c2.063-.341 6.226-.65 9.251-.686 3.025-.036 12.475-1.195 21-2.576 18.893-3.06 17.885-3.045 37.293-.545 25.987 3.349 36.113 2.995 39.749-1.386.662-.797 2.693-1.449 4.515-1.449 11.246 0 11.977-7.85 1.355-14.555-3.266-2.063-5.114-2.445-11.809-2.445-4.365 0-8.086.38-8.27.845-.183.465-1.465 1.122-2.849 1.461-1.992.487-3.333-.157-6.447-3.096-3.468-3.272-4.529-3.71-8.985-3.71-2.778 0-5.952.306-7.052.681-1.587.54-2.752-.305-5.645-4.098-6.026-7.898-12.145-12.308-17.835-12.855-8.39-.806-11.541.336-17.577 6.373l-5.5 5.499-2.606-2.05c-1.434-1.127-3.446-2.05-4.472-2.05-3.173 0-2.136-1.646 5.797-9.202a2685.256 2685.256 0 0 0 15.897-15.298 1819.86 1819.86 0 0 1 16.088-15.408 3124.31 3124.31 0 0 0 18.853-18.006c6.05-5.829 19.732-18.92 30.404-29.092 10.673-10.172 24.398-23.324 30.5-29.227L330.5 69.034l363.242 1.289 1.856-2.911c1.021-1.602 2.217-3.172 2.658-3.489.89-.64.257-12.283-.757-13.924-.352-.571-.193-2.492.354-4.269.547-1.776 1.298-6.782 1.67-11.123l.674-7.893L184 27.715V13.857C184 4.926 183.63 0 182.96 0c-.573 0-2.318.944-3.88 2.099-3.15 2.329-13.273 4.812-19.84 4.866-3.289.027-5.396-.763-9.24-3.465-2.739-1.925-5.322-3.472-5.74-3.438-.418.035-1.73 1.272-2.915 2.75Zm8.25 4.688c3.28 2.226 9.74 3.4 13.905 2.527.55-.115 3.475-.459 6.5-.765 3.025-.305 6.388-1.164 7.473-1.909 1.084-.744 2.322-1.353 2.75-1.353.427 0 .777 129.825.777 288.5V583h-39.781l-.596-19.25c-2.07-66.897-4.179-293.297-4.524-485.571l-.125-69.322 2.056.652c1.497.476 2.606-.048 4.085-1.928 2.504-3.183 2.903-3.187 7.48-.081Zm545.814 27.914c-.404 2.797-.775 10.261-.826 16.586-.051 6.325-.5 12.136-.998 12.913-.777 1.214-28.557 1.32-196.495.753-107.574-.364-222.027-.662-254.34-.664L184 65V32.232l50.75-.494c27.913-.271 136.666-.552 241.674-.623 105.008-.072 191.164-.369 191.456-.662.293-.292 6.771-.44 14.397-.328l13.865.204-.733 5.085ZM132 65.034l-35.25-.047c-35.266-.047-49.094-.622-48.238-2.006.251-.406 2.038-1.489 3.972-2.406C54.418 59.657 56 58.535 56 58.08c0-.454-2.26-1.043-5.022-1.308-2.762-.265-5.321-.782-5.686-1.147-.366-.365 1.527-2.648 4.205-5.072 4.182-3.785 4.685-4.629 3.563-5.98-.717-.865-1.903-1.573-2.633-1.573-.731 0-3.601-.487-6.378-1.083-5.328-1.143-5.901-2.136-4.419-7.667l.603-2.25H132v33.034Zm19.5-30.66c-3.847 1.78-5.614 4.803-5.682 9.723-.084 6.124 1.824 9.514 6.625 11.771 3.817 1.794 4.657 1.863 8.156.666 4.95-1.693 7.389-5.574 7.396-11.768.004-3.775-.552-5.342-2.745-7.734-3.31-3.611-9.222-4.754-13.75-2.658ZM155 40c0 2.667-.333 3-3 3-3.617 0-3.977-2.075-.75-4.326C154.463 36.433 155 36.622 155 40Zm8.04-.812c3.871 2.861 3.736 3.812-.54 3.812-2.355 0-3.5-.464-3.5-1.418 0-.78-.273-2.13-.607-3-.856-2.23 1.168-1.966 4.647.606ZM311 39.01c-5.711.744-23.779 4.735-25.083 5.541-1.219.754-14.89 3.494-22.417 4.493-6.307.838-60.058 2.859-68.405 2.573-1.872-.064-3.583.403-3.802 1.039-.269.783 2.443 1.395 8.405 1.896 11.616.977 63.699-.306 64.135-1.58.184-.534 1.984-.981 4-.993 3.548-.02 7.094-.726 25.167-5.013 4.675-1.108 10.975-2.496 14-3.083 6.199-1.202 38.884-.69 41.042.643.752.465 2.513.98 3.913 1.146 1.4.165 6.145 1.018 10.545 1.895s12.725 2.28 18.5 3.119c5.775.838 11.281 1.926 12.236 2.419 2.227 1.148 25.764 1.178 25.764.033 0-.475 2.516-1.158 5.591-1.52 3.081-.362 6.331-1.397 7.24-2.306 1.532-1.532 1.437-1.595-1.341-.887-5.499 1.402-17.9 2.248-26.99 1.841-10.206-.457-15.754-1.25-30-4.287-5.5-1.172-12.7-2.693-16-3.379-3.3-.686-6.675-1.53-7.5-1.876-2.172-.91-22.462-2.75-28.424-2.577-2.792.081-7.551.469-10.576.863ZM155 50c0 3.713-3.079 4.153-5.443.777C147.302 47.559 147.59 47 151.5 47c3.222 0 3.5.238 3.5 3Zm11-2.18c0 1.088-4.745 5.18-6.008 5.18-.545 0-.992-1.35-.992-3 0-2.762.278-3 3.5-3 1.925 0 3.5.369 3.5.82Zm-7.706 49.43c.33 19.499.998 33.832 1.69 36.25.629 2.2 1.734 6.475 2.454 9.5.721 3.025 1.849 6.849 2.506 8.498 1.573 3.946 2.83 50.098 1.339 49.177-.57-.353-1.557-2.706-2.192-5.229-1.263-5.016-4.627-10.869-7.961-13.851-2.74-2.451-2.828-.384-.144 3.386 5.372 7.544 6.428 11.79 6.472 26.019.044 14.183-1.027 19.164-4.523 21.035-2.803 1.5-4.639.168-5.303-3.846-1.014-6.135-.73-9.214.911-9.844 3.243-1.244 5.755-8.423 5.674-16.216-.093-9.029-1.573-13.129-4.74-13.129-3.27 0-6.424 5.921-7.379 13.852-1.46 12.126 1.505 31.001 5.243 33.38 4.437 2.823 11.133-1.159 12.159-7.231.371-2.195 1.146-4.282 1.722-4.638 1.368-.845.106 8.01-1.729 12.137-.734 1.65-1.648 4.125-2.031 5.5-.384 1.375-3.457 8.125-6.83 15l-6.132 12.5-.305-4.75c-.521-8.128-2.195-5.205-2.195 3.833 0 6.108.337 8.471 1.17 8.194 1.008-.336 3.623-4.974 12.843-22.777 3.46-6.681 5.922-12.537 8.198-19.5 2.215-6.773 2.281-8.022 2.034-38.5-.267-33.03-1.289-43.696-5.412-56.453-1.075-3.326-2.213-10.097-2.528-15.047-.316-4.95-.921-9.45-1.344-10-.423-.55-1.099-11.912-1.501-25.25-.448-14.847-1.115-24.25-1.721-24.25-.645 0-.8 11.263-.445 32.25ZM305.94 69.607c.271.271-3.84 4.633-9.137 9.693-25.68 24.536-31.191 29.825-42.803 41.087-10.255 9.945-46.802 45.098-61.978 59.613-2.013 1.925-4.641 4.357-5.841 5.405L184 187.31V67.872l60.724.621c33.398.342 60.946.843 61.216 1.114Zm16.932.983c.37.319-22.231 22.454-37.285 36.518-4.352 4.066-11.829 11.217-16.616 15.892-4.787 4.675-16.295 15.7-25.573 24.5-16.999 16.124-21.995 20.903-45.192 43.229-6.988 6.727-13.044 12.239-13.456 12.25-.412.012-.75-2.371-.75-5.295 0-4.892.299-5.578 3.75-8.604 2.063-1.808 10.09-9.428 17.838-16.934 14.094-13.652 30.068-29.044 62.585-60.303 9.53-9.162 23.402-22.531 30.827-29.71l13.5-13.052 5 .595c2.75.327 5.167.739 5.372.914ZM503 85c-.825.42-4.612 1.522-8.415 2.449-12.193 2.971-24.21 10.679-33.75 21.647-2.824 3.247-5.6 5.904-6.169 5.904s-3.089-1.012-5.6-2.25c-7.177-3.536-17.046-3.044-25.456 1.269l-6.464 3.315-5.481-5.009c-3.015-2.756-7.114-5.785-9.11-6.732-5.484-2.602-14.567-4.725-16.944-3.96-1.161.374-3.159.798-4.44.944-7.128.809-20.995 11.528-28.171 21.777-2.653 3.789-3.505 3.884-9.404 1.044-5.949-2.864-12.815-.955-20.924 5.819l-4.828 4.034-6.172-1.241c-8.008-1.611-25.672-2.439-25.672-1.204 0 .516-1.782 1.223-3.961 1.572-2.99.478-5.319 1.959-9.5 6.041-3.046 2.974-5.539 6.122-5.539 6.994 0 3.995 7.327 7.57 15.539 7.581 2.338.004 5.706.953 8 2.256 3.716 2.111 5.012 2.24 20.961 2.088 9.35-.088 20.15-.674 24-1.301 3.85-.627 11.95-1.746 18-2.487 6.05-.741 14.266-1.935 18.258-2.653 5.808-1.046 8.404-1.063 13-.085 3.158.672 11.367 1.636 18.242 2.144 6.875.507 20.15 1.497 29.5 2.201 21.618 1.626 140.13 1.611 177.5-.023 14.575-.637 41.35-1.594 59.5-2.127 34.437-1.009 70.523-3.042 70.468-3.968-.227-3.852-13.589-11.123-24.34-13.244-11.978-2.362-44.204-.733-47.128 2.383-.704.75.48.88 4 .439 17.951-2.252 44.316-1.545 47.945 1.284.58.453 2.263 1.111 3.74 1.464 2.862.683 9.702 4.716 9.773 5.762.023.345-12.895.93-28.708 1.301-15.812.371-34.15 1.115-40.75 1.655-6.6.539-17.625.971-24.5.958-6.875-.012-35.45.462-63.5 1.054-53.394 1.127-136.212.527-156.896-1.137-6.657-.535-17.954-1.659-25.104-2.497-16.832-1.972-15.357-1.968-27.5-.068-5.775.904-16.35 2.315-23.5 3.134-7.15.82-15.025 1.918-17.5 2.44-2.475.522-9.9.983-16.5 1.025-11.058.069-12.432-.135-17.5-2.602-3.555-1.731-7.545-2.783-11.283-2.977-3.181-.164-6.668-.58-7.75-.923-4.709-1.495-.08-9.31 7.701-13.003 6.825-3.238 31.831-2.807 35.96.62.906.752 2.589-.274 6.268-3.82 3.282-3.163 6.867-5.471 10.317-6.642 5.157-1.75 5.401-1.745 9.927.198 2.552 1.095 4.941 2.479 5.309 3.074 1.153 1.866 2.198 1.216 5.088-3.167 3.922-5.946 14.429-15.989 20.154-19.263 3.717-2.126 6.545-2.862 12.454-3.241 6.753-.434 8.287-.187 13.154 2.115 3.136 1.484 8.143 5.241 11.626 8.724l6.117 6.117 2.619-1.851c4.153-2.935 4.567-3.165 9.795-5.436 6.738-2.927 13.824-2.217 20.092 2.012 2.504 1.69 5.092 3.07 5.752 3.066.66-.004 2.289-1.606 3.62-3.56 3.007-4.414 16.236-16.86 19.879-18.7a153.913 153.913 0 0 0 4.701-2.485c9.401-5.263 19.366-7.059 29.698-5.352 3.96.654 7.672 1.564 8.25 2.024.579.459 2.12 1.163 3.426 1.564 3.985 1.224 14.265 8.669 21.106 15.284 4.328 4.185 6.987 6.057 8.001 5.632.835-.351 4.738-.865 8.672-1.144 6.432-.456 7.719-.22 12.778 2.342 6.369 3.225 12.321 8.717 16.337 15.074 2.601 4.118 5.391 5.497 6.732 3.328.34-.55 2.885-1 5.655-1 5.16 0 9.412 2.105 12.955 6.415 1.584 1.926 1.693 1.905 6.5-1.202 2.69-1.738 5.397-3.588 6.017-4.112 3.49-2.944 22.373-5.653 22.373-3.209 0 .49 1.037 1.152 2.305 1.47 1.268.318 4.433 2.676 7.034 5.241 2.601 2.564 4.923 4.468 5.159 4.232 1.197-1.196-7.506-9.874-11.998-11.965-5.37-2.499-16.154-3.183-18.683-1.186-.724.572-2.539 1.332-4.032 1.688-1.493.357-4.709 1.994-7.145 3.638-2.437 1.645-4.75 2.99-5.141 2.99s-2.559-1.463-4.817-3.25c-3.853-3.05-4.577-3.245-11.738-3.165-7.442.083-7.684.008-9.746-3C587.36 119.066 576.945 111 571.785 111c-1.054 0-2.707-.423-3.674-.941-1.121-.6-4.143-.531-8.345.188l-6.588 1.129-7.929-7.438c-11.423-10.715-20.35-15.36-34.496-17.948-2.611-.478-5.086-1.068-5.5-1.311-.414-.244-1.428-.099-2.253.321ZM234.536 191.014c3.633 1.381 14.997 12.443 16.493 16.056 1.415 3.416 3.898 3.773 6.471.93 3.353-3.705 7.598-2.47 14.178 4.122 2.072 2.076 2.469 2.12 8.177.909 3.299-.7 9.014-1.081 12.7-.847 6.232.397 6.941.689 10.137 4.177 1.891 2.063 3.262 4.276 3.049 4.917-.447 1.34-3.954 2.478-8.083 2.622-1.564.055-3.987 1-5.385 2.1-2.137 1.681-3.998 1.99-11.658 1.938-8.413-.057-17.969-.891-26.615-2.324-14.324-2.373-17.904-2.525-25.617-1.09-8.72 1.623-21.05 3.004-35.133 3.936l-9.25.612.056-19.572 5.941-5.886c5.489-5.438 6.208-5.842 9.452-5.316 1.931.313 5.114 1.793 7.074 3.287l3.562 2.717 1.707-2.322c3.262-4.436 10.419-10.869 12.557-11.287 4.083-.798 7.53-.69 10.187.321ZM133 210.855v19.855l-30.75.713c-16.912.392-42.675.485-57.25.206-14.575-.278-29.312-.534-32.75-.567-3.437-.034-6.25-.409-6.25-.833 0-1.372 8.331-5.138 14.831-6.704 7.366-1.774 14.765-1.988 15.713-.454.401.65 2.151.818 4.456.429 2.305-.389 4.055-.221 4.456.429 1.212 1.961 3.261 1.107 5.627-2.345 2.549-3.721 7.543-6.584 11.483-6.584 3.115 0 8.734 2.304 12.127 4.973 3.365 2.647 4.735 2.557 7.567-.498 2.431-2.622 6.553-3.462 10.438-2.128 1.826.627 2.483.196 3.88-2.546.925-1.816 2.296-3.976 3.047-4.801.75-.825 2.486-2.907 3.856-4.628 3.091-3.881 9.572-5.8 14.613-4.327 3.676 1.074 2.992 1.558 10.208-7.218 4.398-5.347 4.698-4.26 4.698 17.028Zm22.446-11.44c.739 5.913-.076 12.238-1.706 13.246-.681.42-.858-.922-.519-3.929.405-3.597.224-4.456-.853-4.043-.856.328-1.366-.171-1.362-1.332.008-2.963 2.008-9.357 2.926-9.357.461 0 1.142 2.437 1.514 5.415Zm177.807 65.613c-2.336 1.038-4.963 2.469-5.838 3.18-3.434 2.788-7.217 6.698-7.604 7.858-.311.934-.909.952-2.543.077-3.075-1.645-8.936-1.406-11.819.482-2.358 1.545-2.666 1.496-6.268-1-2.084-1.444-4.552-2.625-5.485-2.625-.933 0-1.696-.45-1.696-1 0-3.53-10.474 1.46-15.825 7.538-3.636 4.131-4.272 4.481-6.237 3.429-2.403-1.286-5.549-.205-9.554 3.286-1.855 1.616-2.671 1.704-6.616.71-9.346-2.353-21.526 4.879-16.568 9.837.66.66 2.81 1.2 4.777 1.2 1.968 0 4.605.72 5.861 1.599 1.52 1.065 3.517 1.43 5.973 1.093 23.646-3.244 29.948-3.836 37.689-3.538 18.736.72 70.092.105 84.252-1.009 8.112-.638 23.298-1.609 33.748-2.157 19.022-.999 37.506-2.947 37.493-3.953-.004-.294-1.661-1.66-3.683-3.035-3.484-2.369-4.399-2.5-17.529-2.5-9.096 0-14.098-.383-14.567-1.115-1.89-2.953-11.949-3.444-16.013-.781-1.934 1.267-2.957 1.372-4.872.5-1.333-.607-3.947-1.104-5.809-1.104-2.477 0-3.551-.523-4.004-1.949-.34-1.072-1.495-2.227-2.567-2.567-1.072-.34-1.949-1.021-1.949-1.513 0-1.416-7.872-3.158-11.085-2.452-2.126.467-3.076.224-3.505-.893-.601-1.565-5.137-4.669-11.41-7.807-4.518-2.26-11.382-2.174-16.747.209Zm-168.776-.263c-4.521 3.247-8.477 16.637-8.477 28.694 0 5.248.391 9.541.87 9.541 1.436 0 3.321 11.898 2.591 16.353-.374 2.281-1.781 6.578-3.127 9.549-3.743 8.267-3.25 23.098.769 23.098.646 0 .726-.842.214-2.25-1.486-4.09-.673-13.026 1.565-17.211 1.165-2.179 2.118-4.504 2.118-5.167 0-.663.563-1.393 1.25-1.622 2.12-.707 1.655-18.408-.616-23.45-1.544-3.427-1.796-5.926-1.455-14.471.226-5.681.942-11.229 1.591-12.329.649-1.1 1.955-3.8 2.902-6 .947-2.2 1.896-4.337 2.109-4.75.492-.956-.965-.946-2.304.015Zm186.57 3.998c6.412 5.387 11.955 9.043 12.463 8.221 1.992-3.224 12.421 1.047 15.071 6.173 1.339 2.589 1.884 2.846 4.842 2.291 2.111-.396 4.387-.083 6.206.852 2.669 1.373 3.115 1.309 6.343-.912 4.211-2.897 10.476-3.197 13.305-.638 1.639 1.482 3.973 1.75 15.244 1.75 11.82 0 15.78.533 14.378 1.934-.425.425-18.341 1.673-52.399 3.65-9.35.543-38.188 1.14-64.085 1.328-29.054.21-47.819.728-49 1.35-3.103 1.635-15.782 2.5-25.441 1.736-9.504-.752-10.707-1.62-6.953-5.017 1.627-1.472 3.593-1.812 10.084-1.742 7.009.076 8.538-.236 11.703-2.384 2.348-1.593 4.361-2.249 5.667-1.847 1.114.342 2.753.855 3.643 1.139 1.086.347 2.351-.67 3.852-3.098 5.231-8.464 14.79-11.086 21.203-5.815 1.83 1.504 3.652 3.191 4.049 3.75.476.671 1.325.591 2.5-.236 3.484-2.454 6.804-3.372 10.018-2.769 1.793.336 3.26 1.041 3.26 1.566 0 2.173 2.935.698 6.109-3.07 3.002-3.563 7.292-6.877 11.891-9.186 2.283-1.145 14.4-.41 16.047.974Zm-130.655 122.37c3.138 1.43 22.608 39.844 22.608 44.606 0 2.241-.936 3.876-3.518 6.143-7.904 6.94-13.604 4.344-19.498-8.882-2.259-5.069-3.689-7.909-11.436-22.725-3.864-7.391-4.313-12.046-1.505-15.608 3.513-4.457 8.454-5.765 13.349-3.534Zm-63.4 48.464c-.926 10.67-.98 15.984-.201 19.75.586 2.834 1.36 6.953 1.72 9.153.36 2.2 1.255 5.35 1.99 7 4.444 9.985 5.635 13.564 7.105 21.344 1.164 6.158 1.459 11.253 1.024 17.656-.803 11.79-1.362 13.72-3.754 12.961-2.463-.782-2.493 1.671-.047 3.884 2.552 2.31 2.926 2.147 4.81-2.095 1.187-2.674 1.793-7.625 2.112-17.25.536-16.197-.767-23.632-6.219-35.5-.758-1.65-1.7-4.35-2.093-6-.393-1.65-1.173-3.581-1.734-4.291-.574-.728-1.228-9.994-1.499-21.25-.264-10.978-.81-19.959-1.214-19.959-.404 0-1.304 6.569-2 14.597Zm84.178 8.653c.894 1.788 4.093 8.425 7.11 14.75 3.018 6.325 10.039 20.763 15.603 32.085S274 515.969 274 516.335c0 .366-1.012.655-2.25.642-1.886-.019-3.26-2.102-8.5-12.895-3.437-7.08-6.25-13.412-6.25-14.073 0-.66-.842-2.395-1.87-3.855-2.329-3.305-19.13-37.502-19.13-38.937 0-.915 1.377-1.89 3.023-2.138.287-.043 1.253 1.383 2.147 3.171Zm-84.542 62.5c-2.044 17.333-1.932 21.038.904 30.036 1.51 4.793 3.108 9.614 3.55 10.714.443 1.1 1.108 4.025 1.48 6.5.747 4.986 2.973 10 4.439 10 .997 0 .594-3.662-1.181-10.715-.583-2.319-.801-4.892-.484-5.718.317-.827.197-1.737-.266-2.024-.464-.286-1.131-2.056-1.483-3.931-.352-1.876-1.365-4.865-2.252-6.642-1.291-2.589-1.58-6.188-1.45-18.101.134-12.301-.085-14.869-1.268-14.869-.96 0-1.613 1.559-1.989 4.75Zm143.855 6.222c.349.566 1.527 1.028 2.617 1.028 2.856 0 14.716 3.891 19.4 6.364 9.657 5.1 21.607 16.054 25.24 23.136.846 1.65 1.849 3.225 2.228 3.5 2.905 2.109 9.032 20.518 9.032 27.139 0 4.86-.001 4.861-3.395 4.861-3.168 0-3.428-.25-3.889-3.75-.743-5.631-3.176-14.428-4.773-17.25-3.958-6.996-8.105-12.813-11.104-15.576-8.756-8.064-18.446-13.798-25.339-14.992-2.2-.381-4.591-1.163-5.314-1.738-1.782-1.418-25.549-1.454-27.322-.042-.75.598-3.134 1.407-5.297 1.797-7.573 1.367-17.662 7.393-25.067 14.971-6.164 6.308-8.261 9.502-13.632 20.765-.683 1.432-2.837 12.778-2.86 15.065-.005.413-1.553.75-3.441.75-4.621 0-4.986-1.683-2.669-12.285 2.936-13.436 10.141-26.217 20.051-35.566 5.677-5.356 16.166-11.829 22.086-13.631 3.006-.914 6.246-2.08 7.201-2.59.955-.51 3.066-.928 4.691-.928s3.186-.374 3.468-.83c.762-1.233 17.336-1.415 18.088-.198Zm6.798 15.692c8.804 2.841 22.431 10.935 24.891 14.784.37.579 2.245 2.811 4.167 4.961 1.922 2.15 4.697 6.425 6.167 9.5 1.47 3.075 3.054 6.327 3.52 7.227.467.9 1.154 4.33 1.526 7.622l.677 5.984-6.364.626c-8.164.803-50.167.787-82.615-.032-29.041-.732-26.747.407-23.196-11.516 3.377-11.34 10.22-21.289 19.821-28.82a682.798 682.798 0 0 0 4.432-3.5c2.155-1.732 10.067-5.388 13.193-6.096 1.65-.374 3.459-1.037 4.02-1.473 2.953-2.298 21.807-1.834 29.761.733Zm39.219 55.278c146.566.828 274.797 2.106 275.486 2.746.268.248.656 11.445.864 24.882l.377 24.43H330.113C40.637 640 37 639.976 37 638.059c0-1.068.374-2.172.831-2.454.457-.283 1.407-3.122 2.111-6.309.704-3.188 1.668-6.277 2.142-6.865 1.644-2.042 4.022-14.672 3.353-17.809-.367-1.717-1.685-5.597-2.931-8.622-1.246-3.025-2.578-6.525-2.962-7.778l-.696-2.277 91.326.645c50.229.355 147.576.963 216.326 1.352ZM92 598.9c-7.983 1.346-12.518 3.005-16.552 6.057-4.618 3.494-8.86 3.85-12.448 1.043-4.555-3.563-5.501-2.098-1.46 2.26 2.093 2.257 3.392 2.74 7.366 2.74 3.18 0 5.637-.633 7.209-1.859 6.966-5.428 8.084-5.641 29.635-5.641 11.138 0 20.25-.238 20.25-.529 0-.29-3.18-1.347-7.068-2.349-8.013-2.064-20.257-2.847-26.932-1.722Zm353.253 2.137c-8.655 1.085-12.799 3.018-13.637 6.359-1.35 5.379 2.739 10.147 9.656 11.26 2.075.334 4.027 1.018 4.338 1.521.646 1.046-9.542-.029-11.11-1.172-.55-.401-2.334-1.049-3.965-1.44-3.209-.769-7.53-2.626-20.187-8.671-4.483-2.142-8.645-3.894-9.25-3.894-.604 0-1.098-.45-1.098-1s1.575-1 3.5-1 3.5-.45 3.5-1c0-.583-3.333-1-8-1-4.4 0-8 .367-8 .815 0 .448 3.938 2.811 8.75 5.25 4.813 2.439 9.345 4.998 10.071 5.685.727.688 1.768 1.25 2.312 1.25.545 0 3.55 1.169 6.679 2.598 10.832 4.947 11.834 5.322 16.023 5.992 2.315.37 4.451 1.064 4.746 1.541.778 1.259 52.117 1.087 63.919-.213 5.5-.606 12.925-1.769 16.5-2.583 26.727-6.09 27.628-6.202 55.75-6.939 25.232-.661 32.114-1.426 24-2.666-3.536-.54-49.826 0-58.75.686-5.405.415-7.52.901-11.5 2.639-7.621 3.329-28.708 5.574-54.809 5.836-10.63.107-13.529-1.022-5.799-2.258 4.702-.752 13.571-5.054 17.029-8.26 3.91-3.626 1.798-3.797-3.862-.314-2.838 1.746-5.47 2.863-5.851 2.483-.38-.381.092-1.131 1.05-1.667.958-.536 1.742-2.037 1.742-3.335 0-5.599-16.147-8.711-33.747-6.503Zm25.165 4.493c2.015.842 3.393 1.967 3.063 2.5-.848 1.373-16.196 1.24-17.054-.148-.479-.776.572-.997 3.441-.723 4.334.413 4.916.025 2.932-1.959-1.782-1.782 3.066-1.572 7.618.33Zm-327.42 3.473c-3.277 4.137-6.706 5.726-9.746 4.515-.963-.384-4.054-.871-6.868-1.082-2.814-.211-6.396-.87-7.959-1.464-1.563-.595-7.136-1.319-12.384-1.61-8.639-.479-9.963-.308-14.001 1.804-8.294 4.34-8.561 11.975-.512 14.659 4.532 1.511 19.078 1.655 22.838.226 3.102-1.18 5.067-4.627 4.792-8.413-.201-2.778-.096-2.844 3.568-2.241 10.327 1.7 14.492 1.824 16.955.506 2.216-1.186 8.319-8.767 8.319-10.333 0-1.625-2.183-.127-5.002 3.433Zm306.347-2.546c.308.802 2.372 2.602 4.587 4 3.418 2.158 5.201 2.543 11.762 2.543 7.366 0 7.651.083 5.985 1.75-1.483 1.483-3.689 1.75-14.464 1.75-10.745 0-13.321-.31-16.625-2-7.716-3.947-7.341-7.044 1.023-8.446 7.098-1.189 7.122-1.188 7.732.403ZM246 616.083l-9.5 5.08-19.751-.332c-18.183-.305-23.92.269-16.999 1.699 1.512.313 4.527 1.098 6.7 1.745 2.172.648 9.834 1.188 17.027 1.201l13.076.024 10.244-5.25c9.832-5.039 10.565-5.25 18.224-5.25 4.388 0 7.979-.42 7.979-.933 0-1.303-2.413-1.882-10.5-2.515-6.926-.543-7.101-.495-16.5 4.531ZM99.491 615.01c-1.586 1.753-1.648 2.328-.486 4.5 1.105 2.065 2.072 2.49 5.664 2.49 2.382 0 4.331-.45 4.331-1s-1.575-1-3.5-1c-5.056 0-4.422-2.339 1.029-3.797 3.873-1.035 4.887-.976 7 .408 3.382 2.216 3.102 3.718-1.063 5.704-4.27 2.036-12.509 2.16-17.966.269-6.563-2.273-5.628-6.856 1.756-8.609 4.983-1.183 5.184-1.119 3.235 1.035Z" fill="#000"/></svg>