<svg width="740" height="644" fill="none" xmlns="http://www.w3.org/2000/svg"><path fill-rule="evenodd" clip-rule="evenodd" d="M141.345 2.812c-2.011 2.508-2.375 2.605-5.434 1.455-1.804-.678-3.413-1.099-3.576-.935-.163.163-.345 5.78-.403 12.482L131.825 28l-44.662.171c-53.203.204-48.802.081-50.128 1.4-.592.589-1.357 4.076-1.701 7.75-.607 6.501-.561 6.679 1.7 6.679 2.007 0 8.599 1.825 9.909 2.743.748.524-5.982 6.257-7.344 6.257-1.43 0-3.8 4.466-2.865 5.4.329.33 2.324.6 4.433.6 2.108 0 3.833.45 3.833 1s-.499 1-1.108 1C41.605 61 33 65.538 33 66.744c0 .961 4.286 1.262 18.25 1.283 10.037.015 32.2.127 49.25.25l31 .223.2 46.5c.109 25.575.35 51.675.534 58l.335 11.5-3.703 4c-2.036 2.2-4.621 5.173-5.744 6.607-1.82 2.323-2.572 2.556-6.906 2.14-7.865-.756-15.318 3.991-20.468 13.038-1.872 3.287-2.512 3.706-4.871 3.188-2.869-.63-10.877 2.718-10.877 4.547 0 1.667-1.718 1.103-6.527-2.143-6.489-4.38-13.547-4.576-18.865-.524-2.06 1.569-4.244 3.95-4.855 5.29-1.196 2.625-1.973 2.637-11.54.178-8.874-2.281-26.747.95-32.582 5.889C2.444 229.408 0 232.204 0 233.153c0 .466 1.237.868 2.75.893 1.513.026 6.8.208 11.75.406 4.95.197 33.638.412 63.75.477l54.75.119.099 33.226c.054 18.274.291 40.876.526 50.226.236 9.35.842 62.45 1.348 118 .506 55.55 1.218 111.29 1.583 123.866l.663 22.866-17.86-.525c-24.139-.709-84.494-.905-85.123-.277-.504.504 5.467 18.176 6.781 20.07 1.901 2.739 1.538 6.376-1.624 16.269-1.886 5.902-4.402 13.763-5.59 17.469-1.188 3.706-1.931 6.967-1.651 7.247.719.719 593.033.663 593.755-.056.942-.938 1.229-38.007.371-47.929l-.778-9-80-.647c-44-.356-102.765-.714-130.588-.797l-50.588-.15-2.222-11.06c-5.308-26.423-20.767-44.595-46.602-54.779-5.188-2.045-8.21-2.429-22.327-2.835-13.935-.402-16.408-.709-16.877-2.101-.302-.897-2.905-6.581-5.784-12.631-12.395-26.047-15.106-31.702-21.238-44.302-5.998-12.325-6.384-13.518-5.256-16.242 2.198-5.307 1.362-10.341-3.35-20.163a2417.018 2417.018 0 0 1-8.2-17.289c-2.058-4.398-4.804-9.389-6.102-11.091-3.067-4.02-8.793-5.838-13.474-4.276-4.47 1.491-9.644 6.456-10.422 10.002-.571 2.598 1.666 10.447 4.442 15.589.526.975 3.895 7.906 7.487 15.403C221.352 443.645 224.943 448 229.961 448c3.029 0 2.794-.385 12.832 21a5817.81 5817.81 0 0 0 8.598 18.215c2.535 5.343 4.609 10.18 4.609 10.75 0 .569.45 1.035 1 1.035s1 .477 1 1.059c0 .583 1.8 4.778 4 9.323 2.2 4.545 4 8.7 4 9.233 0 .533-2.656 2.188-5.903 3.678-13.519 6.206-25.808 18.231-33.219 32.507-2.463 4.745-5.613 15.765-6.417 22.45l-.691 5.75h-35.746l-.013-174.869-.012-174.869 3.75-.62c2.063-.341 6.226-.65 9.251-.686 3.025-.036 12.475-1.195 21-2.576 17.985-2.913 19.183-2.98 28.5-1.596 30.344 4.507 44.606 4.409 48.542-.335.662-.797 2.693-1.449 4.515-1.449 11.246 0 11.977-7.85 1.355-14.555-3.266-2.063-5.114-2.445-11.809-2.445-4.365 0-8.086.38-8.27.845-.183.465-1.465 1.122-2.849 1.461-1.992.487-3.333-.157-6.447-3.096-3.468-3.272-4.529-3.71-8.985-3.71-2.778 0-5.952.306-7.052.681-1.587.54-2.752-.305-5.645-4.098-6.026-7.898-12.145-12.308-17.835-12.855-8.39-.806-11.541.336-17.577 6.373l-5.5 5.499-2.606-2.05c-1.434-1.127-3.446-2.05-4.472-2.05-3.173 0-2.136-1.646 5.797-9.202a2685.256 2685.256 0 0 0 15.897-15.298 1819.86 1819.86 0 0 1 16.088-15.408 3124.31 3124.31 0 0 0 18.853-18.006c6.05-5.829 19.732-18.92 30.404-29.092 10.673-10.172 24.398-23.358 30.5-29.302L330.5 68.884l77.646.374c90.776.439 82.854-.629 82.854 11.171v7.382l-6.25 2.95c-8.242 3.889-17.571 11.041-23.915 18.335-2.824 3.247-5.6 5.904-6.169 5.904s-3.089-1.012-5.6-2.25c-7.177-3.536-17.046-3.044-25.456 1.269l-6.464 3.315-5.481-5.009c-3.015-2.756-7.114-5.785-9.11-6.732-5.484-2.602-14.567-4.725-16.944-3.96-1.161.374-3.159.798-4.44.944-7.128.809-20.995 11.528-28.171 21.777-2.653 3.789-3.505 3.884-9.404 1.044-5.952-2.866-12.815-.955-20.934 5.827l-4.837 4.042-6.663-1.297c-8.477-1.651-25.162-2.424-25.162-1.166 0 .517-1.782 1.225-3.961 1.574-2.99.478-5.319 1.959-9.5 6.041-3.046 2.974-5.539 6.122-5.539 6.994 0 3.995 7.327 7.57 15.539 7.581 2.338.004 5.706.953 8 2.256 3.716 2.111 5.012 2.24 20.961 2.088 9.35-.088 20.15-.674 24-1.301 3.85-.627 11.95-1.746 18-2.487 6.05-.741 14.258-1.933 18.241-2.65 5.737-1.033 8.441-1.056 13.022-.11 9.874 2.04 56.248 5.203 77.737 5.303 8.8.041 16.92.288 18.045.548 2.751.636 4.988 4.226 3.537 5.677-1.709 1.709-1.265 5.499.897 7.661 3.051 3.051 1.58 7.286-5.896 16.983-3.621 4.696-7.239 9.663-8.04 11.038-3.599 6.178-6.828 12.827-8.014 16.504-.71 2.198-1.628 4.446-2.043 4.996-1.093 1.452-3.13 11.69-2.459 12.361.313.312 2.382-1.553 4.599-4.146 4.423-5.175 6.546-5.913 7.09-2.465.282 1.791 1.032.937 3.679-4.189 3.752-7.267 7.007-12.179 8.855-13.361.688-.44 1.25-1.291 1.25-1.892 0-.997 5.12-7.422 12.32-15.46 1.898-2.119 4.028-3.31 6.501-3.636 2.024-.267 4.59-.787 5.703-1.156 1.638-.543 2.988.533 7.07 5.636 2.774 3.47 6.342 8.558 7.927 11.308 1.586 2.75 3.13 5.225 3.431 5.5 1.191 1.087 5.14 9.844 7.215 16 3.066 9.099 2.999 22.812-.161 32.5-3.323 10.192-8.353 16.435-17.006 21.109-2.854 1.542-5.622 1.891-15 1.891-10.003 0-12.047-.292-15.699-2.244-3.929-2.1-9.301-6.661-9.301-7.897 0-.303-.847-1.745-1.883-3.205C472.88 265 469 251.701 469 247.186c0-1.752-.45-3.186-1-3.186s-1 2.292-1 5.092c0 3.578-.595 5.849-2 7.635-1.1 1.399-2 3.247-2 4.108 0 .964-.345 1.2-.899.615-.495-.522-1.191-4.1-1.547-7.95-.598-6.456-.461-7.214 1.765-9.75 1.328-1.512 3.374-2.75 4.547-2.75 1.191 0 2.134-.637 2.134-1.441 0-2.373-1.704-2.71-5.562-1.097-2.008.838-4.053 1.276-4.544.972-2.569-1.587.103 26.473 3.159 33.181 1.071 2.352 1.947 4.645 1.947 5.097 0 .452 2.02 3.131 4.489 5.953 4.696 5.369 11.104 9.716 16.078 10.908 1.613.387 3.539 1.182 4.28 1.768 2.403 1.9 20.935 1.382 27.905-.781 13.525-4.196 25.155-16.65 29.473-31.56 4.842-16.721 3.937-38.75-2.116-51.5-.522-1.1-2.539-5.409-4.483-9.576-1.943-4.167-6.029-11.262-9.08-15.767-3.05-4.506-5.546-8.634-5.546-9.174 0-.541-.337-.987-.75-.991-1.568-.016-3.039-5.146-2.541-8.861.311-2.314.071-4.149-.595-4.56-.613-.379-1.114-1.493-1.114-2.476 0-1.588 1.417-1.859 12.75-2.437 7.013-.357 22.65-.645 34.75-.639 12.1.005 32.35-.452 45-1.017 12.65-.564 38.075-1.461 56.5-1.992 34.728-1.002 71.024-3.032 70.968-3.971-.227-3.852-13.589-11.123-24.34-13.244-11.978-2.362-44.204-.733-47.128 2.383-.704.75.48.88 4 .439 17.951-2.252 44.316-1.545 47.945 1.284.58.453 2.263 1.111 3.74 1.464 2.862.683 9.702 4.716 9.773 5.762.023.345-12.895.93-28.708 1.301-15.812.371-34.15 1.115-40.75 1.655-6.6.539-17.625.932-24.5.873-6.875-.06-19.475.148-28 .462-8.525.314-32.406.809-53.068 1.1l-37.569.53-1.282-2.396c-.756-1.413-2.88-2.875-5.181-3.564l-3.9-1.168V89.728l4.649.637c2.557.351 5.145 1.032 5.75 1.514.606.482 2.169 1.204 3.475 1.605 3.985 1.224 14.265 8.669 21.106 15.284 4.328 4.185 6.987 6.057 8.001 5.632.835-.351 4.738-.865 8.672-1.144 6.432-.456 7.719-.22 12.778 2.342 6.369 3.225 12.321 8.717 16.337 15.074 2.601 4.118 5.391 5.497 6.732 3.328.34-.55 2.885-1 5.655-1 5.2 0 9.562 2.128 12.979 6.333 1.62 1.994 1.671 1.985 6.5-1.135 2.676-1.73 5.373-3.573 5.993-4.097 3.49-2.944 22.373-5.653 22.373-3.209 0 .49 1.037 1.152 2.305 1.47 1.268.318 4.433 2.676 7.034 5.241 2.601 2.564 4.923 4.468 5.159 4.232 1.197-1.196-7.506-9.874-11.998-11.965-5.37-2.499-16.154-3.183-18.683-1.186-.724.572-2.539 1.332-4.032 1.688-1.493.357-4.709 1.994-7.145 3.638-2.437 1.645-4.75 2.99-5.141 2.99s-2.559-1.463-4.817-3.25c-3.853-3.05-4.577-3.245-11.738-3.165-7.442.083-7.684.008-9.746-3C587.36 119.066 576.945 111 571.785 111c-1.054 0-2.707-.423-3.674-.941-1.121-.6-4.143-.531-8.345.188l-6.588 1.129-7.929-7.438c-4.361-4.091-11.019-9.144-14.795-11.229-6.114-3.376-8.602-4.301-17.204-6.395-2.097-.51-2.25-1.084-2.25-8.431V70h182.954l1.75-2.75c.962-1.513 2.111-3.01 2.552-3.327.89-.64.257-12.283-.757-13.924-.352-.571-.193-2.492.354-4.269.547-1.776 1.292-6.717 1.656-10.98l.662-7.75H513.23l-1.669-2.548c-2.608-3.98-7.479-6.444-12.746-6.448-6.108-.005-8.633 1.031-12.846 5.271l-3.469 3.492-149.25.642-149.25.643V14.026C184 4.978 183.631 0 182.96 0c-.573 0-2.318.944-3.88 2.099-3.15 2.329-13.273 4.812-19.84 4.866-3.289.027-5.396-.763-9.24-3.465-2.739-1.925-5.322-3.472-5.74-3.438-.418.035-1.73 1.272-2.915 2.75Zm8.25 4.688c3.28 2.226 9.74 3.4 13.905 2.527.55-.115 3.475-.459 6.5-.765 3.025-.305 6.388-1.164 7.473-1.909 1.084-.744 2.322-1.353 2.75-1.353.427 0 .777 129.825.777 288.5V583h-39.781l-.596-19.25c-2.07-66.897-4.179-293.297-4.524-485.571l-.125-69.322 2.056.652c1.497.476 2.606-.048 4.085-1.928 2.504-3.183 2.903-3.187 7.48-.081Zm353.394 15.222c2.696 2.309 2.606 2.594-1.793 5.642-4.732 3.28-6.896 3.276-10.642-.016-2.824-2.482-2.868-2.646-1.059-3.968 1.038-.759 2.701-1.38 3.696-1.38.995 0 1.809-.45 1.809-1 0-1.653 5.83-1.126 7.989.722Zm7.61 7.818c.441 1.757.062 3.178-1.23 4.607-1.812 2.003-9.29 6.319-9.83 5.673-.148-.176-.839-1.415-1.537-2.753-1.122-2.152-1.009-2.643.976-4.25 1.234-.999 2.799-1.817 3.478-1.817.679 0 2.049-.9 3.044-2 2.455-2.713 4.333-2.514 5.099.54Zm184.814 4.874c-.401 2.797-.77 10.261-.821 16.586-.051 6.325-.456 12.063-.901 12.75-.637.985-19.995 1.25-91.25 1.25-55.846 0-90.441-.36-90.441-.941 0-.518.444-1.215.987-1.551.542-.335 1.931-3.721 3.086-7.524 2.096-6.9 2.257-15.317.424-22.228l-.728-2.743 76.366-.282c42.001-.155 82.585-.309 90.186-.342l13.821-.06-.729 5.085Zm-204.085-1.436c3.815 4.534 7.072 17.039 4.803 18.441-.477.295-1.147 2.279-1.487 4.408-.341 2.13-1.594 5.111-2.785 6.626l-2.166 2.753-42.597-.568c-23.428-.312-92.208-.583-152.846-.603L184 65V32.021l43.25-.26c23.788-.144 92.369-.378 152.403-.521l109.152-.26 2.523 2.998ZM132 48.517v16.517l-35.25-.047c-35.266-.047-49.094-.622-48.238-2.006.251-.406 2.038-1.489 3.972-2.406C54.418 59.657 56 58.535 56 58.08c0-.454-2.26-1.043-5.022-1.308-2.762-.265-5.321-.782-5.686-1.147-.366-.365 1.527-2.648 4.205-5.072 4.182-3.785 4.685-4.629 3.563-5.98-.717-.865-1.903-1.573-2.633-1.573-.731 0-3.601-.487-6.378-1.083-5.328-1.143-5.901-2.136-4.419-7.667l.603-2.25H132v16.517Zm19.5-14.143c-3.847 1.78-5.614 4.803-5.682 9.723-.084 6.124 1.824 9.514 6.625 11.771 3.817 1.794 4.657 1.863 8.156.666 4.95-1.693 7.389-5.574 7.396-11.768.004-3.775-.552-5.342-2.745-7.734-3.31-3.611-9.222-4.754-13.75-2.658ZM155 40c0 2.667-.333 3-3 3-3.617 0-3.977-2.075-.75-4.326C154.463 36.433 155 36.622 155 40Zm8.04-.812c3.845 2.843 3.737 3.812-.423 3.812-2.633 0-3.51-.482-3.952-2.174-.54-2.066-.11-3.826.935-3.826.264 0 1.813.985 3.44 2.188ZM313 38.705c-3.968.436-26.082 5.228-27.138 5.88-1.173.725-14.991 3.48-22.362 4.459-6.307.838-60.058 2.859-68.405 2.573-1.872-.064-3.583.403-3.802 1.039-.269.783 2.443 1.395 8.405 1.896 11.616.977 63.699-.306 64.135-1.58.184-.534 1.984-.981 4-.993 3.548-.02 7.094-.726 25.167-5.013 4.675-1.108 10.975-2.496 14-3.083 6.199-1.202 38.884-.69 41.042.643.752.465 2.513.98 3.913 1.146 1.4.165 6.145 1.018 10.545 1.895s12.725 2.28 18.5 3.119c5.775.838 11.281 1.926 12.236 2.419 2.237 1.153 25.764 1.175 25.764.024 0-.479 2.66-1.172 5.91-1.539 3.566-.404 6.442-1.314 7.25-2.295 1.202-1.459 1.031-1.549-1.66-.867-5.534 1.401-17.922 2.244-27 1.838-10.206-.457-15.754-1.25-30-4.287-5.5-1.172-12.7-2.693-16-3.379-3.3-.686-6.675-1.53-7.5-1.876-4.15-1.739-27.806-3.03-37-2.019ZM513.978 43c.01 3.034-4.719 6.472-10.228 7.435l-3.75.656v-3.546c0-2.703.416-3.549 1.75-3.563.962-.01 3.743-1.369 6.179-3.019 4.774-3.235 6.032-2.812 6.049 2.037ZM155 50c0 3.713-3.079 4.153-5.443.777C147.302 47.559 147.59 47 151.5 47c3.222 0 3.5.238 3.5 3Zm11-2.18c0 1.088-4.745 5.18-6.008 5.18-.545 0-.992-1.35-.992-3 0-2.762.278-3 3.5-3 1.925 0 3.5.369 3.5.82Zm346.988 5.93c-.016 3.385-5.392 7.226-11.207 8.006-3.859.518-3.883.499-3.197-2.367.989-4.128.944-4.091 5.904-4.835 2.481-.372 4.512-1.066 4.512-1.542s.788-1.071 1.75-1.323c.962-.251 1.862-.509 2-.573.138-.064.244 1.121.238 2.634Zm-5.095 11.881c-1.966 2.37-7.197 4.369-11.434 4.369-2.894 0-3.54-.345-3.273-1.75.259-1.361 1.533-1.818 5.737-2.058 2.972-.169 6.316-.946 7.43-1.727 2.514-1.761 3.406-1.085 1.54 1.166ZM158.294 97.25c.33 19.499.998 33.832 1.69 36.25.629 2.2 1.734 6.475 2.454 9.5.721 3.025 1.849 6.849 2.506 8.498 1.573 3.946 2.83 50.098 1.339 49.177-.57-.353-1.557-2.706-2.192-5.229-1.263-5.016-4.627-10.869-7.961-13.851-2.74-2.451-2.828-.384-.144 3.386 5.372 7.544 6.428 11.79 6.472 26.019.044 14.183-1.027 19.164-4.523 21.035-2.803 1.5-4.639.168-5.303-3.846-1.014-6.135-.73-9.214.911-9.844 3.243-1.244 5.755-8.423 5.674-16.216-.093-9.029-1.573-13.129-4.74-13.129-3.27 0-6.424 5.921-7.379 13.852-1.46 12.126 1.505 31.001 5.243 33.38 4.437 2.823 11.133-1.159 12.159-7.231.969-5.736 2.954-6.512 2.1-.821-.975 6.504-4.484 15.712-11.172 29.32l-5.897 12-.32-4.75c-.547-8.104-2.211-5.218-2.211 3.833 0 6.108.337 8.471 1.17 8.194 1.008-.336 3.623-4.974 12.843-22.777 3.46-6.681 5.922-12.537 8.198-19.5 2.215-6.773 2.281-8.022 2.034-38.5-.267-33.03-1.289-43.696-5.412-56.453-1.075-3.326-2.213-10.097-2.528-15.047-.316-4.95-.921-9.45-1.344-10-.423-.55-1.099-11.912-1.501-25.25-.448-14.847-1.115-24.25-1.721-24.25-.645 0-.8 11.263-.445 32.25ZM305.94 69.607c.271.271-3.84 4.633-9.137 9.693-25.68 24.536-31.191 29.825-42.803 41.087-10.255 9.945-46.802 45.098-61.978 59.613-2.013 1.925-4.641 4.357-5.841 5.405L184 187.31V67.872l60.724.621c33.398.342 60.946.843 61.216 1.114Zm16.932.983c.37.319-22.231 22.454-37.285 36.518-4.352 4.066-11.829 11.217-16.616 15.892-4.787 4.675-16.295 15.7-25.573 24.5-16.999 16.124-21.995 20.903-45.192 43.229-6.988 6.727-13.044 12.239-13.456 12.25-.412.012-.75-2.371-.75-5.295 0-4.892.299-5.578 3.75-8.604 2.063-1.808 10.09-9.428 17.838-16.934 16.366-15.853 38.272-36.95 62.082-59.79a9767.82 9767.82 0 0 0 30.83-29.717l14-13.574 5 .603c2.75.332 5.167.747 5.372.922ZM507 74.401c0 1.832-6.43 5.599-9.557 5.599-1.9 0-2.443-.524-2.443-2.359 0-2.349.84-2.686 11.25-4.51.413-.072.75.5.75 1.27Zm-.281 9.766c-.212 2.613-.866 3.387-3.738 4.424-5.449 1.967-7.981 1.757-7.981-.662 0-2.734 2.295-4.925 5.179-4.944 1.276-.009 2.996-.452 3.821-.985 2.459-1.589 2.989-1.166 2.719 2.167ZM507 95.051c0 2.536-.585 3.296-3.468 4.5-1.907.797-4.607 1.449-6 1.449-2.207 0-2.532-.431-2.532-3.359 0-3.536.009-3.541 11.25-5.51.413-.072.75 1.242.75 2.92Zm-16 26.341v28.391l-2.27.57c-1.248.313-3.234 1.468-4.413 2.566-2.054 1.914-3.154 1.975-26.48 1.474-32.919-.708-70.666-3.459-76.027-5.541-1.479-.575-3.136-.768-3.683-.431-.865.535-15.773 2.945-26.127 4.224-1.925.238-8.675 1.112-15 1.943-6.325.831-17.72 1.75-25.323 2.044-13.509.521-13.953.471-19.5-2.185-3.647-1.746-7.745-2.829-11.46-3.026-3.181-.169-6.668-.588-7.75-.931-4.709-1.495-.08-9.31 7.701-13.003 6.825-3.238 31.831-2.807 35.96.62.906.752 2.589-.274 6.268-3.82 3.282-3.163 6.867-5.471 10.317-6.642 5.157-1.75 5.401-1.745 9.927.198 2.552 1.095 4.941 2.479 5.309 3.074 1.153 1.866 2.198 1.216 5.088-3.167 3.922-5.946 14.429-15.989 20.154-19.263 3.717-2.126 6.545-2.862 12.454-3.241 6.753-.434 8.287-.187 13.154 2.115 3.136 1.484 8.143 5.241 11.626 8.724l6.117 6.117 2.619-1.851c4.153-2.935 4.567-3.165 9.795-5.436 6.635-2.882 13.401-2.215 20.245 1.996 2.761 1.699 5.42 3.086 5.91 3.082.489-.004 1.978-1.606 3.309-3.56 2.963-4.35 16.176-16.811 19.879-18.748a500.695 500.695 0 0 0 5.701-3.042c6.763-3.676 6.5-4.759 6.5 26.749Zm16-16.007c0 2.831-3.652 5.522-8.581 6.322-3.338.542-3.419.473-3.419-2.894 0-3.362.13-3.474 5.25-4.476 2.888-.565 5.587-1.097 6-1.182.413-.085.75.918.75 2.23Zm0 10.664c0 2.618-.601 3.322-4.25 4.978-6.386 2.899-7.75 2.63-7.75-1.527 0-2.986.338-3.5 2.3-3.5 1.265 0 2.728-.406 3.25-.903.822-.781 3.13-1.584 5.7-1.981.413-.064.75 1.256.75 2.933Zm0 10.818c0 2.506-.645 3.135-5.133 5-2.824 1.173-5.551 2.133-6.061 2.133-.51 0-.787-1.687-.616-3.748.298-3.61.495-3.792 5.31-4.904 2.75-.636 5.337-1.199 5.75-1.252.413-.053.75 1.194.75 2.771Zm0 11.184c0 3.166-2.179 4.658-9.25 6.335-2.642.627-2.75.499-2.75-3.259 0-3.86.062-3.924 4.75-4.901 7.221-1.505 7.25-1.497 7.25 1.825Zm0 9.414c0 2.149-3.566 3.695-7.715 3.343-5.489-.466-4.988-2.307.944-3.467 2.899-.567 5.608-1.101 6.021-1.186.413-.085.75.504.75 1.31Zm-10.629 6.015c1.474 1.117 1.731 2.162 1.211 4.934-.363 1.934-1.101 3.789-1.64 4.122-1.597.987-7.873-1.539-8.985-3.616-2.603-4.864 4.644-9.052 9.414-5.44Zm19.047-.873c2.413.926 1.999 5.987-.641 7.836-3.079 2.157-3.44 2.007-4.061-1.693-.3-1.787-.857-4.037-1.238-5-.549-1.387-.169-1.75 1.833-1.75 1.389 0 3.237.273 4.107.607Zm-9.025 3.975c1.534 3.997-.923 8.418-4.679 8.418-1.727 0-1.898-.473-1.356-3.75.341-2.062.625-4.312.631-5 .016-1.82 4.688-1.533 5.404.332Zm-15.757 8.912c1.575.821 3.877 1.496 5.114 1.5 1.237.003 2.25.4 2.25.881s.286 2.305.636 4.053c.617 3.085.55 3.158-2.25 2.508-5.163-1.199-9.372-4.648-9.379-7.686-.008-3.213-.077-3.189 3.629-1.256Zm27.818-.569c.825 1.335-1.598 6.194-2.876 5.768-1.307-.435-1.952-3.275-1.194-5.251.619-1.613 3.19-1.94 4.07-.517Zm-7.927 5.2c.785 3.573-.456 4.836-4.777 4.86-2.05.011-2.75-.474-2.75-1.903 0-1.055-.259-2.594-.576-3.421-.39-1.016.176-1.645 1.75-1.945 5.089-.97 5.659-.755 6.353 2.409Zm9.473 4.81c0 2.393-2.104 6.065-3.475 6.065-2.14 0-1.963-4.646.225-5.92 2.214-1.289 3.25-1.336 3.25-.145Zm-22.75 3.707c2.156.607 2.263 2.687.224 4.379-1.248 1.036-2.157.926-5-.605-2.041-1.099-3.474-2.635-3.474-3.723 0-1.854 1.806-1.865 8.25-.051Zm13.735 1.608c-.031 2.469-1.711 3.831-5.484 4.443-3.364.546-3.754.409-3.169-1.117.368-.957.668-2.378.668-3.158 0-.988 1.214-1.418 4-1.418 2.542 0 3.994.456 3.985 1.25Zm12.852 4.709c.516 3.531-.783 9.041-2.132 9.041-1.067 0-6.705-6.18-6.705-7.348 0-.876 6.509-4.613 7.5-4.306.55.171 1.152 1.347 1.337 2.613Zm-32.087.954c1.788.705 3.25 1.633 3.25 2.062 0 .72-9.008.188-9.893-.584-.59-.516 2.1-3.511 2.793-3.109.33.191 2.062.925 3.85 1.631Zm-257.214 5.101c3.633 1.381 14.997 12.443 16.493 16.056 1.415 3.416 3.898 3.773 6.471.93 3.353-3.705 7.598-2.47 14.178 4.122 2.072 2.076 2.469 2.12 8.177.909 3.299-.7 8.954-1.085 12.565-.855 5.839.372 6.954.794 10.073 3.817 5.396 5.23 4.835 6.593-3.16 7.679-2.658.361-6.052 1.553-7.542 2.65-2.528 1.86-3.722 1.95-17.841 1.339-8.322-.36-15.653-.986-16.291-1.39-.637-.404-2.284-.806-3.659-.894-1.375-.087-5.928-.645-10.117-1.24-6.06-.859-9.23-.78-15.5.387-8.72 1.623-21.05 3.004-35.133 3.936l-9.25.612.028-9.786.028-9.786 5.941-5.886c5.489-5.438 6.208-5.842 9.452-5.316 1.931.313 5.114 1.793 7.074 3.287l3.562 2.717 1.707-2.322c3.262-4.436 10.419-10.869 12.557-11.287 4.083-.798 7.53-.69 10.187.321Zm296.714 3.884c2.165 3.855 2.75 6.196 2.75 10.999 0 5.967-1.291 7.988-2.782 4.353-.395-.962-1.925-3.775-3.4-6.25-2.48-4.163-2.599-4.856-1.581-9.25.605-2.613 1.362-4.75 1.681-4.749.32.001 1.819 2.204 3.332 4.897ZM133 210.855v19.855l-30.75.713c-16.912.392-42.675.485-57.25.206-14.575-.278-29.312-.534-32.75-.567-3.437-.034-6.25-.409-6.25-.833 0-1.372 8.331-5.138 14.831-6.704 7.366-1.774 14.765-1.988 15.713-.454.401.65 2.151.818 4.456.429 2.305-.389 4.055-.221 4.456.429 1.212 1.961 3.261 1.107 5.627-2.345 2.549-3.721 7.543-6.584 11.483-6.584 3.115 0 8.734 2.304 12.127 4.973 3.365 2.647 4.735 2.557 7.567-.498 2.431-2.622 6.553-3.462 10.438-2.128 1.826.627 2.483.196 3.88-2.546.925-1.816 2.296-3.976 3.047-4.801.75-.825 2.486-2.907 3.856-4.628 3.091-3.881 9.572-5.8 14.613-4.327 3.676 1.074 2.992 1.558 10.208-7.218 4.398-5.347 4.698-4.26 4.698 17.028Zm358-18.947c0 .5-2.106 3.537-4.679 6.75a1097.284 1097.284 0 0 0-4.75 5.953c-.039.061-1.984.404-4.321.762-5.344.818-5.428-.145-.626-7.118 2.462-3.574 4.628-5.553 6.75-6.168 4.183-1.213 7.626-1.294 7.626-.179Zm-335.554 7.507c.739 5.913-.076 12.238-1.706 13.246-.681.42-.858-.922-.519-3.929.405-3.597.224-4.456-.853-4.043-.856.328-1.366-.171-1.362-1.332.008-2.963 2.008-9.357 2.926-9.357.461 0 1.142 2.437 1.514 5.415Zm322.387 10.343c-1.878 4.274-6.608 11.24-7.633 11.241-.714.001-2.669.709-4.343 1.575-1.673.865-3.248 1.368-3.5 1.117-.251-.252 1.055-3.322 2.902-6.824 3.091-5.861 3.672-6.415 7.3-6.975 2.167-.335 4.316-.672 4.774-.75.459-.078.684.199.5.616Zm62.978 4.492c.577 2.337.828 5.6.558 7.25-.983 6.011-1.478 7.724-2.065 7.138-1.366-1.367-4.095-11.189-3.368-12.124.433-.558 1.084-2.252 1.445-3.764.944-3.951 2.223-3.392 3.43 1.5Zm5.131 25.352c.06 4.213-3.095 10.301-5.797 11.189-1.048.345-1.192-.3-.634-2.841.397-1.808.85-5.349 1.007-7.869.157-2.519 1.086-6.381 2.063-8.581l1.778-4 .763 4c.419 2.2.789 5.846.82 8.102Zm-1.4 16.089c-.772 3.075-6.198 10.309-7.733 10.309-.571 0-.717-.773-.331-1.75.381-.962.947-3.273 1.26-5.134.359-2.14 1.246-3.56 2.415-3.866 1.016-.266 1.847-.881 1.847-1.367 0-.485.724-.883 1.608-.883 1.247 0 1.457.605.934 2.691Zm-74.082 15.647c.167 3.389.63 6.95 1.029 7.912 1.545 3.729-1.442 1.528-3.904-2.876-2.761-4.941-3.25-9.51-1.505-14.059l1.08-2.815 1.498 2.838c.824 1.561 1.635 5.611 1.802 9Zm-137.207-6.31c-2.336 1.038-4.963 2.469-5.838 3.18-3.434 2.788-7.217 6.698-7.604 7.858-.311.934-.909.952-2.543.077-3.075-1.645-8.936-1.406-11.819.482-2.358 1.545-2.666 1.496-6.268-1-2.084-1.444-4.552-2.625-5.485-2.625-.933 0-1.696-.45-1.696-1 0-3.53-10.474 1.46-15.825 7.538-3.636 4.131-4.272 4.481-6.237 3.429-2.403-1.286-5.549-.205-9.554 3.286-1.855 1.616-2.671 1.704-6.616.71-9.346-2.353-21.526 4.879-16.568 9.837.66.66 2.81 1.2 4.777 1.2 1.968 0 4.605.72 5.861 1.599 1.52 1.065 3.517 1.43 5.973 1.093 23.646-3.244 29.948-3.836 37.689-3.538 18.043.694 70.374.045 84.5-1.048 7.975-.617 23.05-1.57 33.5-2.118 19.022-.999 37.506-2.947 37.493-3.953-.004-.294-1.661-1.66-3.683-3.035-3.484-2.369-4.399-2.5-17.529-2.5-9.096 0-14.098-.383-14.567-1.115-1.89-2.953-11.949-3.444-16.013-.781-1.934 1.267-2.957 1.372-4.872.5-1.333-.607-3.947-1.104-5.809-1.104-2.477 0-3.551-.523-4.004-1.949-.34-1.072-1.495-2.227-2.567-2.567-1.072-.34-1.949-1.021-1.949-1.513 0-1.376-8.018-3.217-11.222-2.577-1.965.393-3.026.123-3.405-.865-.568-1.479-5.217-4.63-11.373-7.71-4.518-2.26-11.382-2.174-16.747.209Zm-168.776-.263c-4.521 3.247-8.477 16.637-8.477 28.694 0 5.248.391 9.541.87 9.541 1.437 0 3.321 11.9 2.589 16.353-.375 2.281-1.567 6.113-2.649 8.516-3.633 8.064-4.124 20.217-.946 23.395 1.771 1.771 2.235.318 1.015-3.18-1.416-4.063-.568-10.394 2.083-15.545 1.121-2.179 2.038-4.504 2.038-5.167 0-.663.563-1.393 1.25-1.622 2.12-.707 1.655-18.408-.616-23.45-1.544-3.427-1.796-5.926-1.455-14.471.226-5.681.942-11.229 1.591-12.329.649-1.1 1.955-3.8 2.902-6 .947-2.2 1.896-4.337 2.109-4.75.492-.956-.965-.946-2.304.015Zm186.57 3.998c6.412 5.387 11.955 9.043 12.463 8.221 1.992-3.224 12.421 1.047 15.071 6.173 1.339 2.589 1.884 2.846 4.842 2.291 2.111-.396 4.387-.083 6.206.852 2.669 1.373 3.115 1.309 6.343-.912 4.211-2.897 10.476-3.197 13.305-.638 1.639 1.482 3.973 1.75 15.244 1.75 11.82 0 15.78.533 14.378 1.934-.426.426-18.464 1.682-52.399 3.649-9.35.542-38.199 1.145-64.109 1.34-28.63.216-47.851.747-49 1.352-3.081 1.624-15.789 2.485-25.417 1.723-9.504-.752-10.707-1.62-6.953-5.017 1.627-1.472 3.593-1.812 10.084-1.742 7.009.076 8.538-.236 11.703-2.384 2.348-1.593 4.361-2.249 5.667-1.847 1.114.342 2.753.855 3.643 1.139 1.086.347 2.351-.67 3.852-3.098 5.231-8.464 14.79-11.086 21.203-5.815 1.83 1.504 3.652 3.191 4.049 3.75.476.671 1.325.591 2.5-.236 3.484-2.454 6.804-3.372 10.018-2.769 1.793.336 3.26 1.041 3.26 1.566 0 2.173 2.935.698 6.109-3.07 3.002-3.563 7.292-6.877 11.891-9.186 2.283-1.145 14.4-.41 16.047.974Zm187.324 3.942c-1.097 1.469-3.092 3.466-4.433 4.438-3.001 2.175-7.938 3.459-7.938 2.065 0-1.637 7.197-8.346 8.441-7.869.629.241 1.991-.182 3.028-.94 2.736-2.001 3.211-.787.902 2.306Zm-57.9 7.045c2.504 1.512 4.832 3.65 5.172 4.75.341 1.1 1.46 3.194 2.488 4.654 2.402 3.412 2.358 3.662-.539 3.108-2.676-.511-6.067-3.787-9.99-9.652-2.448-3.66-3.193-5.61-2.143-5.61.253 0 2.508 1.237 5.012 2.75ZM527 283.016l3.5.043-3.242 2.949c-1.784 1.623-4.433 3.249-5.887 3.614-3.539.888-9.778-.744-10.142-2.654-.348-1.827 7.228-5.096 10.271-4.432 1.1.24 3.575.456 5.5.48Zm-27.5 3c4.151.035 5.575.566 8.386 3.12 4.113 3.74 3.092 4.826-4.559 4.849-4.13.012-5.799-.511-8.273-2.593-1.704-1.434-3.59-3.525-4.19-4.646-.983-1.836-.856-1.976 1.273-1.406 1.299.348 4.613.652 7.363.676ZM221.621 392.447c1.967 1.378 11.379 19.116 11.379 21.445 0 .609.45 1.108 1 1.108s1 .6 1 1.333 1.8 4.75 4 8.925c5.023 9.534 5.136 12.806.6 17.342-2.708 2.708-4.196 3.4-7.313 3.4-5.016 0-7.995-3.038-12.256-12.5-1.734-3.85-3.551-7.675-4.037-8.5-3.876-6.577-10.994-22.025-10.994-23.859 0-2.863 1.684-6.049 4.397-8.316 2.582-2.159 9.381-2.369 12.224-.378Zm-64.629 47.15c-.926 10.67-.98 15.984-.201 19.75.586 2.834 1.36 6.953 1.72 9.153.36 2.2 1.255 5.35 1.99 7 4.306 9.675 5.474 13.169 7.041 21.07 1.288 6.487 1.574 11.113 1.107 17.844-.827 11.892-1.38 13.806-3.773 13.047-2.463-.782-2.493 1.671-.047 3.884 2.552 2.31 2.926 2.147 4.81-2.095 1.187-2.674 1.793-7.625 2.112-17.25.536-16.197-.767-23.632-6.219-35.5-.758-1.65-1.7-4.35-2.093-6-.393-1.65-1.173-3.581-1.734-4.291-.574-.728-1.228-9.994-1.499-21.25-.264-10.978-.81-19.959-1.214-19.959-.404 0-1.304 6.569-2 14.597Zm87.78 16.653C252.865 472.779 256 479.623 256 480.764c0 .588.351 1.219.781 1.403.43.183 4.503 7.942 9.052 17.242 6.307 12.893 7.962 17.105 6.969 17.734-2.215 1.406-3.638.951-4.363-1.393-.382-1.237-3.113-7.24-6.067-13.34-2.955-6.099-5.372-11.782-5.372-12.627 0-.846-.614-2.048-1.365-2.671-1.425-1.183-13.949-25.941-15.106-29.862-.365-1.238-.993-2.25-1.395-2.25-1.098 0-3.353-6.836-2.638-7.994 1.573-2.545 3.626-.252 8.276 9.244Zm-88.144 54.5c-2.044 17.333-1.932 21.038.904 30.036 1.51 4.793 3.108 9.614 3.55 10.714.443 1.1 1.108 4.025 1.48 6.5.747 4.986 2.973 10 4.439 10 .997 0 .594-3.662-1.181-10.715-.583-2.319-.801-4.892-.484-5.718.317-.827.197-1.737-.266-2.024-.464-.286-1.131-2.056-1.483-3.931-.352-1.876-1.365-4.865-2.252-6.642-1.291-2.589-1.58-6.188-1.45-18.101.134-12.301-.085-14.869-1.268-14.869-.96 0-1.613 1.559-1.989 4.75Zm154.053 9.817c12.001 3.601 20.917 9.163 29.77 18.574 4.152 4.414 7.549 8.865 7.549 9.892 0 1.027.616 2.227 1.37 2.667 3.62 2.114 9.63 19.528 9.63 27.905V585h-3.403c-3.331 0-3.414-.102-3.853-4.75-.572-6.048-3.545-16.647-4.791-17.083-.524-.184-.953-.894-.953-1.579 0-2.082-6.235-10.807-10.403-14.556l-5.038-4.532c-11.866-10.662-35.369-15.44-55.059-11.193-18.289 3.945-31.978 16.048-41.537 36.726-.712 1.54-1.305 4.266-2.441 11.217-.57 3.491-.851 3.75-4.067 3.75-3.332 0-3.454-.134-3.42-3.75.16-17.024 12.876-38.97 28.465-49.126 2.2-1.433 4.225-2.834 4.5-3.115 1.415-1.441 10.222-5.232 15.5-6.671 13.025-3.553 25.832-3.476 38.181.229ZM301.5 532c.34.55 1.773 1 3.184 1 3.171 0 13.362 4.408 19.092 8.259 5.318 3.573 13.824 12.248 15.925 16.241.868 1.65 1.857 3.225 2.198 3.5 1.908 1.539 5.396 12.882 5.492 17.86l.109 5.64-18-.059c-20.628-.068-34.699-.297-70.341-1.144l-25.341-.603.498-2.597c2.961-15.433 10.985-28.514 23.223-37.858 4.448-3.397 15.462-8.418 19.735-8.997 2.076-.282 4.015-.901 4.309-1.377.75-1.212 19.162-1.087 19.917.135Zm45 55.94c146.453.825 274.796 2.104 275.486 2.747.268.249.656 11.446.864 24.883l.377 24.43H330.113C40.637 640 37 639.976 37 638.059c0-1.068.374-2.172.831-2.454.457-.283 1.407-3.122 2.111-6.309.704-3.188 1.668-6.277 2.142-6.865 1.644-2.042 4.022-14.672 3.353-17.809-.367-1.717-1.685-5.597-2.931-8.622-1.246-3.025-2.578-6.525-2.962-7.778l-.696-2.277 91.326.645c50.229.355 147.576.962 216.326 1.35ZM92 598.963c-7.759 1.2-12.469 2.905-16.552 5.994-4.618 3.494-8.86 3.85-12.448 1.043-4.555-3.563-5.501-2.098-1.46 2.26 2.093 2.257 3.392 2.74 7.366 2.74 3.18 0 5.637-.633 7.209-1.859 6.966-5.428 8.084-5.641 29.635-5.641 11.138 0 20.25-.278 20.25-.617 0-.591-5.31-1.963-15-3.876-5.194-1.025-12.546-1.042-19-.044Zm353.253 2.074c-8.655 1.085-12.799 3.018-13.637 6.359-1.35 5.379 2.739 10.147 9.656 11.26 2.075.334 4.027 1.018 4.338 1.521.646 1.046-9.542-.029-11.11-1.172-.55-.401-2.334-1.049-3.965-1.44-3.209-.769-7.53-2.626-20.187-8.671-4.483-2.142-8.645-3.894-9.25-3.894-.604 0-1.098-.45-1.098-1s1.575-1 3.5-1 3.5-.45 3.5-1c0-.583-3.333-1-8-1-4.4 0-8 .367-8 .815 0 .448 3.938 2.811 8.75 5.25 4.813 2.439 9.345 4.998 10.071 5.685.727.688 1.768 1.25 2.312 1.25.545 0 3.55 1.169 6.679 2.598 10.832 4.947 11.834 5.322 16.023 5.992 2.315.37 4.451 1.064 4.746 1.541.793 1.284 52.295 1.075 63.919-.259 5.5-.631 12.925-1.787 16.5-2.568 29.244-6.392 27.409-6.165 55.75-6.908 25.232-.661 32.114-1.426 24-2.666-3.536-.54-49.826 0-58.75.686-5.405.415-7.52.901-11.5 2.639-7.621 3.329-28.708 5.574-54.809 5.836-10.63.107-13.529-1.022-5.799-2.258 4.702-.752 13.571-5.054 17.029-8.26 3.91-3.626 1.798-3.797-3.862-.314-2.838 1.746-5.47 2.863-5.851 2.483-.38-.381.092-1.131 1.05-1.667.958-.536 1.742-2.037 1.742-3.335 0-5.599-16.147-8.711-33.747-6.503Zm25.165 4.493c2.015.842 3.393 1.967 3.063 2.5-.848 1.373-16.196 1.24-17.054-.148-.479-.776.572-.997 3.441-.723 4.334.413 4.916.025 2.932-1.959-1.782-1.782 3.066-1.572 7.618.33Zm-327.42 3.473c-3.277 4.137-6.706 5.726-9.746 4.515-.963-.384-4.054-.871-6.868-1.082-2.814-.211-6.396-.87-7.959-1.464-1.563-.595-7.136-1.319-12.384-1.61-8.639-.479-9.963-.308-14.001 1.804-8.294 4.34-8.561 11.975-.512 14.659 4.532 1.511 19.078 1.655 22.838.226 3.102-1.18 5.067-4.627 4.792-8.413-.201-2.778-.096-2.844 3.568-2.241 10.327 1.7 14.492 1.824 16.955.506 2.216-1.186 8.319-8.767 8.319-10.333 0-1.625-2.183-.127-5.002 3.433Zm306.347-2.546c.308.802 2.372 2.602 4.587 4 3.418 2.158 5.201 2.543 11.762 2.543 7.366 0 7.651.083 5.985 1.75-1.483 1.483-3.689 1.75-14.464 1.75-10.745 0-13.321-.31-16.625-2-7.716-3.947-7.341-7.044 1.023-8.446 7.098-1.189 7.122-1.188 7.732.403ZM246 616.053l-9.5 5.038-16.263-.003c-8.945-.001-17.832-.297-19.75-.656-4.203-.789-4.914 1.235-.737 2.098 1.512.313 4.527 1.098 6.7 1.745 2.172.648 9.834 1.188 17.027 1.201l13.076.024 10.244-5.25c9.832-5.039 10.565-5.25 18.224-5.25 4.388 0 7.979-.42 7.979-.933 0-1.305-2.418-1.883-10.5-2.509-6.909-.536-7.123-.478-16.5 4.495ZM99.491 615.01c-1.586 1.753-1.648 2.328-.486 4.5 1.105 2.065 2.072 2.49 5.664 2.49 2.382 0 4.331-.45 4.331-1s-1.575-1-3.5-1c-5.056 0-4.422-2.339 1.029-3.797 3.873-1.035 4.887-.976 7 .408 3.382 2.216 3.102 3.718-1.063 5.704-4.27 2.036-12.509 2.16-17.966.269-6.563-2.273-5.628-6.856 1.756-8.609 4.983-1.183 5.184-1.119 3.235 1.035Z" fill="#000"/></svg>