<svg width="740" height="644" fill="none" xmlns="http://www.w3.org/2000/svg"><path fill-rule="evenodd" clip-rule="evenodd" d="M141.345 2.812c-2.011 2.508-2.375 2.605-5.434 1.455-1.804-.678-3.413-1.099-3.576-.935-.163.163-.345 5.78-.403 12.482L131.825 28l-44.662.171c-53.203.204-48.802.081-50.128 1.4-.592.589-1.357 4.076-1.701 7.75-.607 6.501-.561 6.679 1.7 6.679 2.007 0 8.599 1.825 9.909 2.743.748.524-5.982 6.257-7.344 6.257-1.43 0-3.8 4.466-2.865 5.4.329.33 2.324.6 4.433.6 2.108 0 3.833.45 3.833 1s-.499 1-1.108 1C41.605 61 33 65.538 33 66.744c0 .961 4.286 1.262 18.25 1.283 10.037.015 32.2.127 49.25.25l31 .223.2 46.5c.109 25.575.35 51.675.534 58l.335 11.5-3.703 4c-2.036 2.2-4.621 5.173-5.744 6.607-1.82 2.323-2.572 2.556-6.906 2.14-7.823-.752-15.318 3.994-20.401 12.918-1.857 3.259-2.436 3.608-5.233 3.155-3.174-.515-10.582 2.83-10.582 4.779 0 1.588-1.786.978-6.552-2.239-6.451-4.354-13.567-4.532-18.889-.473-2.033 1.551-4.195 3.916-4.806 5.256-1.196 2.625-1.973 2.637-11.54.178-8.874-2.281-26.747.95-32.582 5.889C2.444 229.408 0 232.204 0 233.153c0 .466 1.462.892 3.25.947 1.787.055 6.4.207 10.25.338 3.85.131 32.313.322 63.25.424l56.25.186.099 33.226c.054 18.274.291 40.876.527 50.226.236 9.35.843 62.675 1.349 118.5.507 55.825 1.221 111.565 1.588 123.866l.667 22.366-17.865-.518c-24.007-.696-84.523-.889-85.14-.272-.496.496 5.496 18.19 6.792 20.058 1.901 2.739 1.538 6.376-1.624 16.269-1.886 5.902-4.402 13.763-5.59 17.469-1.188 3.706-1.931 6.967-1.651 7.247.719.719 593.033.663 593.755-.056.942-.938 1.229-38.007.371-47.929l-.778-9-80-.647c-44-.356-102.765-.714-130.588-.797l-50.588-.15-2.168-10.794c-1.839-9.153-6.307-22.384-8.143-24.112-.293-.275-1.749-2.379-3.237-4.675-5.63-8.689-16.617-18.033-28.348-24.108-9.301-4.817-30.845-7.808-41.467-5.757-3.504.677-3.563.631-5.886-4.638-2.86-6.49-11.425-24.452-22.801-47.822-4.685-9.625-8.473-18.625-8.417-20 .056-1.375.376-4.807.711-7.626.665-5.606.625-5.715-10.171-28.03-2.968-6.136-5.397-11.465-5.397-11.843 0-1.334-4.055-5.817-6.328-6.996-4.735-2.457-7.248-2.506-11.748-.232-2.424 1.225-5.424 3.756-6.666 5.625-2.279 3.429-3.01 8.519-1.369 9.534.489.302 1.168 1.66 1.509 3.019 1.259 5.016 15.634 34.816 17.961 37.234.628.652 3.376 2.056 6.107 3.12 2.732 1.063 5.283 2.555 5.67 3.314.387.76 2.495 5.206 4.685 9.881 3.461 7.39 6.339 13.527 15.271 32.566 1.05 2.236 1.908 4.561 1.908 5.166 0 .606.337 1.251.75 1.435.909.404 9.25 17.002 9.25 18.408 0 .547-3.005 2.478-6.678 4.289-21.796 10.748-36.552 31.402-38.915 54.472l-.683 6.664h-35.7l-.013-174.869-.012-174.869 3.75-.62c2.063-.341 6.226-.637 9.251-.658 3.025-.02 12.475-1.185 21-2.588 18.783-3.092 17.768-3.077 37.293-.561 25.987 3.349 36.113 2.995 39.749-1.386.662-.797 2.693-1.449 4.515-1.449 11.246 0 11.977-7.85 1.355-14.555-3.266-2.063-5.114-2.445-11.809-2.445-4.365 0-8.086.38-8.27.845-.183.465-1.465 1.122-2.849 1.461-1.992.487-3.333-.157-6.447-3.096-3.468-3.272-4.529-3.71-8.985-3.71-2.778 0-5.952.306-7.052.681-1.587.54-2.752-.305-5.645-4.098-6.026-7.898-12.145-12.308-17.835-12.855-8.39-.806-11.541.336-17.577 6.373l-5.5 5.499-2.606-2.05c-1.434-1.127-3.446-2.05-4.472-2.05-3.173 0-2.136-1.646 5.797-9.202a2685.256 2685.256 0 0 0 15.897-15.298 1819.86 1819.86 0 0 1 16.088-15.408 3124.31 3124.31 0 0 0 18.853-18.006c6.05-5.829 19.732-18.92 30.404-29.092 10.673-10.172 24.398-23.361 30.5-29.309L330.5 68.869l77.682.406C498.93 69.749 491 68.681 491 80.429v7.382l-6.25 2.95c-7.675 3.622-17.341 10.831-22.731 16.955-2.224 2.526-4.202 4.411-4.396 4.189-.195-.223-1.446-2.396-2.781-4.829-1.335-2.434-4.139-5.809-6.23-7.5-3.666-2.965-4.152-3.075-13.458-3.051-10.771.027-13.767 1.227-21.654 8.676-2.2 2.078-4.347 3.782-4.771 3.788-.425.006-2.45-1.076-4.5-2.405-3.751-2.43-15.746-6-17.181-5.113-.424.261-2.46.685-4.524.941-8.588 1.065-21.76 10.855-29.524 21.942-2.653 3.789-3.505 3.884-9.404 1.044-5.949-2.864-12.815-.955-20.924 5.819l-4.828 4.034-6.172-1.241c-8.579-1.726-25.672-2.442-25.672-1.076 0 .586-1.037 1.066-2.304 1.066-3.203 0-10.894 5.082-14.147 9.347-4.914 6.442-1.095 10.128 12.016 11.599 4.4.493 8.575 1.597 10.194 2.695 2.421 1.642 4.668 1.843 19.241 1.723 9.075-.074 20.1-.67 24.5-1.324 4.4-.653 12.725-1.782 18.5-2.508s13.766-1.91 17.758-2.631c5.862-1.059 8.361-1.071 13-.064 3.158.686 12.717 1.706 21.242 2.267 27.132 1.785 24.643 1.148 32.005 8.203 8.315 7.968 16.983 15.151 19.328 16.017 2.346.866 2.13 1.325-3.597 7.657l-4.764 5.266-4.81-4.373c-7.145-6.497-11.466-10.187-13.28-11.343-2.27-1.447-6.221-4.203-14.736-10.281-7.773-5.548-11.747-6.493-17.731-4.218-3.625 1.379-15.206 13.286-16.001 16.453-.347 1.383-.95 2.515-1.339 2.515-.39 0-1.766 3.446-3.058 7.659-6.265 20.417.889 33.922 14.484 27.341 4.931-2.388 4.244-2.418 20.999.933 5.5 1.1 11.125 2.222 12.5 2.492s4.675.768 7.334 1.107l4.833.616-.695 8.35c-.86 10.314 1.98 24.243 6.421 31.502 1.178 1.925 2.922 5.183 3.874 7.24.953 2.057 2.053 3.744 2.444 3.75.392.005 2.417 1.72 4.5 3.81 2.084 2.089 5.814 5.173 8.289 6.853 9.791 6.644 16.693 8.548 30.978 8.545 11.165-.003 19.629-2.03 27.022-6.471 6.338-3.807 14.803-11.17 16.645-14.477.995-1.788 2.046-3.25 2.334-3.25.719 0 4.473-7.344 7.156-14 1.853-4.597 2.284-7.962 2.628-20.5.382-13.945.234-15.539-2.106-22.664-4.122-12.549-10.326-21.083-22.957-31.579-1.485-1.234-2.7-2.884-2.7-3.667 0-.783-.563-1.63-1.25-1.882-1-.366-1-.723 0-1.783 1.494-1.584 1.661-6.553.25-7.425-.55-.34-1-1.422-1-2.405 0-1.588 1.417-1.859 12.75-2.437 7.013-.357 22.65-.646 34.75-.642 12.1.005 32.575-.452 45.5-1.016 12.925-.564 38.35-1.46 56.5-1.992 34.437-1.01 70.523-3.043 70.468-3.969-.227-3.852-13.589-11.123-24.34-13.244-11.978-2.362-44.204-.733-47.128 2.383-.704.75.48.88 4 .439 17.951-2.252 44.316-1.545 47.945 1.284.58.453 2.263 1.111 3.74 1.464 2.862.683 9.702 4.716 9.773 5.762.023.345-12.895.93-28.708 1.301-15.812.371-34.15 1.115-40.75 1.655-6.6.539-17.625.932-24.5.873-6.875-.06-19.475.148-28 .462-8.525.314-32.406.809-53.068 1.1l-37.569.53-1.282-2.396c-.756-1.413-2.88-2.875-5.181-3.564l-3.9-1.168V89.728l4.649.637c2.557.351 5.145 1.032 5.75 1.514.606.482 2.169 1.204 3.475 1.605 3.985 1.224 14.265 8.669 21.106 15.284 4.328 4.185 6.987 6.057 8.001 5.632.835-.351 4.738-.865 8.672-1.144 6.432-.456 7.719-.22 12.778 2.342 6.369 3.225 12.321 8.717 16.337 15.074 2.601 4.118 5.391 5.497 6.732 3.328.34-.55 2.885-1 5.655-1 5.2 0 9.562 2.128 12.979 6.333 1.62 1.994 1.671 1.985 6.5-1.135 2.676-1.73 5.373-3.573 5.993-4.097 3.49-2.944 22.373-5.653 22.373-3.209 0 .49 1.037 1.152 2.305 1.47 1.268.318 4.433 2.676 7.034 5.241 2.601 2.564 4.923 4.468 5.159 4.232.237-.237-1.241-2.502-3.284-5.034-9.039-11.204-24.481-12.23-38.859-2.582-2.28 1.529-4.465 2.781-4.856 2.781s-2.559-1.463-4.817-3.25c-3.853-3.05-4.577-3.245-11.738-3.165-7.442.083-7.684.008-9.746-3C587.36 119.066 576.945 111 571.785 111c-1.054 0-2.707-.423-3.674-.941-1.121-.6-4.143-.531-8.345.188l-6.588 1.129-7.929-7.438c-4.361-4.091-11.019-9.144-14.795-11.229-6.114-3.376-8.602-4.301-17.204-6.395-2.097-.51-2.25-1.084-2.25-8.431V70h182.954l1.75-2.75c.962-1.513 2.111-3.01 2.552-3.327.89-.64.257-12.283-.757-13.924-.352-.571-.193-2.492.354-4.269.547-1.776 1.292-6.717 1.656-10.98l.662-7.75H513.23l-1.669-2.548c-2.608-3.98-7.479-6.444-12.746-6.448-6.108-.005-8.633 1.031-12.846 5.271l-3.469 3.492-149.25.642-149.25.643V14.026C184 4.978 183.631 0 182.96 0c-.573 0-2.318.944-3.88 2.099-3.15 2.329-13.273 4.812-19.84 4.866-3.289.027-5.396-.763-9.24-3.465-2.739-1.925-5.322-3.472-5.74-3.438-.418.035-1.73 1.272-2.915 2.75Zm8.25 4.688c3.28 2.226 9.74 3.4 13.905 2.527.55-.115 3.475-.459 6.5-.765 3.025-.305 6.388-1.164 7.473-1.909 1.084-.744 2.322-1.353 2.75-1.353.427 0 .777 129.825.777 288.5V583h-39.781l-.596-19.25c-2.067-66.806-4.18-293.558-4.524-485.571l-.125-69.322 2.056.652c1.497.476 2.606-.048 4.085-1.928 2.504-3.183 2.903-3.187 7.48-.081Zm353.394 15.222c2.696 2.309 2.606 2.594-1.793 5.642-4.732 3.28-6.896 3.276-10.642-.016-2.824-2.482-2.868-2.646-1.059-3.968 1.038-.759 2.701-1.38 3.696-1.38.995 0 1.809-.45 1.809-1 0-1.653 5.83-1.126 7.989.722Zm7.61 7.818c.441 1.757.062 3.178-1.23 4.607-1.812 2.003-9.29 6.319-9.83 5.673-.148-.176-.839-1.415-1.537-2.753-1.122-2.152-1.009-2.643.976-4.25 1.234-.999 2.799-1.817 3.478-1.817.679 0 2.049-.9 3.044-2 2.455-2.713 4.333-2.514 5.099.54Zm184.814 4.877c-.401 2.796-.77 10.258-.821 16.583-.051 6.325-.456 12.063-.901 12.75-.637.985-19.995 1.25-91.25 1.25-55.846 0-90.441-.36-90.441-.941 0-.518.444-1.215.987-1.551.542-.335 1.931-3.721 3.086-7.524 2.096-6.9 2.257-15.317.424-22.228l-.728-2.744 76.866-.281c42.276-.154 82.859-.307 90.186-.339l13.321-.058-.729 5.083Zm-204.085-1.439c3.815 4.534 7.072 17.039 4.803 18.441-.477.295-1.147 2.279-1.487 4.408-.341 2.13-1.594 5.111-2.785 6.626l-2.166 2.753-42.597-.568c-23.428-.312-92.208-.583-152.846-.603L184 65V32.021l43.25-.26c23.788-.144 92.369-.378 152.403-.521l109.152-.26 2.523 2.998ZM132 48.517v16.517l-35.25-.047c-35.266-.047-49.094-.622-48.238-2.006.251-.406 2.038-1.489 3.972-2.406C54.418 59.657 56 58.535 56 58.08c0-.454-2.26-1.043-5.022-1.308-2.762-.265-5.321-.782-5.686-1.147-.366-.365 1.527-2.648 4.205-5.072 4.182-3.785 4.685-4.629 3.563-5.98-.717-.865-1.903-1.573-2.633-1.573-.731 0-3.601-.487-6.378-1.083-5.328-1.143-5.901-2.136-4.419-7.667l.603-2.25H132v16.517Zm19.5-14.143c-3.847 1.78-5.614 4.803-5.682 9.723-.085 6.169 1.818 9.512 6.731 11.821 4.291 2.017 4.43 2.02 8.686.196 5.004-2.145 6.765-5.177 6.765-11.645 0-8.369-8.712-13.699-16.5-10.095ZM155 40c0 2.667-.333 3-3 3-3.617 0-3.977-2.075-.75-4.326C154.463 36.433 155 36.622 155 40Zm8.04-.812c3.871 2.861 3.736 3.812-.54 3.812-2.355 0-3.5-.464-3.5-1.418 0-.78-.273-2.13-.607-3-.856-2.23 1.168-1.966 4.647.606ZM313 38.705c-3.968.436-26.082 5.228-27.138 5.88-1.179.729-15.012 3.484-22.362 4.453-8.83 1.165-61.905 3.077-66.541 2.397-3.588-.526-7.005.855-5.593 2.261 1.339 1.332 71.97.795 72.419-.552.21-.629 2.032-1.153 4.048-1.165 3.548-.02 7.094-.726 25.167-5.013 4.675-1.108 10.975-2.496 14-3.083 6.199-1.202 38.884-.69 41.042.643.752.465 2.513.98 3.913 1.146 1.4.165 6.145 1.018 10.545 1.895s12.725 2.28 18.5 3.119c5.775.838 11.281 1.926 12.236 2.419 2.237 1.153 25.764 1.175 25.764.024 0-.479 2.66-1.172 5.91-1.539 3.566-.404 6.442-1.314 7.25-2.295 1.202-1.459 1.031-1.549-1.66-.867-5.534 1.401-17.922 2.244-27 1.838-10.206-.457-15.754-1.25-30-4.287-5.5-1.172-12.7-2.693-16-3.379-3.3-.686-6.675-1.53-7.5-1.876-4.15-1.739-27.806-3.03-37-2.019ZM513.978 43c.01 3.034-4.719 6.472-10.228 7.435l-3.75.656v-3.546c0-2.703.416-3.549 1.75-3.563.962-.01 3.743-1.369 6.179-3.019 4.774-3.235 6.032-2.812 6.049 2.037ZM155 50c0 3.713-3.079 4.153-5.443.777C147.302 47.559 147.59 47 151.5 47c3.222 0 3.5.238 3.5 3Zm11-2.18c0 1.088-4.745 5.18-6.008 5.18-.545 0-.992-1.35-.992-3 0-2.762.278-3 3.5-3 1.925 0 3.5.369 3.5.82Zm346.988 5.93c-.016 3.385-5.392 7.226-11.207 8.006-3.859.518-3.883.499-3.197-2.367.989-4.128.944-4.091 5.904-4.835 2.481-.372 4.512-1.066 4.512-1.542s.788-1.071 1.75-1.323c.962-.251 1.862-.509 2-.573.138-.064.244 1.121.238 2.634Zm-5.095 11.881c-1.966 2.37-7.197 4.369-11.434 4.369-2.894 0-3.54-.345-3.273-1.75.259-1.361 1.533-1.818 5.737-2.058 2.972-.169 6.316-.946 7.43-1.727 2.514-1.761 3.406-1.085 1.54 1.166ZM158.294 97.25c.33 19.499.998 33.832 1.69 36.25.629 2.2 1.734 6.475 2.454 9.5.721 3.025 1.849 6.849 2.506 8.498 1.573 3.946 2.83 50.098 1.339 49.177-.57-.353-1.557-2.706-2.192-5.229-1.263-5.016-4.627-10.869-7.961-13.851-2.74-2.451-2.828-.384-.144 3.386 5.372 7.544 6.428 11.79 6.472 26.019.044 14.183-1.027 19.164-4.523 21.035-2.803 1.5-4.639.168-5.303-3.846-1.014-6.135-.73-9.214.911-9.844 3.243-1.244 5.755-8.423 5.674-16.216-.093-9.029-1.573-13.129-4.74-13.129-3.167 0-6.324 5.707-7.389 13.355-1.61 11.561 1.483 31.431 5.274 33.88 4.39 2.835 11.114-1.172 12.138-7.234.371-2.195 1.146-4.282 1.722-4.638 1.368-.845.106 8.01-1.729 12.137-.734 1.65-1.648 4.125-2.031 5.5-.384 1.375-3.457 8.125-6.83 15l-6.132 12.5-.305-4.75c-.521-8.128-2.195-5.205-2.195 3.833 0 6.108.337 8.471 1.17 8.194 1.008-.336 3.623-4.974 12.843-22.777 3.46-6.681 5.922-12.537 8.198-19.5 2.215-6.773 2.281-8.022 2.034-38.5-.267-33.03-1.289-43.696-5.412-56.453-1.075-3.326-2.213-10.097-2.528-15.047-.316-4.95-.921-9.45-1.344-10-.423-.55-1.099-11.912-1.501-25.25-.448-14.847-1.115-24.25-1.721-24.25-.645 0-.8 11.263-.445 32.25ZM305.94 69.607c.271.271-3.84 4.633-9.137 9.693-25.68 24.536-31.191 29.825-42.803 41.087-10.255 9.945-46.802 45.098-61.978 59.613-2.013 1.925-4.641 4.357-5.841 5.405L184 187.31V67.872l60.724.621c33.398.342 60.946.843 61.216 1.114Zm16.932.983c.37.319-22.231 22.454-37.285 36.518-4.352 4.066-11.829 11.217-16.616 15.892-4.787 4.675-16.295 15.7-25.573 24.5-16.999 16.124-21.995 20.903-45.192 43.229-6.988 6.727-13.044 12.239-13.456 12.25-.412.012-.75-2.371-.75-5.295 0-4.892.299-5.578 3.75-8.604 2.063-1.808 10.09-9.428 17.838-16.934 14.094-13.652 30.068-29.044 62.585-60.303 9.53-9.162 23.402-22.531 30.827-29.71l13.5-13.052 5 .595c2.75.327 5.167.739 5.372.914ZM507 74.401c0 1.832-6.43 5.599-9.557 5.599-1.9 0-2.443-.524-2.443-2.359 0-2.349.84-2.686 11.25-4.51.413-.072.75.5.75 1.27Zm-.281 9.766c-.212 2.613-.866 3.387-3.738 4.424-5.449 1.967-7.981 1.757-7.981-.662 0-2.734 2.295-4.925 5.179-4.944 1.276-.009 2.996-.452 3.821-.985 2.459-1.589 2.989-1.166 2.719 2.167ZM507 95.051c0 2.536-.585 3.296-3.468 4.5-1.907.797-4.607 1.449-6 1.449-2.207 0-2.532-.431-2.532-3.359 0-3.536.009-3.541 11.25-5.51.413-.072.75 1.242.75 2.92Zm-16 26.341v28.391l-2.27.57c-1.248.313-3.255 1.487-4.458 2.608-1.204 1.122-3.486 2.039-5.072 2.039-2.523 0-3.042-.528-4.149-4.225-1.291-4.307-4.159-10.867-11.136-25.466-2.153-4.505-3.915-8.845-3.915-9.646 0-1.72 14.804-15.891 18.761-17.959a496.222 496.222 0 0 0 5.739-3.061c6.763-3.676 6.5-4.759 6.5 26.749Zm-44.985-21.022c4.13 2.182 5 3.391 10.985 15.265 6.358 12.613 7.8 15.774 9.972 21.865.588 1.65 1.478 3.9 1.977 5 .5 1.1 1.647 4.475 2.551 7.5.904 3.025 2.02 6.4 2.482 7.5 1.852 4.415 4.097 12.754 3.574 13.277-.678.679.093 2.021-7.056-12.277-6.066-12.131-8.178-15.733-12.309-20.984-1.947-2.476-3.122-2.956-8.122-3.317-4.91-.356-6.174-.094-7.901 1.633-4.283 4.283-3.741 14.023 1.077 19.365 1.24 1.375 5.18 5.82 8.755 9.877 3.575 4.057 7.583 8.405 8.907 9.661 1.323 1.257 2.119 2.572 1.768 2.923-2.714 2.714-47.48-40.469-51.212-49.4-1.852-4.434-1.84-6.795.065-12.386 2.213-6.496 6.645-11.303 13.646-14.801 7.808-3.902 14.368-4.122 20.841-.701ZM507 105.385c0 2.831-3.652 5.522-8.581 6.322-3.338.542-3.419.473-3.419-2.894 0-3.362.13-3.474 5.25-4.476 2.888-.565 5.587-1.097 6-1.182.413-.085.75.918.75 2.23Zm-108.066 1.769c7.753 3.657 7.974 4.029 7.344 12.351-.51 6.747-.33 7.731 2.211 12.066 2.438 4.16 6.298 8.856 13.021 15.84 5.882 6.111 6.004 5.984-5.01 5.222-5.5-.381-15.625-1.367-22.5-2.191-16.251-1.948-14.883-1.945-27-.049-5.775.904-16.35 2.315-23.5 3.134-7.15.82-15.025 1.918-17.5 2.44-2.475.522-9.9.983-16.5 1.025-11.051.069-12.435-.136-17.5-2.598-3.563-1.731-7.455-2.753-11.05-2.902-7.733-.321-9.95-1.183-9.95-3.87 0-2.78 4.823-7.836 9.668-10.135 6.825-3.238 31.831-2.807 35.96.62.906.752 2.589-.274 6.268-3.82 3.282-3.163 6.867-5.471 10.317-6.642 5.157-1.75 5.401-1.745 9.927.198 2.552 1.095 4.941 2.479 5.309 3.074 1.153 1.866 2.198 1.216 5.088-3.167 5.839-8.853 18.328-19.385 25.963-21.893 4.699-1.544 14.848-.867 19.434 1.297ZM507 116.049c0 2.618-.601 3.322-4.25 4.978-6.386 2.899-7.75 2.63-7.75-1.527 0-2.986.338-3.5 2.3-3.5 1.265 0 2.728-.406 3.25-.903.822-.781 3.13-1.584 5.7-1.981.413-.064.75 1.256.75 2.933Zm0 10.818c0 2.506-.645 3.135-5.133 5-2.824 1.173-5.551 2.133-6.061 2.133-.51 0-.787-1.687-.616-3.748.298-3.61.495-3.792 5.31-4.904 2.75-.636 5.337-1.199 5.75-1.252.413-.053.75 1.194.75 2.771Zm0 11.184c0 3.166-2.179 4.658-9.25 6.335-2.642.627-2.75.499-2.75-3.259 0-3.86.062-3.924 4.75-4.901 7.221-1.505 7.25-1.497 7.25 1.825Zm-50.007.443c2.211 2.001 13.297 24.268 15.073 30.276 1.147 3.88 1.088 4.402-.652 5.718-1.053.797-2.402 1.463-2.998 1.48-1.254.037-7.661-6.629-15.35-15.968-2.943-3.575-5.72-6.741-6.17-7.035-1.301-.851-3.896-7.674-3.896-10.244 0-1.289.965-3.379 2.144-4.645 1.756-1.885 2.854-2.205 6.077-1.773 2.164.29 4.761 1.276 5.772 2.191ZM507 147.465c0 2.149-3.566 3.695-7.715 3.343-5.489-.466-4.988-2.307.944-3.467 2.899-.567 5.608-1.101 6.021-1.186.413-.085.75.504.75 1.31Zm-10.629 6.015c1.474 1.117 1.731 2.162 1.211 4.934-.363 1.934-1.101 3.789-1.64 4.122-1.597.987-7.873-1.539-8.985-3.616-2.603-4.864 4.644-9.052 9.414-5.44Zm19.047-.873c2.413.926 1.999 5.987-.641 7.836-3.079 2.157-3.44 2.007-4.061-1.693-.3-1.787-.857-4.037-1.238-5-.549-1.387-.169-1.75 1.833-1.75 1.389 0 3.237.273 4.107.607Zm-9.025 3.975c1.534 3.997-.923 8.418-4.679 8.418-1.727 0-1.898-.473-1.356-3.75.341-2.062.625-4.312.631-5 .016-1.82 4.688-1.533 5.404.332Zm-23.432 3.607c2.277 2.444 2.509 3.403 1.039 4.311-.55.34-1 1.941-1 3.559 0 3.105-1.393 3.964-2.357 1.453-.314-.818-.87-3.743-1.236-6.5-.743-5.6.24-6.381 3.554-2.823Zm-71.984 6.999c2.08 4.305 2.694 10.279 1.155 11.231-.478.295-1.153 2.684-1.502 5.309-1.427 10.759-11.475 25.309-20.362 29.486l-4.427 2.081-2.671-2.673c-2.465-2.467-2.668-3.304-2.648-10.897.026-9.375 2.21-16.275 8.033-25.379 6.213-9.711 10.734-13.329 16.672-13.339 3.389-.006 3.91.372 5.75 4.181Zm79.659-1.694c1.575.821 3.877 1.496 5.114 1.5 1.331.003 2.25.619 2.25 1.506 0 1.152-1.278 1.5-5.5 1.5-5.444 0-5.5-.03-5.5-3 0-3.486-.089-3.449 3.636-1.506Zm27.891-.45c.743 1.203-2.09 5.956-3.55 5.956-1.092 0-1.351-5.292-.31-6.333 1.007-1.008 3.133-.8 3.86.377ZM510 169c0 2.086-1.63 2.474-5.75 1.37-4.197-1.125-2.184-2.753 4-3.234 1.129-.088 1.75.574 1.75 1.864Zm-84.36 6.535c11.265 9.061 21.36 18.644 21.36 20.277 0 1.559-2.504 1.522-4.179-.062-3.59-3.397-17.702-10.155-20.729-9.927-2.968.223-9.092 4.755-9.092 6.728 0 .797-.419 1.449-.93 1.449-.555 0-.517-1.313.094-3.25 2.034-6.455 3.021-13.342 2.58-18-.263-2.768-.038-4.75.539-4.75.543 0 5.204 3.391 10.357 7.535Zm88.077 1.552c6.249 2.492 17.078 9.26 18.923 11.827.627.872 2.522 3.161 4.21 5.086 1.689 1.925 4.253 5.975 5.699 9 1.446 3.025 3.097 6.375 3.669 7.444.573 1.069 1.267 6.725 1.544 12.568.392 8.255.161 11.391-1.035 14.057-.847 1.887-1.811 4.652-2.143 6.144-1.747 7.853-14.607 23.897-21.414 26.717-1.744.722-3.17 1.708-3.17 2.191 0 .484-.455.879-1.011.879-.556 0-2.918.891-5.25 1.979-11.938 5.574-32.77 4.142-43.739-3.006-.825-.538-2.58-1.441-3.9-2.008-3.554-1.525-14.333-12.899-17.365-18.324-5.993-10.721-8.154-26.414-5.178-37.605 5.383-20.253 19.36-33.75 40.443-39.057 6.498-1.636 23.321-.442 29.717 2.108Zm-80.952 14.663c3.154 2.063 6.32 4.303 7.034 4.978.715.675 2.029 1.636 2.919 2.134 1.49.834 1.486 1.189-.049 4.423-.918 1.935-1.669 4.063-1.669 4.73 0 1.657-6.739.582-15.471-2.469-5.206-1.819-7.299-3.134-8.825-5.544-1.899-3-1.917-3.332-.353-6.612 3.035-6.364 8.374-6.898 16.414-1.64Zm-197.181-.143c3.821 1.813 14.903 13.203 15.899 16.339.829 2.612 3.679 2.637 6.017.054 3.353-3.705 7.598-2.47 14.178 4.122 2.072 2.076 2.469 2.12 8.177.909 3.299-.7 9.014-1.081 12.7-.847 6.232.397 6.941.689 10.137 4.177 1.891 2.063 3.262 4.276 3.049 4.917-.447 1.34-3.954 2.478-8.083 2.622-1.564.055-3.987 1-5.385 2.1-2.137 1.681-3.998 1.99-11.658 1.938-8.413-.057-17.969-.891-26.615-2.324-14.324-2.373-17.904-2.525-25.617-1.09-8.72 1.623-21.05 3.004-35.133 3.936l-9.25.612.028-9.786.028-9.786 5.941-5.886c5.489-5.438 6.208-5.842 9.452-5.316 1.931.313 5.114 1.793 7.074 3.287l3.562 2.717 1.707-2.322c3.262-4.436 10.419-10.869 12.557-11.287 4.614-.902 7.986-.628 11.235.914ZM133 210.855v19.855l-30.75.713c-16.912.392-42.675.485-57.25.206-14.575-.278-29.312-.534-32.75-.567-3.437-.034-6.25-.409-6.25-.833 0-1.372 8.331-5.138 14.831-6.704 7.366-1.774 14.765-1.988 15.713-.454.401.65 2.151.818 4.456.429 2.305-.389 4.055-.221 4.456.429 1.212 1.961 3.261 1.107 5.627-2.345 5.357-7.819 13.552-8.507 23.099-1.939 3.586 2.467 7.818 2.595 7.818.237 0-1.915 6.711-3.942 9.517-2.875 3.471 1.319 3.206 1.437 5.087-2.257.911-1.788 2.27-3.925 3.021-4.75.75-.825 2.486-2.907 3.856-4.628 3.091-3.881 9.572-5.8 14.613-4.327 3.676 1.074 2.992 1.558 10.208-7.218 4.398-5.347 4.698-4.26 4.698 17.028Zm22.446-11.44c.739 5.913-.076 12.238-1.706 13.246-.681.42-.858-.922-.519-3.929.405-3.597.224-4.456-.853-4.043-.856.328-1.366-.171-1.362-1.332.008-2.963 2.008-9.357 2.926-9.357.461 0 1.142 2.437 1.514 5.415ZM498 201.883c0 6.548-.612 7.076-8.25 7.103-3.833.014-5.007 1.318-2.168 2.407.87.334 3.57.607 6 .607 4.367 0 4.418.04 4.418 3.435 0 1.889.467 4.662 1.037 6.163 1.524 4.008 3.194 1.648 3.194-4.513 0-4.791.148-5.085 2.563-5.085 3.144 0 9.206-2.108 9.206-3.201 0-.439-2.673-.799-5.941-.799s-6.212-.439-6.544-.976c-.332-.537-.871-3.237-1.199-6-.816-6.89-2.316-6.333-2.316.859Zm-81.331 4.481c2.469 1.834 8.219 3.775 17.581 5.935 3.563.822 4.75 1.559 4.75 2.948 0 1.678-.589 1.788-6.25 1.174-6.851-.744-11.29-1.525-23.019-4.052-8.952-1.929-9.021-2.176-2.98-10.585l3.512-4.889 1.949 3.802c1.071 2.092 3.077 4.642 4.457 5.667ZM482 221.935c0 1.614-.439 4.09-.976 5.501-.885 2.328-1.438 2.546-5.951 2.35-4.657-.203-7.098.522-5.875 1.745.292.292 2.771.796 5.508 1.121l4.977.589-.465 4.837c-.255 2.661-.179 5.582.171 6.492 1.059 2.761 3.427-.16 4.176-5.152l.662-4.418h5.328c4.777 0 7.562-1.216 6.111-2.668-.295-.294-2.927-.826-5.851-1.183l-5.315-.649-.3-5.75c-.303-5.813-2.2-8.24-2.2-2.815ZM529 223c0 2.328-.477 4-1.14 4-.628 0-3.082.97-5.455 2.155-4.229 2.112-4.32 2.263-4.61 7.682-.278 5.201-.472 5.575-3.294 6.325-3.513.935-5.501 3.295-5.501 6.529 0 1.718-.576 2.317-2.25 2.341-3.562.05-5.943 2.424-5.575 5.556.388 3.293 2.825 4.556 2.825 1.464 0-2.154.411-2.427 5.25-3.488 2.402-.526 2.75-1.075 2.75-4.343 0-4.107 1.409-5.493 6.783-6.673 3.081-.677 3.217-.911 3.217-5.532 0-4.806.022-4.838 5.5-7.929 5.922-3.342 6.117-3.739 4.299-8.766-1.618-4.474-2.799-4.187-2.799.679Zm-24 4.885c0 2.005-.795 3.406-2.607 4.593-3.599 2.358-1.812 3.678 3.914 2.893 4.836-.662 5.902-2.122 3.193-4.371-.825-.685-1.5-2.315-1.5-3.622 0-1.447-.587-2.378-1.5-2.378-.987 0-1.5.987-1.5 2.885ZM447 256c0 .55-.45 1-1 1s-1-.45-1-1 .45-1 1-1 1 .45 1 1Zm4.834 7.94c.227 1.551-.093 2.142-1 1.843-.734-.242-1.484-1.467-1.668-2.723-.227-1.551.093-2.142 1-1.843.734.242 1.484 1.467 1.668 2.723Zm-118.581 1.088c-2.336 1.038-4.963 2.469-5.838 3.18-3.434 2.788-7.217 6.698-7.604 7.858-.311.934-.909.952-2.543.077-3.075-1.645-8.936-1.406-11.819.482-2.358 1.545-2.666 1.496-6.268-1-2.084-1.444-4.552-2.625-5.485-2.625-.933 0-1.696-.45-1.696-1 0-3.53-10.474 1.46-15.825 7.538-3.636 4.131-4.272 4.481-6.237 3.429-2.403-1.286-5.549-.205-9.554 3.286-1.855 1.616-2.671 1.704-6.616.71-9.346-2.353-21.526 4.879-16.568 9.837.66.66 2.81 1.2 4.777 1.2 1.968 0 4.605.72 5.861 1.599 1.52 1.065 3.517 1.43 5.973 1.093 23.646-3.244 29.948-3.836 37.689-3.538 18.736.72 70.092.105 84.252-1.009 8.112-.638 23.298-1.609 33.748-2.157 19.022-.999 37.506-2.947 37.493-3.953-.004-.294-1.661-1.66-3.683-3.035-3.484-2.369-4.399-2.5-17.529-2.5-9.096 0-14.098-.383-14.567-1.115-1.89-2.953-11.949-3.444-16.013-.781-1.934 1.267-2.957 1.372-4.872.5-1.333-.607-3.947-1.104-5.809-1.104-2.477 0-3.551-.523-4.004-1.949-.34-1.072-1.495-2.227-2.567-2.567-1.072-.34-1.949-1.021-1.949-1.513 0-1.416-7.872-3.158-11.085-2.452-2.126.467-3.076.224-3.505-.893-.601-1.565-5.137-4.669-11.41-7.807-4.518-2.26-11.382-2.174-16.747.209Zm-168.776-.263c-4.521 3.247-8.477 16.637-8.477 28.694 0 5.248.391 9.541.87 9.541 1.436 0 3.321 11.898 2.591 16.353-.374 2.281-1.781 6.578-3.127 9.549-3.743 8.267-3.25 23.098.769 23.098.646 0 .726-.842.214-2.25-1.486-4.09-.673-13.026 1.565-17.211 1.165-2.179 2.118-4.504 2.118-5.167 0-.663.563-1.393 1.25-1.622 2.12-.707 1.655-18.408-.616-23.45-1.544-3.427-1.796-5.926-1.455-14.471.226-5.681.942-11.229 1.591-12.329.649-1.1 1.955-3.8 2.902-6 .947-2.2 1.896-4.337 2.109-4.75.492-.956-.965-.946-2.304.015Zm186.57 3.998c6.412 5.387 11.955 9.043 12.463 8.221 1.992-3.224 12.421 1.047 15.071 6.173 1.339 2.589 1.884 2.846 4.842 2.291 2.111-.396 4.387-.083 6.206.852 2.669 1.373 3.115 1.309 6.343-.912 4.211-2.897 10.476-3.197 13.305-.638 1.639 1.482 3.973 1.75 15.244 1.75 11.82 0 15.78.533 14.378 1.934-.425.425-18.341 1.673-52.399 3.65-9.35.543-38.188 1.14-64.085 1.328-29.054.21-47.819.728-49 1.35-3.103 1.635-15.782 2.5-25.441 1.736-9.504-.752-10.707-1.62-6.953-5.017 1.627-1.472 3.593-1.812 10.084-1.742 7.009.076 8.538-.236 11.703-2.384 2.348-1.593 4.361-2.249 5.667-1.847 1.114.342 2.753.855 3.643 1.139 1.086.347 2.351-.67 3.852-3.098 5.231-8.464 14.79-11.086 21.203-5.815 1.83 1.504 3.652 3.191 4.049 3.75.476.671 1.325.591 2.5-.236 3.484-2.454 6.804-3.372 10.018-2.769 1.793.336 3.26 1.041 3.26 1.566 0 2.173 2.935.698 6.109-3.07 3.002-3.563 7.292-6.877 11.891-9.186 2.283-1.145 14.4-.41 16.047.974Zm108.01 1.344c1.768 3.303-.49 4.878-3.051 2.129-1.104-1.184-2.006-2.621-2.006-3.194 0-1.901 3.911-1.078 5.057 1.065ZM530 272.911c0 1.109-5.787 6.089-7.077 6.089-1.752 0-.916-3.185 1.327-5.056 2.366-1.974 5.75-2.582 5.75-1.033Zm-63.582 1.696c1.574.604 2.332 6.415.832 6.371-2.018-.06-5.514-3.848-4.937-5.35.67-1.748 1.606-1.98 4.105-1.021ZM518 279.943c0 2.189-3.529 5.057-6.223 5.057-1.223 0-1.777-.77-1.777-2.471 0-1.93.713-2.678 3.25-3.41 4.644-1.341 4.75-1.323 4.75.824Zm-38.327.396c.233.234.125 1.617-.24 3.074-.535 2.129-1.074 2.518-2.752 1.986-2.798-.888-4.681-2.883-4.681-4.958 0-1.398.648-1.598 3.624-1.115 1.993.324 3.815.78 4.049 1.013Zm11.077 2.291c1.535.412 2.25 1.36 2.25 2.987 0 2.16-.424 2.383-4.531 2.383-4.678 0-6.289-1.42-5.107-4.5.598-1.56 3.525-1.905 7.388-.87Zm15.25 1.753c0 2.531-2.106 3.578-7.25 3.603-2.25.012-2.75-.428-2.75-2.42 0-1.887.617-2.527 2.75-2.85 6.517-.987 7.25-.818 7.25 1.667Zm-285.608 106.75c3.138 1.43 22.608 39.844 22.608 44.606 0 2.241-.936 3.876-3.518 6.143-7.904 6.94-13.604 4.344-19.498-8.882-2.259-5.069-3.689-7.909-11.436-22.725-3.864-7.391-4.313-12.046-1.505-15.608 3.513-4.457 8.454-5.765 13.349-3.534Zm-63.4 48.464c-.926 10.67-.98 15.984-.201 19.75.586 2.834 1.36 6.953 1.72 9.153.36 2.2 1.255 5.35 1.99 7 4.306 9.675 5.474 13.169 7.041 21.07 1.288 6.487 1.574 11.113 1.107 17.844-.827 11.892-1.38 13.806-3.773 13.047-2.463-.782-2.493 1.671-.047 3.884 2.552 2.31 2.926 2.147 4.81-2.095 1.187-2.674 1.793-7.625 2.112-17.25.536-16.197-.767-23.632-6.219-35.5-.758-1.65-1.7-4.35-2.093-6-.393-1.65-1.173-3.581-1.734-4.291-.574-.728-1.228-9.994-1.499-21.25-.264-10.978-.81-19.959-1.214-19.959-.404 0-1.304 6.569-2 14.597Zm84.178 8.653c.894 1.788 4.093 8.425 7.11 14.75 3.018 6.325 10.039 20.763 15.603 32.085S274 515.969 274 516.335c0 .366-1.012.655-2.25.642-1.886-.019-3.26-2.102-8.5-12.895-3.437-7.08-6.25-13.412-6.25-14.073 0-.66-.842-2.395-1.87-3.855-2.329-3.305-19.13-37.502-19.13-38.937 0-.915 1.377-1.89 3.023-2.138.287-.043 1.253 1.383 2.147 3.171Zm-84.542 62.5c-2.044 17.333-1.932 21.038.904 30.036 1.51 4.793 3.108 9.614 3.55 10.714.443 1.1 1.108 4.025 1.48 6.5.747 4.986 2.973 10 4.439 10 .997 0 .594-3.662-1.181-10.715-.583-2.319-.801-4.892-.484-5.718.317-.827.197-1.737-.266-2.024-.464-.286-1.131-2.056-1.483-3.931-.352-1.876-1.365-4.865-2.252-6.642-1.291-2.589-1.58-6.188-1.45-18.101.134-12.301-.085-14.869-1.268-14.869-.96 0-1.613 1.559-1.989 4.75Zm143.855 6.222c.349.566 1.625 1.028 2.834 1.028 2.503 0 16.92 4.939 20.668 7.08 8.993 5.138 20.424 15.926 23.755 22.42.846 1.65 1.849 3.225 2.228 3.5 2.905 2.109 9.032 20.518 9.032 27.139 0 4.86-.001 4.861-3.395 4.861-3.168 0-3.428-.25-3.889-3.75-.743-5.631-3.176-14.428-4.773-17.25-3.958-6.996-8.105-12.813-11.104-15.576-8.756-8.064-18.446-13.798-25.339-14.992-2.2-.381-4.591-1.163-5.314-1.738-1.782-1.418-25.549-1.454-27.322-.042-.75.598-3.134 1.407-5.297 1.797-7.488 1.352-17.662 7.415-25.067 14.939-6.233 6.333-8.072 9.138-13.632 20.797-.683 1.432-2.837 12.778-2.86 15.065-.005.413-1.553.75-3.441.75-4.621 0-4.986-1.683-2.669-12.285 2.936-13.436 10.141-26.217 20.051-35.566 5.677-5.356 16.166-11.829 22.086-13.631 3.006-.914 6.246-2.08 7.201-2.59.955-.51 3.066-.928 4.691-.928s3.186-.374 3.468-.83c.762-1.233 17.336-1.415 18.088-.198Zm6.798 15.692c6.376 2.057 14.858 6.5 20.219 10.591 9.945 7.588 18.802 22.457 20.074 33.699l.658 5.814-4.366.488c-6.724.751-56.454.802-84.616.086-29.041-.739-26.747.4-23.196-11.522 3.369-11.315 10.47-21.671 19.76-28.82a387.291 387.291 0 0 0 4.493-3.5c2.155-1.732 10.067-5.388 13.193-6.096 1.65-.374 3.459-1.037 4.02-1.473 2.953-2.298 21.807-1.834 29.761.733Zm39.219 55.278c146.566.828 274.797 2.106 275.486 2.746.268.248.656 11.445.864 24.882l.377 24.43H330.113C40.637 640 37 639.976 37 638.059c0-1.068.374-2.172.831-2.454.457-.283 1.407-3.122 2.111-6.309.704-3.188 1.668-6.277 2.142-6.865 1.644-2.042 4.022-14.672 3.353-17.809-.367-1.717-1.685-5.597-2.931-8.622-1.246-3.025-2.578-6.525-2.962-7.778l-.696-2.277 91.326.645c50.229.355 147.576.963 216.326 1.352ZM92 598.9c-7.983 1.346-12.518 3.005-16.552 6.057-4.618 3.494-8.86 3.85-12.448 1.043-4.555-3.563-5.501-2.098-1.46 2.26 2.093 2.257 3.392 2.74 7.366 2.74 3.18 0 5.637-.633 7.209-1.859 6.966-5.428 8.084-5.641 29.635-5.641 11.138 0 20.25-.238 20.25-.529 0-.29-3.18-1.347-7.068-2.349-8.013-2.064-20.257-2.847-26.932-1.722Zm353.253 2.137c-8.655 1.085-12.799 3.018-13.637 6.359-1.35 5.379 2.739 10.147 9.656 11.26 2.075.334 4.027 1.018 4.338 1.521.646 1.046-9.542-.029-11.11-1.172-.55-.401-2.334-1.049-3.965-1.44-3.209-.769-7.53-2.626-20.187-8.671-4.483-2.142-8.645-3.894-9.25-3.894-.604 0-1.098-.45-1.098-1s1.575-1 3.5-1 3.5-.45 3.5-1c0-.583-3.333-1-8-1-4.4 0-8 .367-8 .815 0 .448 3.938 2.811 8.75 5.25 4.813 2.439 9.345 4.998 10.071 5.685.727.688 1.768 1.25 2.312 1.25.545 0 3.55 1.169 6.679 2.598 10.832 4.947 11.834 5.322 16.023 5.992 2.315.37 4.451 1.064 4.746 1.541.793 1.284 52.295 1.075 63.919-.259 5.5-.631 12.925-1.787 16.5-2.568 29.244-6.392 27.409-6.165 55.75-6.908 25.232-.661 32.114-1.426 24-2.666-3.536-.54-49.826 0-58.75.686-5.405.415-7.52.901-11.5 2.639-7.645 3.339-28.71 5.605-54.309 5.841-11.059.102-14.147-1.008-6.299-2.263 4.702-.752 13.571-5.054 17.029-8.26 3.91-3.626 1.798-3.797-3.862-.314-2.838 1.746-5.47 2.863-5.851 2.483-.38-.381.092-1.131 1.05-1.667.958-.536 1.742-2.037 1.742-3.335 0-5.599-16.147-8.711-33.747-6.503Zm25.165 4.493c2.015.842 3.393 1.967 3.063 2.5-.848 1.373-16.196 1.24-17.054-.148-.479-.776.572-.997 3.441-.723 4.334.413 4.916.025 2.932-1.959-1.782-1.782 3.066-1.572 7.618.33Zm-327.42 3.473c-3.277 4.137-6.706 5.726-9.746 4.515-.963-.384-4.054-.871-6.868-1.082-2.814-.211-6.396-.87-7.959-1.464-1.563-.595-7.136-1.319-12.384-1.61-8.639-.479-9.963-.308-14.001 1.804-8.294 4.34-8.561 11.975-.512 14.659 4.532 1.511 19.078 1.655 22.838.226 3.102-1.18 5.067-4.627 4.792-8.413-.201-2.778-.096-2.844 3.568-2.241 10.327 1.7 14.492 1.824 16.955.506 2.216-1.186 8.319-8.767 8.319-10.333 0-1.625-2.183-.127-5.002 3.433Zm306.347-2.546c.308.802 2.372 2.602 4.587 4 3.418 2.158 5.201 2.543 11.762 2.543 7.366 0 7.651.083 5.985 1.75-1.483 1.483-3.689 1.75-14.464 1.75-10.745 0-13.321-.31-16.625-2-7.716-3.947-7.341-7.044 1.023-8.446 7.098-1.189 7.122-1.188 7.732.403ZM246 616.083l-9.5 5.08-19.751-.332c-18.183-.305-23.92.269-16.999 1.699 1.512.313 4.527 1.098 6.7 1.745 2.172.648 9.834 1.188 17.027 1.201l13.076.024 10.244-5.25c9.832-5.039 10.565-5.25 18.224-5.25 4.388 0 7.979-.42 7.979-.933 0-1.303-2.413-1.882-10.5-2.515-6.926-.543-7.101-.495-16.5 4.531ZM99.491 615.01c-1.586 1.753-1.648 2.328-.486 4.5 1.105 2.065 2.072 2.49 5.664 2.49 2.382 0 4.331-.45 4.331-1s-1.575-1-3.5-1c-5.056 0-4.422-2.339 1.029-3.797 3.873-1.035 4.887-.976 7 .408 3.382 2.216 3.102 3.718-1.063 5.704-4.27 2.036-12.509 2.16-17.966.269-6.563-2.273-5.628-6.856 1.756-8.609 4.983-1.183 5.184-1.119 3.235 1.035Z" fill="#000"/></svg>