<svg width="740" height="644" fill="none" xmlns="http://www.w3.org/2000/svg"><path fill-rule="evenodd" clip-rule="evenodd" d="M141.345 2.812c-2.011 2.508-2.375 2.605-5.434 1.455-1.804-.678-3.413-1.099-3.576-.935-.163.163-.345 5.78-.403 12.482L131.825 28l-44.662.171c-53.203.204-48.802.081-50.128 1.4-.592.589-1.357 4.076-1.701 7.75-.607 6.501-.561 6.679 1.7 6.679 2.007 0 8.599 1.825 9.909 2.743.748.524-5.982 6.257-7.344 6.257-1.43 0-3.8 4.466-2.865 5.4.329.33 2.324.6 4.433.6 2.108 0 3.833.45 3.833 1s-.499 1-1.108 1C41.605 61 33 65.538 33 66.744c0 .961 4.286 1.262 18.25 1.283 10.037.015 32.2.127 49.25.25l31 .223.2 46.5c.109 25.575.35 51.675.534 58l.335 11.5-3.703 4c-2.036 2.2-4.621 5.173-5.744 6.607-1.82 2.323-2.572 2.556-6.906 2.14-7.823-.752-15.318 3.994-20.401 12.918-1.857 3.259-2.436 3.608-5.233 3.155-3.174-.515-10.582 2.83-10.582 4.779 0 1.588-1.786.978-6.552-2.239-6.451-4.354-13.567-4.532-18.889-.473-2.033 1.551-4.195 3.916-4.806 5.256-1.196 2.625-1.973 2.637-11.54.178-8.874-2.281-26.747.95-32.582 5.889C2.444 229.408 0 232.204 0 233.153c0 .466 1.463.892 3.25.947 1.787.055 6.4.207 10.25.338 3.85.131 32.313.322 63.25.424l56.25.186.099 33.226c.054 18.274.291 40.876.527 50.226.236 9.35.843 62.675 1.349 118.5.507 55.825 1.221 111.565 1.588 123.866l.667 22.366-17.865-.518c-24.007-.696-84.523-.889-85.14-.272-.496.496 5.496 18.19 6.792 20.058 1.901 2.739 1.538 6.376-1.624 16.269-1.886 5.902-4.402 13.763-5.59 17.469-1.188 3.706-1.931 6.967-1.651 7.247.719.719 593.033.663 593.755-.056.942-.938 1.229-38.007.371-47.929l-.778-9-80-.647c-44-.356-102.765-.714-130.588-.797l-50.588-.15-2.168-10.794c-1.839-9.153-6.307-22.384-8.143-24.112-.293-.275-1.749-2.379-3.237-4.675-5.63-8.689-16.617-18.033-28.348-24.108-9.301-4.817-30.845-7.808-41.467-5.757-3.504.677-3.563.631-5.886-4.638-2.86-6.49-11.425-24.452-22.801-47.822-4.685-9.625-8.473-18.625-8.417-20 .056-1.375.376-4.807.711-7.626.665-5.606.625-5.715-10.171-28.03-2.968-6.136-5.397-11.465-5.397-11.843 0-1.334-4.055-5.817-6.328-6.996-4.735-2.457-7.248-2.506-11.748-.232-2.424 1.225-5.424 3.756-6.666 5.625-2.279 3.429-3.01 8.519-1.369 9.534.489.302 1.168 1.66 1.509 3.019 1.259 5.016 15.634 34.816 17.961 37.234.628.652 3.376 2.056 6.107 3.12 2.732 1.063 5.283 2.555 5.67 3.314.387.76 2.495 5.206 4.685 9.881 3.461 7.39 6.339 13.527 15.271 32.566 1.05 2.236 1.908 4.561 1.908 5.166 0 .606.337 1.251.75 1.435.909.404 9.25 17.002 9.25 18.408 0 .547-3.005 2.478-6.678 4.289-21.796 10.748-36.552 31.402-38.915 54.472l-.683 6.664h-35.7l-.013-174.869-.012-174.869 3.75-.62c2.063-.341 6.226-.637 9.251-.658 3.025-.02 12.475-1.185 21-2.588 18.783-3.092 17.768-3.077 37.293-.561 25.987 3.349 36.113 2.995 39.749-1.386.662-.797 2.693-1.449 4.515-1.449 11.246 0 11.977-7.85 1.355-14.555-3.266-2.063-5.114-2.445-11.809-2.445-4.365 0-8.086.38-8.27.845-.183.465-1.465 1.122-2.849 1.461-1.992.487-3.333-.157-6.447-3.096-3.468-3.272-4.529-3.71-8.985-3.71-2.778 0-5.952.306-7.052.681-1.587.54-2.752-.305-5.645-4.098-6.026-7.898-12.145-12.308-17.835-12.855-8.39-.806-11.541.336-17.577 6.373l-5.5 5.499-2.606-2.05c-1.434-1.127-3.446-2.05-4.472-2.05-3.173 0-2.136-1.646 5.797-9.202a2685.256 2685.256 0 0 0 15.897-15.298 1819.86 1819.86 0 0 1 16.088-15.408 3124.31 3124.31 0 0 0 18.853-18.006c6.05-5.829 19.732-18.92 30.404-29.092 10.673-10.172 24.398-23.361 30.5-29.309L330.5 68.869l77.682.406C498.93 69.749 491 68.681 491 80.429v7.382l-6.25 2.95c-7.675 3.622-17.341 10.831-22.731 16.955-2.224 2.526-4.202 4.411-4.396 4.189-.195-.223-1.446-2.396-2.781-4.829-1.335-2.434-4.135-5.807-6.223-7.497-3.377-2.733-4.654-3.111-11.555-3.425-6.614-.3-8.557.015-13.162 2.136-2.971 1.368-7.579 4.555-10.24 7.082l-4.838 4.596-3.431-2.617c-3.364-2.566-16.738-6.874-18.315-5.899-.44.272-2.49.704-4.554.96-8.588 1.065-21.76 10.855-29.524 21.942-2.653 3.789-3.505 3.884-9.404 1.044-5.949-2.864-12.815-.955-20.924 5.819l-4.828 4.034-6.172-1.241c-8.579-1.726-25.672-2.442-25.672-1.076 0 .586-1.037 1.066-2.304 1.066-3.203 0-10.894 5.082-14.147 9.347-4.914 6.442-1.095 10.128 12.016 11.599 4.4.493 8.575 1.597 10.194 2.695 2.436 1.652 4.635 1.839 19.741 1.677 9.35-.099 20.15-.659 24-1.244 3.85-.585 12.175-1.709 18.5-2.498 6.325-.789 13.927-1.967 16.893-2.619 5.401-1.186 8.973-1.023 21.107.961 3.575.585 13.798 1.468 22.718 1.962l16.219.899 5.664 5.361c7.308 6.915 6.844 6.504 14.236 12.618 3.486 2.883 6.749 5.242 7.25 5.242 1.933 0 .727 2.057-4.123 7.037l-5.036 5.17-4.788-4.354c-7.084-6.44-11.441-10.163-13.247-11.322-2.079-1.334-7.753-5.246-15.893-10.958-8.3-5.824-12.496-6.107-19.6-1.323-4.774 3.216-13.281 13.085-13.359 15.5-.023.688-.436 1.25-.918 1.25-1.483 0-4.395 12.082-4.842 20.087-.473 8.483 1.313 13.317 5.799 15.696 2.884 1.53 9.369.804 12.782-1.43 2.749-1.799 1.586-1.948 28.138 3.603 2.475.517 6.906 1.237 9.848 1.6l5.347.659-.654 8.642c-.552 7.283-.276 10.138 1.753 18.143 1.325 5.225 3.383 11.075 4.575 13 1.191 1.925 2.946 5.183 3.898 7.24.953 2.057 2.1 3.744 2.548 3.75.448.005 1.893 1.293 3.212 2.86 1.319 1.568 4.669 4.38 7.443 6.25 4.379 2.952 4.96 3.729 4.408 5.9-3.2 12.57-6.424 28.288-8.923 43.5-.813 4.95-1.923 10.922-2.468 13.271-1.276 5.5-4.352 34.217-4.363 40.729-.026 14.79 7.239 28.788 20.088 38.708 10.168 7.85 32.105 9.843 44.867 4.075 9.051-4.09 18.908-13.411 22.507-21.283 1.132-2.475 2.574-5.4 3.205-6.5 1.56-2.719 2.065-23.272.799-32.5-4.892-35.638-6.088-42.66-11.073-65-4.887-21.902-4.756-19.868-1.449-22.478 8.541-6.739 12.402-12.139 18.248-25.522 2.083-4.768 2.471-7.53 2.915-20.761.469-13.968.318-15.874-1.782-22.5-1.261-3.981-3.628-9.634-5.258-12.562-2.796-5.022-11.113-14.317-16.729-18.697-3.809-2.972-6.388-7.454-5.055-8.787 1.369-1.369 1.433-6.365.093-7.193-.55-.34-1-1.422-1-2.405 0-1.588 1.417-1.859 12.75-2.437 7.013-.357 22.65-.646 34.75-.642 12.1.005 32.575-.452 45.5-1.016 12.925-.564 38.35-1.46 56.5-1.992 34.437-1.01 70.523-3.043 70.468-3.969-.227-3.852-13.589-11.123-24.34-13.244-11.978-2.362-44.204-.733-47.128 2.383-.704.75.48.88 4 .439 17.951-2.252 44.316-1.545 47.945 1.284.58.453 2.263 1.111 3.74 1.464 2.862.683 9.702 4.716 9.773 5.762.023.345-12.895.93-28.708 1.301-15.812.371-34.15 1.115-40.75 1.655-6.6.539-17.625.932-24.5.873-6.875-.06-19.475.148-28 .462-8.525.313-32.303.807-52.84 1.097l-37.339.527-1.926-2.449c-1.06-1.346-3.494-2.966-5.411-3.598l-3.484-1.15V89.728l4.649.637c2.557.351 5.145 1.032 5.75 1.514.606.482 2.169 1.204 3.475 1.605 3.985 1.224 14.265 8.669 21.106 15.284 4.328 4.185 6.987 6.057 8.001 5.632.835-.351 4.738-.865 8.672-1.144 6.432-.456 7.719-.22 12.778 2.342 6.369 3.225 12.321 8.717 16.337 15.074 2.601 4.118 5.391 5.497 6.732 3.328.34-.55 2.885-1 5.655-1 5.2 0 9.562 2.128 12.979 6.333 1.62 1.994 1.671 1.985 6.5-1.135 2.676-1.73 5.373-3.573 5.993-4.097 3.49-2.944 22.373-5.653 22.373-3.209 0 .49 1.037 1.152 2.305 1.47 1.268.318 4.433 2.676 7.034 5.241 2.601 2.564 4.923 4.468 5.159 4.232.237-.237-1.241-2.502-3.284-5.034-9.039-11.204-24.481-12.23-38.859-2.582-2.28 1.529-4.465 2.781-4.856 2.781s-2.559-1.463-4.817-3.25c-3.853-3.05-4.577-3.245-11.738-3.165-7.442.083-7.684.008-9.746-3C587.36 119.066 576.945 111 571.785 111c-1.054 0-2.707-.423-3.674-.941-1.121-.6-4.143-.531-8.345.188l-6.588 1.129-7.929-7.438c-4.361-4.091-11.019-9.144-14.795-11.229-6.114-3.376-8.602-4.301-17.204-6.395-2.097-.51-2.25-1.084-2.25-8.431V70h182.954l1.75-2.75c.962-1.513 2.111-3.01 2.552-3.327.89-.64.257-12.283-.757-13.924-.352-.571-.193-2.492.354-4.269.547-1.776 1.292-6.717 1.656-10.98l.662-7.75H513.77l-3.145-3.434c-6.896-7.528-16.775-7.578-24.625-.123l-3.5 3.324-149.25.642-149.25.643V14.026C184 4.978 183.631 0 182.96 0c-.573 0-2.318.944-3.88 2.099-3.15 2.329-13.273 4.812-19.84 4.866-3.289.027-5.396-.763-9.24-3.465-2.739-1.925-5.322-3.472-5.74-3.438-.418.035-1.73 1.272-2.915 2.75Zm8.25 4.688c3.28 2.226 9.74 3.4 13.905 2.527.55-.115 3.475-.459 6.5-.765 3.025-.305 6.388-1.164 7.473-1.909 1.084-.744 2.322-1.353 2.75-1.353.427 0 .777 129.825.777 288.5V583h-39.781l-.596-19.25c-2.067-66.806-4.18-293.558-4.524-485.571l-.125-69.322 2.056.652c1.497.476 2.606-.048 4.085-1.928 2.504-3.183 2.903-3.187 7.48-.081Zm353.392 15.455 2.487 1.911-2.397 2.552c-3.557 3.786-8.296 4.354-11.987 1.437-3.729-2.947-3.778-3.66-.34-4.879 1.513-.536 3.425-1.399 4.25-1.917 2.383-1.496 5.3-1.168 7.987.896Zm7.606 7.558c.744 2.966-.585 4.826-5.808 8.123-4.694 2.963-5.197 2.949-6.624-.183-1.55-3.401-1.674-3.151 2.656-5.36 2.099-1.071 4.404-2.655 5.122-3.52 1.927-2.321 3.937-1.915 4.654.94Zm184.82 4.904c-.401 2.796-.77 10.258-.821 16.583-.051 6.325-.456 12.063-.901 12.75-.637.985-19.917 1.25-90.857 1.25-80.481 0-89.985-.163-89.46-1.533 3.272-8.526 4.757-15.969 4.325-21.682-.261-3.457-.802-7.52-1.202-9.029l-.728-2.744 76.866-.281c42.276-.154 82.859-.307 90.186-.339l13.321-.058-.729 5.083Zm-204.12-1.481c3.003 3.57 6.168 13.105 5.401 16.274-1.98 8.176-2.771 10.416-4.486 12.713l-1.925 2.577-32.392-.047c-17.815-.026-86.728-.138-153.141-.25L184 65V32.021l43.25-.26c23.788-.144 92.369-.378 152.403-.521l109.152-.26 2.488 2.956ZM132 48.517v16.517l-35.25-.047c-35.266-.047-49.094-.622-48.238-2.006.251-.406 2.038-1.489 3.972-2.406C54.418 59.657 56 58.535 56 58.08c0-.454-2.26-1.043-5.022-1.308-2.762-.265-5.321-.782-5.686-1.147-.366-.365 1.527-2.648 4.205-5.072 4.182-3.785 4.685-4.629 3.563-5.98-.717-.865-1.903-1.573-2.633-1.573-.731 0-3.601-.487-6.378-1.083-5.328-1.143-5.901-2.136-4.419-7.667l.603-2.25H132v16.517Zm19.5-14.143c-3.847 1.78-5.614 4.803-5.682 9.723-.085 6.169 1.818 9.512 6.731 11.821 4.291 2.017 4.43 2.02 8.686.196 5.004-2.145 6.765-5.177 6.765-11.645 0-8.369-8.712-13.699-16.5-10.095ZM155 40c0 2.667-.333 3-3 3-3.617 0-3.977-2.075-.75-4.326C154.463 36.433 155 36.622 155 40Zm8.04-.812c3.871 2.861 3.736 3.812-.54 3.812-2.355 0-3.5-.464-3.5-1.418 0-.78-.273-2.13-.607-3-.856-2.23 1.168-1.966 4.647.606ZM313 38.705c-3.968.436-26.082 5.228-27.138 5.88-1.179.729-15.012 3.484-22.362 4.453-8.83 1.165-61.905 3.077-66.541 2.397-3.588-.526-7.005.855-5.593 2.261 1.339 1.332 71.97.795 72.419-.552.21-.629 2.032-1.153 4.048-1.165 3.548-.02 7.094-.726 25.167-5.013 4.675-1.108 10.975-2.496 14-3.083 6.199-1.202 38.884-.69 41.042.643.752.465 2.513.98 3.913 1.146 1.4.165 6.145 1.018 10.545 1.895s12.725 2.28 18.5 3.119c5.775.838 11.281 1.926 12.236 2.419 2.237 1.153 25.764 1.175 25.764.024 0-.479 2.66-1.172 5.91-1.539 3.566-.404 6.442-1.314 7.25-2.295 1.202-1.459 1.031-1.549-1.66-.867-5.534 1.401-17.922 2.244-27 1.838-10.206-.457-15.754-1.25-30-4.287-5.5-1.172-12.7-2.693-16-3.379-3.3-.686-6.675-1.53-7.5-1.876-4.15-1.739-27.806-3.03-37-2.019Zm201 3.772c0 2.722-.617 3.732-3.25 5.32-1.788 1.078-4.937 2.26-7 2.627l-3.75.667v-3.546c0-2.702.416-3.549 1.75-3.564.962-.01 3.775-1.304 6.25-2.876 2.475-1.571 4.837-2.661 5.25-2.422.413.239.75 1.947.75 3.794ZM155 50c0 3.713-3.079 4.153-5.443.777C147.302 47.559 147.59 47 151.5 47c3.222 0 3.5.238 3.5 3Zm11-2.18c0 1.088-4.745 5.18-6.008 5.18-.545 0-.992-1.35-.992-3 0-2.762.278-3 3.5-3 1.925 0 3.5.369 3.5.82Zm347 6.098c0 3.546-4.878 6.988-11.082 7.82-4.013.538-4.024.531-3.334-2.349.981-4.093.939-4.057 5.521-4.79 2.282-.365 5.092-1.324 6.244-2.131 2.721-1.906 2.651-1.944 2.651 1.45Zm-5.646 12.68c-1.019.809-2.896 1.905-4.169 2.436C500.39 70.2 493 70.321 493 69.2c0-1.93 2.737-3.202 6.95-3.232 2.502-.017 5.445-.708 6.538-1.534 2.601-1.966 3.437.125.866 2.164ZM158.294 97.25c.33 19.499.998 33.832 1.69 36.25.629 2.2 1.734 6.475 2.454 9.5.721 3.025 1.849 6.849 2.506 8.498 1.573 3.946 2.83 50.098 1.339 49.177-.57-.353-1.557-2.706-2.192-5.229-1.263-5.016-4.627-10.869-7.961-13.851-2.74-2.451-2.828-.384-.144 3.386 5.372 7.544 6.428 11.79 6.472 26.019.044 14.183-1.027 19.164-4.523 21.035-2.803 1.5-4.639.168-5.303-3.846-1.014-6.135-.73-9.214.911-9.844 3.243-1.244 5.755-8.423 5.674-16.216-.093-9.029-1.573-13.129-4.74-13.129-3.167 0-6.324 5.707-7.389 13.355-1.61 11.561 1.483 31.431 5.274 33.88 4.39 2.835 11.114-1.172 12.138-7.234.371-2.195 1.146-4.282 1.722-4.638 1.368-.845.106 8.01-1.729 12.137-.734 1.65-1.648 4.125-2.031 5.5-.384 1.375-3.457 8.125-6.83 15l-6.132 12.5-.305-4.75c-.521-8.128-2.195-5.205-2.195 3.833 0 6.108.337 8.471 1.17 8.194 1.008-.336 3.623-4.974 12.843-22.777 3.46-6.681 5.922-12.537 8.198-19.5 2.215-6.773 2.281-8.022 2.034-38.5-.267-33.03-1.289-43.696-5.412-56.453-1.075-3.326-2.213-10.097-2.528-15.047-.316-4.95-.921-9.45-1.344-10-.423-.55-1.099-11.912-1.501-25.25-.448-14.847-1.115-24.25-1.721-24.25-.645 0-.8 11.263-.445 32.25ZM305.94 69.607c.271.271-3.84 4.633-9.137 9.693-25.68 24.536-31.191 29.825-42.803 41.087-10.255 9.945-46.802 45.098-61.978 59.613-2.013 1.925-4.641 4.357-5.841 5.405L184 187.31V67.872l60.724.621c33.398.342 60.946.843 61.216 1.114Zm16.932.983c.37.319-22.231 22.454-37.285 36.518-4.352 4.066-11.829 11.217-16.616 15.892-4.787 4.675-16.295 15.7-25.573 24.5-16.999 16.124-21.995 20.903-45.192 43.229-6.988 6.727-13.043 12.239-13.456 12.25-.413.012-.75-2.371-.75-5.295 0-4.892.299-5.578 3.75-8.604 2.063-1.808 10.09-9.428 17.838-16.934 14.094-13.652 30.068-29.044 62.585-60.303 9.53-9.162 23.402-22.531 30.827-29.71l13.5-13.052 5 .595c2.75.327 5.167.739 5.372.914ZM507 74.312c0 1.867-4.921 5.24-8.75 5.996-3.044.601-3.25.465-3.25-2.151 0-2.571.415-2.873 5.25-3.82 2.888-.565 5.587-1.097 6-1.182.413-.085.75.435.75 1.157Zm0 10.239c0 1.966-.796 2.883-3.468 4-5.429 2.269-8.532 1.929-8.532-.934 0-2.355.682-2.809 7-4.651 4.327-1.262 5-1.049 5 1.585Zm0 10.423c0 3.253-2.687 5.206-8.75 6.358-3.204.609-3.25.564-3.25-3.175 0-3.777.02-3.796 5.25-4.82 2.888-.565 5.587-1.097 6-1.182.413-.085.75 1.183.75 2.819ZM491 121.5c0 23.984-.226 28.5-1.423 28.5-.783 0-2.761 1.125-4.395 2.5-1.698 1.429-4.233 2.5-5.918 2.5-2.603 0-3.095-.497-4.21-4.25-.694-2.338-2.304-6.5-3.578-9.25s-4.377-9.433-6.896-14.852c-2.519-5.418-4.58-10.434-4.58-11.146 0-1.6 15.006-15.836 18.761-17.798a496.222 496.222 0 0 0 5.739-3.061c6.765-3.677 6.5-4.772 6.5 26.857Zm-49.49-22.484c.346.559 1.013.779 1.482.489.47-.291 2.426.399 4.347 1.532 2.862 1.689 4.664 4.445 9.978 15.262C464.36 130.633 467 136.414 467 137.5c0 .384.635 2.116 1.412 3.849.777 1.733 2.159 5.626 3.071 8.651.913 3.025 2.043 6.4 2.512 7.5 1.612 3.784 4.292 13.546 3.843 13.996-.248.248-3.341-5.275-6.874-12.273-6.457-12.792-8.535-16.319-12.821-21.768-2.14-2.72-2.829-2.955-8.691-2.955-5.195 0-6.644.368-7.877 2-3.653 4.833-2.86 13.695 1.67 18.677 1.24 1.364 4.505 5.119 7.255 8.344 2.75 3.224 6.743 7.596 8.873 9.714 2.13 2.119 3.595 4.131 3.254 4.471-1.717 1.718-21.884-15.994-38.076-33.44-13.922-15.001-15.895-18.837-13.61-26.465 2.566-8.563 7.807-14.109 16.771-17.748 5.181-2.104 12.786-2.675 13.798-1.037Zm65.49 6.369c0 2.831-3.652 5.522-8.581 6.322-3.366.546-3.419.499-3.419-3.076 0-3.415.193-3.635 3.25-3.701 1.788-.039 4.15-.457 5.25-.93 3.1-1.332 3.5-1.174 3.5 1.385Zm-108.066 1.769c7.734 3.649 7.972 4.045 7.353 12.228-.759 10.047.923 13.082 15.963 28.811 1.512 1.582 2.75 3.378 2.75 3.992 0 1.275-10.71.67-31-1.75-16.259-1.939-14.888-1.937-27-.042-5.775.904-16.35 2.315-23.5 3.134-7.15.82-15.025 1.918-17.5 2.44-2.475.522-9.9.983-16.5 1.025-11.051.069-12.435-.136-17.5-2.598-3.563-1.731-7.455-2.753-11.05-2.902-7.733-.321-9.95-1.183-9.95-3.87 0-2.78 4.823-7.836 9.668-10.135 6.825-3.238 31.831-2.807 35.96.62.906.752 2.589-.274 6.268-3.82 3.282-3.163 6.867-5.471 10.317-6.642 5.157-1.75 5.401-1.745 9.927.198 2.552 1.095 4.941 2.479 5.309 3.074 1.153 1.866 2.198 1.216 5.088-3.167 5.839-8.853 18.328-19.385 25.963-21.893 4.699-1.544 14.848-.867 19.434 1.297ZM507 115.98c0 2.464-.685 3.329-3.96 5-6.082 3.103-8.04 2.742-8.04-1.48 0-3.022.326-3.5 2.386-3.5 1.312 0 3.674-.672 5.25-1.494 3.958-2.064 4.364-1.927 4.364 1.474Zm0 11.045c0 2.396-.571 3.227-2.75 4-1.513.537-3.531 1.426-4.486 1.975-3.327 1.915-4.764 1.199-4.764-2.372 0-3.204.261-3.449 5.25-4.919 7.015-2.068 6.75-2.12 6.75 1.316Zm0 11.026c0 3.166-2.179 4.658-9.25 6.335-2.639.626-2.75.496-2.75-3.226v-3.879l5.25-1.009c2.888-.555 5.587-1.068 6-1.141.413-.072.75 1.242.75 2.92Zm-51.488-.043c2.491 1.539 4.653 4.862 9.27 14.25 3.312 6.733 6.59 14.163 7.284 16.512 1.147 3.88 1.088 4.402-.652 5.718-1.053.797-2.402 1.463-2.998 1.48-1.242.037-7.584-6.547-15.304-15.886-2.918-3.53-5.901-7.014-6.628-7.741-2.003-2.003-3.75-8.146-3.078-10.824 1.408-5.607 6.38-7.048 12.106-3.509Zm49.934 11.655C502.838 151.57 495 151.448 495 149.5c0-1.04 1.151-1.547 3.75-1.652 5.59-.227 6.039-.304 6.909-1.173.439-.44.983-.249 1.208.425.224.674-.415 1.827-1.421 2.563Zm-9.895 3.542c2.315 1.055 2.574 1.636 2.083 4.664-.309 1.902-.986 3.883-1.506 4.403-1.349 1.349-7.92-1.014-9.136-3.286-1.337-2.5-1.31-2.612 1.197-4.947 2.531-2.359 3.72-2.493 7.362-.834Zm20.971.819c1.779 1.966 1.773 2.104-.201 4.75-2.962 3.971-4.933 3.979-5.598.023-.304-1.813-.864-4.084-1.245-5.047-1.024-2.588 4.653-2.367 7.044.274Zm-9.914 3.55c.973 3.878-1.041 7.426-4.217 7.426-2.509 0-2.619-.203-2.033-3.75.341-2.062.625-4.312.631-5 .006-.687 1.127-1.25 2.492-1.25 1.831 0 2.65.674 3.127 2.574Zm-23.647 2.615c2.277 2.444 2.509 3.403 1.039 4.311-.55.34-1 1.941-1 3.559 0 3.105-1.393 3.964-2.357 1.453-.314-.818-.87-3.743-1.236-6.5-.743-5.6.24-6.381 3.554-2.823Zm-71.984 6.999c2.142 4.434 2.644 10.685 1.089 13.576-.513.955-1.416 3.858-2.005 6.452-2.029 8.921-10.11 20.139-18.291 25.39-4.713 3.025-5.853 3-8.846-.192-2.19-2.336-2.422-3.435-2.402-11.373.012-4.832.512-9.406 1.112-10.164.6-.757 1.407-2.7 1.795-4.316.387-1.616 1.574-4.161 2.637-5.654 1.064-1.494 1.934-3.185 1.934-3.759 0-.574 2.821-3.992 6.269-7.596 5.777-6.038 6.598-6.552 10.476-6.552 3.952 0 4.331.255 6.232 4.188Zm78.73-2.081c.609.609 2.578 1.408 4.376 1.776 5.692 1.164 4.753 3.117-1.5 3.117-5.537 0-5.583-.025-5.583-3 0-3.148.854-3.746 2.707-1.893Zm28.82-.063c.743 1.203-2.09 5.956-3.55 5.956-1.092 0-1.351-5.292-.31-6.333 1.007-1.008 3.133-.8 3.86.377ZM510 169.607c0 1.974-.387 2.459-1.593 1.996-.876-.336-2.676-.883-4-1.216-1.324-.332-2.407-1.053-2.407-1.602 0-.55.603-.767 1.341-.485.737.283 1.975.113 2.75-.377 2.506-1.587 3.909-.983 3.909 1.684Zm-84.36 5.928c11.265 9.061 21.36 18.644 21.36 20.277 0 1.591-2.105 1.503-4.527-.191-2.3-1.608-8.493-5.204-13.434-7.802-5.121-2.691-9.265-2.345-12.933 1.082-1.708 1.596-3.106 3.621-3.106 4.5 0 .88-.498 1.599-1.107 1.599-.647 0-.824-.727-.425-1.75 2.221-5.7 3.695-14.317 3.325-19.44-.239-3.296-.01-5.81.529-5.81.522 0 5.165 3.391 10.318 7.535Zm79.86-.558c10.274 2.285 23.732 9.196 27.14 13.937.627.872 2.522 3.161 4.21 5.086 1.689 1.925 4.253 5.975 5.699 9 1.446 3.025 3.116 6.4 3.711 7.5.595 1.1 1.285 6.525 1.533 12.056.397 8.835.146 10.959-2.067 17.5-1.385 4.094-3.577 9.424-4.872 11.844-2.776 5.19-13.077 16.106-17.354 18.389-21.342 11.398-35.795 11.396-57-.011-4.942-2.658-15.054-13.464-17.952-19.183-6.433-12.695-8.073-26.947-4.451-38.675 4.254-13.773 11.432-23.344 22.938-30.588 3.187-2.007 14.644-6.551 17.965-7.127 4.557-.789 16.438-.632 20.5.272Zm-73.68 16.197c2.574 1.746 5.901 4.178 7.393 5.405 1.492 1.226 3.27 2.415 3.951 2.642.934.312.82 1.292-.463 3.997-.936 1.971-1.701 4.079-1.701 4.683 0 2.047-8.517.747-15.5-2.366-1.65-.736-3.876-1.496-4.946-1.69-1.07-.193-2.838-1.879-3.928-3.746-1.963-3.361-1.964-3.431-.055-6.96 1.814-3.352 4.322-4.797 8.749-5.039 1.001-.055 3.926 1.328 6.5 3.074Zm-196.236.433c3.821 1.813 14.903 13.203 15.899 16.339.829 2.612 3.679 2.637 6.017.054 3.353-3.705 7.598-2.47 14.178 4.122 2.072 2.076 2.469 2.12 8.177.909 3.299-.7 9.014-1.081 12.7-.847 6.232.397 6.941.689 10.137 4.177 1.891 2.063 3.262 4.276 3.049 4.917-.447 1.34-3.954 2.478-8.083 2.622-1.564.055-3.987 1-5.385 2.1-2.137 1.681-3.998 1.99-11.658 1.938-8.413-.057-17.969-.891-26.615-2.324-14.324-2.373-17.904-2.525-25.617-1.09-8.72 1.623-21.05 3.004-35.133 3.936l-9.25.612.028-9.786.028-9.786 5.941-5.886c5.489-5.438 6.208-5.842 9.452-5.316 1.931.313 5.114 1.793 7.074 3.287l3.562 2.717 1.707-2.322c3.262-4.436 10.419-10.869 12.557-11.287 4.614-.902 7.986-.628 11.235.914ZM133 210.855v19.855l-30.75.713c-16.912.392-42.675.485-57.25.206-14.575-.278-29.312-.534-32.75-.567-3.437-.034-6.25-.409-6.25-.833 0-1.372 8.331-5.138 14.831-6.704 7.366-1.774 14.765-1.988 15.713-.454.401.65 2.151.818 4.456.429 2.305-.389 4.055-.221 4.456.429 1.212 1.961 3.261 1.107 5.627-2.345 5.357-7.819 13.552-8.507 23.099-1.939 3.586 2.467 7.818 2.595 7.818.237 0-1.915 6.711-3.942 9.517-2.875 3.471 1.319 3.206 1.437 5.087-2.257.911-1.788 2.27-3.925 3.021-4.75.75-.825 2.486-2.907 3.856-4.628 3.091-3.881 9.572-5.8 14.613-4.327 3.676 1.074 2.992 1.558 10.208-7.218 4.398-5.347 4.698-4.26 4.698 17.028Zm22.446-11.44c.739 5.913-.076 12.238-1.706 13.246-.681.42-.858-.922-.519-3.929.405-3.597.224-4.456-.853-4.043-.856.328-1.366-.171-1.362-1.332.008-2.963 2.008-9.357 2.926-9.357.461 0 1.142 2.437 1.514 5.415Zm257.918 3.085c.828 2.617 6.112 6.133 11.136 7.41 11.345 2.884 14.018 3.901 14.323 5.449.395 2.003-1.221 2.018-12.823.116-12.208-2-24-4.666-24-5.425 0-.359 1.84-3.484 4.089-6.946 3.735-5.747 4.201-6.133 5.366-4.449.701 1.015 1.561 2.745 1.909 3.845Zm84.636-.107c0 6.112-.568 6.607-7.582 6.607-2.43 0-4.418.398-4.418.883 0 1.157 3.59 2.086 8.123 2.103 3.62.014 3.623.018 4.109 5.073.267 2.782.983 5.556 1.59 6.163 1.605 1.605 3.465-3.879 2.699-7.962-.596-3.175-.521-3.26 2.887-3.26 3.747 0 8.592-1.782 8.592-3.161 0-.461-2.679-.839-5.953-.839h-5.953l-1.041-3.75c-.573-2.062-1.044-4.537-1.047-5.5-.003-.963-.456-1.75-1.006-1.75s-1 2.427-1 5.393Zm-16 20.173c0 6.059-1.358 7.462-6.986 7.217-8.248-.359-8.415 2.184-.196 2.974l4.862.467-.09 6.038c-.055 3.685.353 6.192 1.046 6.433 1.274.444 3.364-4.741 3.364-8.344 0-2.18.396-2.351 5.441-2.351 4.96 0 7.683-1.209 6.158-2.734-.331-.331-3.126-.811-6.211-1.067l-5.609-.465.424-5.867c.318-4.394.095-5.867-.889-5.867-.84 0-1.314 1.287-1.314 3.566Zm46.973.184c-.026 3.561-.3 3.874-5.457 6.221l-5.429 2.472-.294 5.444c-.282 5.24-.424 5.487-3.793 6.61-2.829.942-3.678 1.869-4.426 4.834-.51 2.018-1.433 3.669-2.051 3.669-.618 0-2.352.563-3.854 1.25-2.192 1.004-2.674 1.825-2.449 4.173.355 3.704 2.344 4.448 3.164 1.184.478-1.906 1.375-2.553 3.869-2.794 3.015-.291 3.268-.601 3.544-4.34.304-4.136 1.305-5.011 7.953-6.951 1.942-.567 2.25-1.334 2.25-5.614 0-4.433.278-5.063 2.631-5.958 4.399-1.672 8.369-4.979 8.369-6.971 0-2.416-2.066-6.979-3.161-6.979-.461 0-.851 1.688-.866 3.75ZM505 227.778c0 1.54-.891 3.54-2 4.49-3.148 2.695-2.377 3.66 2.69 3.365 5.239-.304 6.209-1.511 3.885-4.83-.866-1.236-1.575-3.048-1.575-4.026 0-.977-.675-1.777-1.5-1.777-.973 0-1.5.975-1.5 2.778Zm-58 28.781c0 .857-.45 1.281-1 .941-.55-.34-1-1.041-1-1.559s.45-.941 1-.941 1 .702 1 1.559Zm4.524 6.516c.749 2.361.113 3.437-1.457 2.466-1.312-.81-1.422-4.541-.134-4.541.513 0 1.229.934 1.591 2.075Zm-118.271 1.953c-2.336 1.038-4.963 2.469-5.838 3.18-3.434 2.788-7.217 6.698-7.604 7.858-.311.934-.909.952-2.543.077-3.075-1.645-8.936-1.406-11.819.482-2.358 1.545-2.666 1.496-6.268-1-2.084-1.444-4.552-2.625-5.485-2.625-.933 0-1.696-.45-1.696-1 0-3.53-10.474 1.46-15.825 7.538-3.636 4.131-4.272 4.481-6.237 3.429-2.403-1.286-5.549-.205-9.554 3.286-1.855 1.616-2.671 1.704-6.616.71-9.346-2.353-21.526 4.879-16.568 9.837.66.66 2.81 1.2 4.777 1.2 1.968 0 4.605.72 5.861 1.599 1.52 1.065 3.517 1.43 5.973 1.093 23.646-3.244 29.948-3.836 37.689-3.538 18.736.72 70.092.105 84.252-1.009 8.112-.638 23.298-1.609 33.748-2.157 19.022-.999 37.506-2.947 37.493-3.953-.004-.294-1.661-1.66-3.683-3.035-3.484-2.369-4.399-2.5-17.529-2.5-9.096 0-14.098-.383-14.567-1.115-1.89-2.953-11.949-3.444-16.013-.781-1.934 1.267-2.957 1.372-4.872.5-1.333-.607-3.947-1.104-5.809-1.104-2.477 0-3.551-.523-4.004-1.949-.34-1.072-1.495-2.227-2.567-2.567-1.072-.34-1.949-1.021-1.949-1.513 0-1.416-7.872-3.158-11.085-2.452-2.126.467-3.076.224-3.505-.893-.601-1.565-5.137-4.669-11.41-7.807-4.518-2.26-11.382-2.174-16.747.209Zm-168.776-.263c-4.521 3.247-8.477 16.637-8.477 28.694 0 5.248.391 9.541.87 9.541 1.436 0 3.321 11.898 2.591 16.353-.374 2.281-1.781 6.578-3.127 9.549-3.743 8.267-3.25 23.098.769 23.098.646 0 .726-.842.214-2.25-1.486-4.09-.673-13.026 1.565-17.211 1.165-2.179 2.118-4.504 2.118-5.167 0-.663.563-1.393 1.25-1.622 2.12-.707 1.655-18.408-.616-23.45-1.544-3.427-1.796-5.926-1.455-14.471.226-5.681.942-11.229 1.591-12.329.649-1.1 1.955-3.8 2.902-6 .947-2.2 1.896-4.337 2.109-4.75.492-.956-.965-.946-2.304.015Zm186.57 3.998c6.412 5.387 11.955 9.043 12.463 8.221 1.992-3.224 12.421 1.047 15.071 6.173 1.339 2.589 1.884 2.846 4.842 2.291 2.111-.396 4.387-.083 6.206.852 2.669 1.373 3.115 1.309 6.343-.912 4.211-2.897 10.476-3.197 13.305-.638 1.639 1.482 3.973 1.75 15.244 1.75 11.82 0 15.78.533 14.378 1.934-.425.425-18.341 1.673-52.399 3.65-9.35.543-38.188 1.14-64.085 1.328-29.054.21-47.819.728-49 1.35-3.103 1.635-15.782 2.5-25.441 1.736-9.504-.752-10.707-1.62-6.953-5.017 1.627-1.472 3.593-1.812 10.084-1.742 7.009.076 8.538-.236 11.703-2.384 2.348-1.593 4.361-2.249 5.667-1.847 1.114.342 2.753.855 3.643 1.139 1.086.347 2.351-.67 3.852-3.098 5.231-8.464 14.79-11.086 21.203-5.815 1.83 1.504 3.652 3.191 4.049 3.75.476.671 1.325.591 2.5-.236 3.484-2.454 6.804-3.372 10.018-2.769 1.793.336 3.26 1.041 3.26 1.566 0 2.173 2.935.698 6.109-3.07 3.002-3.563 7.292-6.877 11.891-9.186 2.283-1.145 14.4-.41 16.047.974Zm108.01 1.344c1.768 3.303-.49 4.878-3.051 2.129-1.104-1.184-2.006-2.621-2.006-3.194 0-1.901 3.911-1.078 5.057 1.065Zm70.911 2.643c-.081 1.912-5.219 6.25-7.402 6.25-1.74 0-.152-3.748 2.186-5.159 2.987-1.802 5.267-2.279 5.216-1.091Zm-62.675 2.5c1.576 1.176 1.448 5.784-.16 5.728-1.931-.068-5.379-3.894-4.82-5.35.746-1.945 2.683-2.092 4.98-.378Zm51.1 4.332c.868 2.263.896 2.217-2.343 3.892-4.299 2.223-6.05 1.949-6.05-.945 0-1.93.713-2.678 3.25-3.41 4.507-1.301 4.465-1.305 5.143.463Zm-40.643.048c2.275.61 2.886 2.82 1.418 5.132-.618.973-1.529 1.008-3.984.152-2.387-.832-3.184-1.711-3.184-3.512 0-2.513 1.387-2.941 5.75-1.772Zm12.125 2.995c2.447.489 3.125 1.14 3.125 3 0 2.151-.428 2.375-4.531 2.375-4.678 0-6.289-1.42-5.107-4.5.633-1.65 1.832-1.811 6.513-.875ZM506 284.383c0 2.531-2.106 3.578-7.25 3.603-2.252.012-2.75-.428-2.75-2.426 0-2.082.549-2.497 3.75-2.832 2.063-.215 4.313-.467 5-.56.697-.094 1.25.886 1.25 2.215Zm16.874 3.367c1.849 4.556 7.422 32.26 9.706 48.25.825 5.775 1.898 11.85 2.385 13.5.486 1.65 1.387 8.85 2.001 16 .615 7.15 1.268 14.35 1.452 16 .576 5.165-1.369 15.713-3.929 21.305-3.199 6.988-7.352 12.15-12.686 15.77-2.367 1.606-4.528 3.192-4.803 3.525-.606.733-8.554 3.185-15.82 4.88-4.141.966-6.357.979-10 .06-2.574-.649-6.705-1.679-9.18-2.289-8.785-2.165-20.005-11.757-23.984-20.504-1.187-2.611-2.573-5.521-3.078-6.468-1.652-3.095-2.122-15.078-.991-25.279 1.95-17.594 7.266-52.271 8.967-58.5.526-1.925 2.164-8.788 3.64-15.25 1.764-7.72 3.138-11.75 4.006-11.75.727 0 1.56.386 1.852.857.514.832 6.273 2.115 17.588 3.919 5.095.812 5.314.955 2.977 1.939-4.012 1.69-8.925 7.363-10.176 11.75-.633 2.219-1.546 4.559-2.028 5.2s-1.304 5.293-1.826 10.337c-2.002 19.356 3.409 41.196 11.419 46.079 3.84 2.342 6.781 2.418 11.265.29 5.648-2.68 10.293-14.609 10.345-26.562.013-3.13.481-5.974 1.04-6.319.559-.346.768-1.03.464-1.522-.303-.491-.991-5.901-1.528-12.022-1.345-15.324-5.545-24.222-12.762-27.04-3.527-1.377-1.865-2.551 4.565-3.223 3.2-.334 8.276-1.724 11.281-3.088 3.005-1.364 5.747-2.506 6.093-2.537.345-.032 1.131 1.18 1.745 2.692ZM499.5 298.765c1.811 1.331 5.553 7.193 7.518 11.778 2.792 6.513 3.965 18.042 2.939 28.887-1.015 10.728-5.045 20.01-10.49 24.163l-3.242 2.473-3.55-2.095c-6.122-3.612-9.997-13.161-11.351-27.971-.578-6.316 2.571-23.543 5.291-28.956 3.761-7.484 9.206-10.982 12.885-8.279Zm-279.108 92.368c3.138 1.43 22.608 39.844 22.608 44.606 0 2.241-.936 3.876-3.518 6.143-7.904 6.94-13.604 4.344-19.498-8.882-2.259-5.069-3.689-7.909-11.436-22.725-3.864-7.391-4.313-12.046-1.505-15.608 3.513-4.457 8.454-5.765 13.349-3.534Zm-63.4 48.464c-.926 10.67-.98 15.984-.201 19.75.586 2.834 1.36 6.953 1.72 9.153.36 2.2 1.255 5.35 1.99 7 4.306 9.675 5.474 13.169 7.041 21.07 1.288 6.487 1.574 11.113 1.107 17.844-.827 11.892-1.38 13.806-3.773 13.047-2.463-.782-2.493 1.671-.047 3.884 2.552 2.31 2.926 2.147 4.81-2.095 1.187-2.674 1.793-7.625 2.112-17.25.536-16.197-.767-23.632-6.219-35.5-.758-1.65-1.7-4.35-2.093-6-.393-1.65-1.173-3.581-1.734-4.291-.574-.728-1.228-9.994-1.499-21.25-.264-10.978-.81-19.959-1.214-19.959-.404 0-1.304 6.569-2 14.597Zm84.178 8.653c.894 1.788 4.093 8.425 7.11 14.75 3.018 6.325 10.039 20.763 15.603 32.085S274 515.969 274 516.335c0 .366-1.012.655-2.25.642-1.886-.019-3.26-2.102-8.5-12.895-3.437-7.08-6.25-13.412-6.25-14.073 0-.66-.842-2.395-1.87-3.855-2.329-3.305-19.13-37.502-19.13-38.937 0-.915 1.377-1.89 3.023-2.138.287-.043 1.253 1.383 2.147 3.171Zm-84.542 62.5c-2.044 17.333-1.932 21.038.904 30.036 1.51 4.793 3.108 9.614 3.55 10.714.443 1.1 1.108 4.025 1.48 6.5.747 4.986 2.973 10 4.439 10 .997 0 .594-3.662-1.181-10.715-.583-2.319-.801-4.892-.484-5.718.317-.827.197-1.737-.266-2.024-.464-.286-1.131-2.056-1.483-3.931-.352-1.876-1.365-4.865-2.252-6.642-1.291-2.589-1.58-6.188-1.45-18.101.134-12.301-.085-14.869-1.268-14.869-.96 0-1.613 1.559-1.989 4.75Zm143.855 6.222c.349.566 1.625 1.028 2.834 1.028 2.503 0 16.92 4.939 20.668 7.08 8.993 5.138 20.424 15.926 23.755 22.42.846 1.65 1.849 3.225 2.228 3.5 2.905 2.109 9.032 20.518 9.032 27.139 0 4.86-.001 4.861-3.395 4.861-3.168 0-3.428-.25-3.889-3.75-.743-5.631-3.176-14.428-4.773-17.25-3.958-6.996-8.105-12.813-11.104-15.576-8.756-8.064-18.446-13.798-25.339-14.992-2.2-.381-4.591-1.163-5.314-1.738-1.782-1.418-25.549-1.454-27.322-.042-.75.598-3.134 1.407-5.297 1.797-7.488 1.352-17.662 7.415-25.067 14.939-6.233 6.333-8.072 9.138-13.632 20.797-.683 1.432-2.837 12.778-2.86 15.065-.005.413-1.553.75-3.441.75-4.621 0-4.986-1.683-2.669-12.285 2.936-13.436 10.141-26.217 20.051-35.566 5.677-5.356 16.166-11.829 22.086-13.631 3.006-.914 6.246-2.08 7.201-2.59.955-.51 3.066-.928 4.691-.928s3.186-.374 3.468-.83c.762-1.233 17.336-1.415 18.088-.198Zm6.798 15.692c6.376 2.057 14.858 6.5 20.219 10.591 9.945 7.588 18.802 22.457 20.074 33.699l.658 5.814-4.366.488c-6.724.751-56.454.802-84.616.086-29.041-.739-26.747.4-23.196-11.522 3.369-11.315 10.47-21.671 19.76-28.82a387.291 387.291 0 0 0 4.493-3.5c2.155-1.732 10.067-5.388 13.193-6.096 1.65-.374 3.459-1.037 4.02-1.473 2.953-2.298 21.807-1.834 29.761.733Zm39.219 55.278c146.566.828 274.797 2.106 275.486 2.746.268.248.656 11.445.864 24.882l.377 24.43H330.113C40.637 640 37 639.976 37 638.059c0-1.068.374-2.172.831-2.454.457-.283 1.407-3.122 2.111-6.309.704-3.188 1.668-6.277 2.142-6.865 1.644-2.042 4.022-14.672 3.353-17.809-.367-1.717-1.685-5.597-2.931-8.622-1.246-3.025-2.578-6.525-2.962-7.778l-.696-2.277 91.326.645c50.229.355 147.576.963 216.326 1.352ZM92 598.9c-7.983 1.346-12.518 3.005-16.552 6.057-4.618 3.494-8.86 3.85-12.448 1.043-4.555-3.563-5.501-2.098-1.46 2.26 2.093 2.257 3.392 2.74 7.366 2.74 3.18 0 5.637-.633 7.209-1.859 6.966-5.428 8.084-5.641 29.635-5.641 11.138 0 20.25-.238 20.25-.529 0-.29-3.18-1.347-7.068-2.349-8.013-2.064-20.257-2.847-26.932-1.722Zm353.253 2.137c-8.655 1.085-12.799 3.018-13.637 6.359-1.35 5.379 2.739 10.147 9.656 11.26 2.075.334 4.027 1.018 4.338 1.521.646 1.046-9.542-.029-11.11-1.172-.55-.401-2.334-1.049-3.965-1.44-3.209-.769-7.53-2.626-20.187-8.671-4.483-2.142-8.645-3.894-9.25-3.894-.604 0-1.098-.45-1.098-1s1.575-1 3.5-1 3.5-.45 3.5-1c0-.583-3.333-1-8-1-4.4 0-8 .367-8 .815 0 .448 3.938 2.811 8.75 5.25 4.813 2.439 9.345 4.998 10.071 5.685.727.688 1.768 1.25 2.312 1.25.545 0 3.55 1.169 6.679 2.598 10.832 4.947 11.834 5.322 16.023 5.992 2.315.37 4.451 1.064 4.746 1.541.793 1.284 52.295 1.075 63.919-.259 5.5-.631 12.925-1.787 16.5-2.568 29.244-6.392 27.409-6.165 55.75-6.908 25.232-.661 32.114-1.426 24-2.666-3.536-.54-49.826 0-58.75.686-5.405.415-7.52.901-11.5 2.639-7.645 3.339-28.71 5.605-54.309 5.841-11.059.102-14.147-1.008-6.299-2.263 4.702-.752 13.571-5.054 17.029-8.26 3.91-3.626 1.798-3.797-3.862-.314-2.838 1.746-5.47 2.863-5.851 2.483-.38-.381.092-1.131 1.05-1.667.958-.536 1.742-2.037 1.742-3.335 0-5.599-16.147-8.711-33.747-6.503Zm25.165 4.493c2.015.842 3.393 1.967 3.063 2.5-.848 1.373-16.196 1.24-17.054-.148-.479-.776.572-.997 3.441-.723 4.334.413 4.916.025 2.932-1.959-1.782-1.782 3.066-1.572 7.618.33Zm-327.42 3.473c-3.277 4.137-6.706 5.726-9.746 4.515-.963-.384-4.054-.871-6.868-1.082-2.814-.211-6.396-.87-7.959-1.464-1.563-.595-7.136-1.319-12.384-1.61-8.639-.479-9.963-.308-14.001 1.804-8.294 4.34-8.561 11.975-.512 14.659 4.532 1.511 19.078 1.655 22.838.226 3.102-1.18 5.067-4.627 4.792-8.413-.201-2.778-.096-2.844 3.568-2.241 10.327 1.7 14.492 1.824 16.955.506 2.216-1.186 8.319-8.767 8.319-10.333 0-1.625-2.183-.127-5.002 3.433Zm306.347-2.546c.308.802 2.372 2.602 4.587 4 3.418 2.158 5.201 2.543 11.762 2.543 7.366 0 7.651.083 5.985 1.75-1.483 1.483-3.689 1.75-14.464 1.75-10.745 0-13.321-.31-16.625-2-7.716-3.947-7.341-7.044 1.023-8.446 7.098-1.189 7.122-1.188 7.732.403ZM246 616.083l-9.5 5.08-19.751-.332c-18.183-.305-23.92.269-16.999 1.699 1.512.313 4.527 1.098 6.7 1.745 2.172.648 9.834 1.188 17.027 1.201l13.076.024 10.244-5.25c9.832-5.039 10.565-5.25 18.224-5.25 4.388 0 7.979-.42 7.979-.933 0-1.303-2.413-1.882-10.5-2.515-6.926-.543-7.101-.495-16.5 4.531ZM99.491 615.01c-1.586 1.753-1.648 2.328-.486 4.5 1.105 2.065 2.072 2.49 5.664 2.49 2.382 0 4.331-.45 4.331-1s-1.575-1-3.5-1c-5.056 0-4.422-2.339 1.029-3.797 3.873-1.035 4.887-.976 7 .408 3.382 2.216 3.102 3.718-1.063 5.704-4.27 2.036-12.509 2.16-17.966.269-6.563-2.273-5.628-6.856 1.756-8.609 4.983-1.183 5.184-1.119 3.235 1.035Z" fill="#000"/></svg>