<svg width="740" height="644" fill="none" xmlns="http://www.w3.org/2000/svg"><path fill-rule="evenodd" clip-rule="evenodd" d="M141.632 2.626c-1.855 2.545-3.51 2.733-7.882.896-1.613-.678-1.75.251-1.75 11.871V28l-44.25.188c-54.065.229-49.435.105-50.69 1.356-.576.574-1.338 3.826-1.694 7.227-.505 4.833-.342 6.273.744 6.589L42 45.068c2.475.717 4.7 1.457 4.943 1.645.601.461-5.837 6.287-6.948 6.287-1.268 0-4.009 4.169-3.394 5.163.284.46 2.29.837 4.458.837S45 59.45 45 60s-.499 1-1.108 1C41.605 61 33 65.538 33 66.744c0 1.211 25.441 1.598 82.764 1.258 11.655-.069 15.371.216 15.716 1.204.635 1.823 1.133 115.74.507 116.044-.282.138-2.908 2.993-5.836 6.345-5.317 6.088-5.328 6.094-10.061 5.64-7.73-.743-15.228 4.067-20.342 13.05-1.872 3.287-2.512 3.706-4.871 3.188-2.869-.63-10.877 2.718-10.877 4.547 0 1.669-1.719 1.102-6.552-2.16-6.451-4.354-13.567-4.532-18.889-.473-2.033 1.551-4.185 3.892-4.782 5.203-.96 2.108-1.562 2.318-5.182 1.816-2.252-.313-5.339-1.039-6.86-1.615-4.195-1.587-17.388-.429-24.377 2.14C7.587 225.053 0 230.771 0 232.998c0 .551 1.462 1.003 3.25 1.003 1.788.001 7.975.206 13.75.455 5.775.249 34.237.483 63.25.521l52.75.069.087 30.227c.047 16.625.288 39.227.535 50.227.247 11 .86 65.675 1.362 121.5.501 55.825 1.21 111.492 1.574 123.705l.662 22.206-51.61-.617c-37.044-.442-51.61-.308-51.61.477 0 1.066 5.154 15.744 6.928 19.729.49 1.1 1.118 2.723 1.395 3.606.277.884-1.752 8.759-4.51 17.5-2.757 8.742-5.246 16.907-5.53 18.144l-.516 2.25h594.142l.688-3.663c.789-4.211-.043-51.632-.932-53.07-.363-.587-35.545-1.198-91.377-1.586-49.934-.347-108.776-.755-130.762-.906l-39.975-.275-.268-3.5c-.644-8.402-6.686-28.629-9.259-31-.299-.275-1.76-2.379-3.248-4.675-8.866-13.683-27.234-26.002-42.82-28.718-9.651-1.682-20.507-2.138-26.486-1.113l-4.03.691-2.38-5.342c-2.946-6.616-11.634-24.851-22.793-47.843-4.672-9.625-8.452-18.625-8.401-20 .051-1.375.367-4.807.702-7.626.665-5.606.625-5.715-10.171-28.03-2.968-6.136-5.397-11.465-5.397-11.843 0-1.432-4.136-5.86-6.762-7.238-6.028-3.164-13.642-.756-17.985 5.689-2.273 3.374-3.006 8.465-1.364 9.48.489.302 1.168 1.66 1.509 3.019 1.259 5.016 15.634 34.816 17.961 37.234.628.652 3.376 2.056 6.107 3.12 2.732 1.063 5.283 2.555 5.67 3.314.387.76 2.495 5.206 4.685 9.881 3.461 7.39 6.339 13.527 15.271 32.566 1.05 2.236 1.908 4.561 1.908 5.166 0 .606.337 1.251.75 1.435.956.425 9.25 17.038 9.25 18.528 0 .614-2.934 2.489-6.52 4.167-21.617 10.116-36.642 31.262-39.131 55.07l-.634 6.068H184V233.262l3.75-.62c2.063-.341 5.787-.625 8.277-.631 5.978-.015 32.488-3.668 37.098-5.113 2.614-.819 4.567-.838 7-.07 3.734 1.179 20.826 3.066 36.604 4.04 8.323.514 10.957.323 14.136-1.028 2.148-.914 4.209-2.151 4.58-2.75.37-.6 2.192-1.09 4.049-1.09 4.461 0 8.079-1.446 8.887-3.551.94-2.448-2.325-7.467-6.927-10.649-3.504-2.422-4.884-2.737-12.121-2.767-4.491-.018-8.316.347-8.5.812-.183.465-1.494 1.13-2.913 1.477-2.047.5-3.37-.092-6.395-2.863-2.098-1.921-4.898-3.766-6.224-4.098-3.083-.774-9.681.279-10.126 1.615-.526 1.578-2.175 1.212-2.175-.483 0-2.086-13.048-15.181-16.396-16.453-3.473-1.321-11.678-1.342-15.104-.04-1.446.55-4.852 3.281-7.568 6.07l-4.939 5.07-2.631-2.07c-1.448-1.138-3.471-2.07-4.497-2.07-3.309 0-2.021-2.078 5.802-9.362a1196.627 1196.627 0 0 0 15.882-15.138c4.518-4.4 11.756-11.334 16.083-15.408 4.327-4.075 12.819-12.175 18.87-18 6.051-5.826 20.653-19.817 32.449-31.092 11.796-11.275 25.52-24.45 30.498-29.278l9.051-8.778 77.545.278c90.849.326 82.955-.741 82.955 11.207v7.382l-6.25 2.95c-7.675 3.622-17.341 10.831-22.731 16.955-2.224 2.526-4.202 4.411-4.396 4.189-.195-.223-1.446-2.396-2.781-4.829-1.335-2.434-4.135-5.807-6.223-7.497-3.377-2.733-4.654-3.111-11.555-3.425-6.645-.301-8.557.013-13.313 2.188-3.054 1.397-7.659 4.587-10.233 7.089l-4.68 4.548-3.169-2.33c-5.314-3.906-9.717-5.15-18.186-5.136-6.896.011-8.845.43-13.942 3-5.926 2.987-15.748 11.996-20.541 18.841-2.653 3.789-3.505 3.884-9.404 1.044-3.369-1.622-9.197-1.852-10.096-.398-.34.55-1.474 1-2.52 1s-4.457 2.081-7.58 4.625l-5.678 4.625-6.611-1.279c-9.07-1.755-22-2.346-24.525-1.122-1.147.556-3.858 1.556-6.023 2.221-4.266 1.31-13.563 9.798-13.563 12.382 0 3.901 7.354 7.531 15.28 7.542 2.079.003 6.579 1.191 10 2.638 6.142 2.6 6.419 2.624 22.22 1.922 8.8-.391 18.475-1.11 21.5-1.598 3.025-.488 9.55-1.359 14.5-1.935 4.95-.576 13.171-1.8 18.268-2.721 8.706-1.572 9.921-1.569 20 .047 5.903.947 17.874 2.112 26.603 2.588l15.871.867 5.629 5.445c8.131 7.865 10.995 10.335 16.831 14.522 2.861 2.052 5.224 4.047 5.25 4.433.026.387-2.245 2.996-5.047 5.798l-5.096 5.095-4.697-4.297c-5.72-5.235-15.27-12.845-20.112-16.027-1.375-.904-5.425-3.694-9-6.201-6.85-4.803-10.948-5.681-16.562-3.546-3.24 1.231-13.341 11.388-15.436 15.521-.825 1.625-1.817 3.194-2.206 3.487-1.518 1.14-4.169 12.844-4.544 20.055-.451 8.682 1.4 13.439 6.124 15.742 3.196 1.558 9.898.751 11.689-1.407 1.359-1.638 7.193-1.889 9.924-.428 1.022.547 5.83 1.647 10.684 2.445 4.855.798 9.952 1.682 11.327 1.964 1.375.282 4.683.791 7.35 1.131l4.85.619-.657 8.673c-.554 7.318-.281 10.159 1.751 18.174 1.325 5.225 3.363 11.075 4.529 13a202.698 202.698 0 0 1 3.759 6.5c.9 1.65 4.549 5.764 8.107 9.141l6.47 6.142-5.708 15.858c-3.139 8.723-6.325 17.277-7.079 19.01-.755 1.733-1.372 3.644-1.372 4.246 0 1.323-3.757 12.802-5.107 15.603-.801 1.663-1.951 2-6.823 2-4.178 0-6.415.502-7.794 1.75-2.339 2.117-4.624 2.241-6.204.336-.646-.777-3.137-2.336-5.536-3.464-3.344-1.572-4.517-2.761-5.031-5.098-.396-1.803-2.101-4.14-4.178-5.723-4.113-3.138-5.698-2.601-8.877 3.006l-2.049 3.615-2.951-1.948c-1.622-1.071-5.137-3.528-7.809-5.46-7.86-5.684-10.086-4.703-10.179 4.486-.03 3.025-.439 6.338-.909 7.362-.761 1.661-.521 1.79 2.21 1.19l3.063-.673-.545 4.061c-.299 2.233-.242 4.06.127 4.06.797 0 7.357-3.502 9.823-5.244 1.407-.993 2.041-.912 3.382.429 1.535 1.535 1.501 1.894-.481 5.101-3.67 5.939-2.26 6.304 5.264 1.363 4.613-3.029 11.604-5.458 11.604-4.032 0 .312-.9 1.712-2 3.11-1.1 1.399-2 3.193-2 3.987 0 2.022 5.181.782 9.783-2.342 1.963-1.332 4.048-2.262 4.634-2.066.63.21 1.068 3.531 1.074 8.139l.009 7.784 3.908 3.378c2.149 1.858 5.425 3.926 7.279 4.597 3.341 1.208 3.365 1.261 2.593 5.758-.429 2.496-.772 9.263-.763 15.038.014 8.774.367 11.157 2.146 14.5 4.975 9.341 12.237 13.279 22.613 12.263 4.751-.466 5.632-.21 9.724 2.824 10.269 7.614 22.742 10.538 36.107 8.464 15.766-2.446 29.47-13.863 35.313-29.42 2.172-5.783 2.572-8.471 2.529-17-.029-5.572-.447-13.056-.931-16.631-4.731-34.96-7.475-51.923-8.979-55.5-.463-1.1-1.602-5.825-2.532-10.5-.93-4.675-2.156-10.759-2.725-13.521l-1.033-5.021 6.931-6.979c7.446-7.496 10.48-12.247 14.357-22.479 2.256-5.953 2.463-7.89 2.463-23.032 0-17.693-.094-18.148-6.349-30.854-2.452-4.982-11.202-14.979-17.189-19.639-3.807-2.963-6.389-7.448-5.055-8.782 1.369-1.369 1.433-6.365.093-7.193-1.988-1.229-1.095-4.497 1.25-4.573 1.237-.04 20.7-.459 43.25-.931 90.523-1.894 174.564-5.234 174.468-6.934-.21-3.717-13.956-11.22-24.298-13.263-11.677-2.308-44.317-.661-47.17 2.379-.704.75.48.881 4 .444 18.006-2.241 48.5-1.388 48.5 1.356 0 .425 1.281 1.028 2.847 1.341 2.908.582 10.034 4.675 10.111 5.808.023.345-12.895.931-28.708 1.302-15.812.372-34.15 1.077-40.75 1.567-6.6.491-28.65 1.148-49 1.46-20.35.313-49.847.827-65.55 1.144l-28.549.575-1.092-2.397c-.7-1.536-2.567-2.838-5.201-3.627L511 147.92V89.728l4.649.637c2.557.351 5.145 1.032 5.75 1.514.606.482 2.169 1.204 3.475 1.605 3.985 1.224 14.265 8.669 21.106 15.284 4.423 4.278 6.964 6.053 8.001 5.59.835-.373 4.713-.877 8.616-1.119 6.098-.38 7.86-.081 12.513 2.12 6.076 2.874 12.573 8.846 16.658 15.313 2.601 4.118 5.391 5.497 6.732 3.328.34-.55 2.885-1 5.655-1 5.213 0 9.566 2.131 13.002 6.364 1.646 2.028 1.696 2.015 7.541-1.996 3.235-2.22 8.082-4.787 10.77-5.703 5.156-1.756 16.532-2.289 16.532-.773 0 .49 1.037 1.152 2.305 1.47 1.268.318 4.433 2.676 7.034 5.241 2.601 2.564 4.923 4.468 5.159 4.232 1.197-1.196-7.506-9.874-11.998-11.965-5.37-2.499-16.154-3.183-18.683-1.186-.724.572-2.539 1.332-4.032 1.688-1.493.357-4.709 1.994-7.145 3.638-2.437 1.645-4.75 2.99-5.141 2.99s-2.559-1.463-4.817-3.25c-3.853-3.05-4.577-3.245-11.738-3.165-7.442.083-7.684.008-9.746-3-6.03-8.798-13.567-14.686-21.228-16.583-6.278-1.555-5.823-1.532-12.725-.626l-6.256.822-7.834-7.349c-4.309-4.042-10.925-9.055-14.701-11.14-6.114-3.376-8.602-4.301-17.204-6.395-2.097-.51-2.25-1.084-2.25-8.431V70h182.954l1.75-2.75c.962-1.513 2.111-3.01 2.552-3.327.89-.64.257-12.283-.757-13.924-.352-.571-.193-2.492.354-4.269.547-1.776 1.292-6.717 1.656-10.98l.662-7.75H513.77l-3.145-3.434C506.94 19.544 503.402 18 497.869 18c-4.751 0-7.174 1.123-11.869 5.499l-3.5 3.263-149.25.654L184 28.07V14.035C184 4.981 183.631 0 182.96 0c-.573 0-2.322.947-3.888 2.105-3.391 2.507-12.704 4.858-19.332 4.879-3.84.013-5.723-.661-9.74-3.484-2.739-1.925-5.322-3.486-5.74-3.469-.418.018-1.6 1.185-2.628 2.595Zm7.963 4.874c3.285 2.229 9.826 3.413 13.905 2.517.55-.121 3.584-.461 6.742-.756 3.158-.296 6.251-1.15 6.873-1.899C181.142 2.509 181-7.995 181 294.5V583h-39.781l-.596-19.25c-1.014-32.805-1.807-75.323-2.3-123.25-.816-79.349-2.216-308.321-2.271-371.317-.052-60.292-.051-60.318 1.99-59.67 1.482.471 2.6-.059 4.073-1.932 2.504-3.183 2.903-3.187 7.48-.081Zm353.661 15.524 2.172 2.024-2.743 2.543c-4.067 3.772-8.505 4.069-12.131.813-2.825-2.536-2.868-2.701-1.059-4.024 1.038-.759 2.701-1.38 3.696-1.38.995 0 1.809-.45 1.809-1 0-1.797 6.031-1.049 8.256 1.024Zm7.337 7.489c.744 2.966-.585 4.826-5.808 8.123-4.708 2.971-5.195 2.953-6.654-.248-1.289-2.828-.132-5.388 2.436-5.388.727 0 2.584-1.111 4.127-2.468 3.586-3.155 5.11-3.159 5.899-.019Zm184.82 4.901c-.401 2.797-.77 10.261-.821 16.586-.051 6.325-.456 12.063-.901 12.75-.637.985-19.995 1.25-91.25 1.25-55.846 0-90.441-.36-90.441-.941 0-.518.444-1.215.987-1.551.542-.335 1.931-3.721 3.086-7.524 2.096-6.9 2.257-15.317.424-22.228l-.728-2.743 76.366-.282c42.001-.155 82.585-.309 90.186-.342l13.821-.06-.729 5.085Zm-204.135-1.495c3.016 3.584 6.185 13.116 5.416 16.291-1.98 8.176-2.771 10.416-4.486 12.713l-1.924 2.577-32.392-.03c-17.816-.016-86.729-.129-153.142-.25L184 65V32.029l30.25-.264c16.637-.146 85.212-.39 152.389-.542l122.138-.277 2.501 2.973ZM132 48.517v16.517l-35.25-.047c-35.266-.047-49.094-.622-48.238-2.006.251-.406 2.038-1.489 3.972-2.406C54.418 59.657 56 58.535 56 58.08c0-.454-2.26-1.043-5.022-1.308-2.762-.265-5.35-.816-5.75-1.223-.4-.407 1.501-2.678 4.225-5.047 4.294-3.734 4.777-4.52 3.628-5.905-.729-.878-1.924-1.597-2.654-1.597-.731 0-3.601-.487-6.378-1.083-5.328-1.143-5.901-2.136-4.419-7.667l.603-2.25H132v16.517Zm19.483-14.03c-3.955 2.015-5.599 4.804-5.665 9.61-.077 5.57 1.868 9.529 5.524 11.245 4.526 2.125 5.707 2.217 9.925.777 4.575-1.561 6.733-5.265 6.733-11.554 0-8.551-8.879-13.969-16.517-10.078ZM155 40c0 2.667-.333 3-3 3-3.617 0-3.977-2.075-.75-4.326C154.463 36.433 155 36.622 155 40Zm8.04-.812c1.628 1.203 2.96 2.553 2.96 3 0 1.021-6.995 1.083-7.014.062-.007-.412-.285-1.763-.616-3-.772-2.881.829-2.902 4.67-.062ZM313 38.637c-4.267.552-26.176 5.354-27.138 5.948-1.179.729-15.012 3.484-22.362 4.453-8.778 1.158-63.327 3.13-67.161 2.428-3.045-.558-6.305.904-4.973 2.23 1.219 1.213 70.283.829 71.84-.4.712-.562 4.219-1.308 7.794-1.657 3.575-.35 8.75-1.278 11.5-2.062 7.282-2.076 18.189-4.647 24.5-5.777 6.3-1.127 38.982-.547 41.045.728.754.466 2.289.949 3.413 1.073 1.923.213 11.043 1.89 27.042 4.971 3.85.742 8.661 1.366 10.691 1.388 2.03.022 3.969.49 4.309 1.04.758 1.227 24.16 1.359 24.913.141.292-.472 3.059-1.156 6.15-1.519 3.104-.365 6.357-1.399 7.268-2.31 1.532-1.532 1.437-1.595-1.341-.887-5.499 1.402-17.9 2.248-26.99 1.841-10.191-.456-15.724-1.246-30-4.281-21.599-4.592-24.168-5.125-29-6.022-5.937-1.102-26.527-1.969-31.5-1.326Zm201 3.84c0 2.722-.617 3.732-3.25 5.32-1.788 1.078-4.937 2.26-7 2.627l-3.75.667v-3.546c0-2.708.413-3.546 1.75-3.549.962-.003 3.745-1.328 6.184-2.946 2.438-1.618 4.801-2.714 5.25-2.437.449.278.816 2.017.816 3.864ZM155 50c0 3.713-3.079 4.153-5.443.777C147.302 47.559 147.59 47 151.5 47c3.222 0 3.5.238 3.5 3Zm11-2.18c0 1.088-4.745 5.18-6.008 5.18-.545 0-.992-1.35-.992-3 0-2.762.278-3 3.5-3 1.925 0 3.5.369 3.5.82Zm347 6.098c0 3.546-4.878 6.988-11.082 7.82-4.013.538-4.024.531-3.334-2.349.989-4.128.944-4.091 5.904-4.835 2.481-.372 4.512-1.066 4.512-1.542s.788-1.071 1.75-1.323c.962-.251 1.862-.509 2-.573.138-.064.25 1.197.25 2.802Zm-5.646 12.68C504.383 68.954 501.157 70 496.862 70c-3.278 0-3.948-.319-3.676-1.75.259-1.361 1.533-1.818 5.737-2.058 2.972-.169 6.341-.964 7.485-1.766 2.68-1.876 3.545.11.946 2.172ZM158.312 96.75c.303 17.463 1.007 33.55 1.565 35.75.557 2.2 1.657 6.7 2.443 10s1.968 7.35 2.628 9c1.526 3.819 2.777 51.482 1.312 50-.543-.55-1.514-3.169-2.156-5.821-1.26-5.2-4.563-11.032-7.974-14.084-2.74-2.451-2.828-.384-.144 3.386 5.372 7.544 6.428 11.79 6.472 26.019.044 14.183-1.027 19.164-4.523 21.035-2.803 1.5-4.639.168-5.303-3.846-1.014-6.135-.73-9.214.911-9.844.848-.325 2.456-2.384 3.574-4.574 2.385-4.675 2.769-17.148.674-21.881-3.119-7.046-9.286-.724-10.693 10.962-1.46 12.126 1.505 31.001 5.243 33.38 4.437 2.823 11.133-1.159 12.159-7.231.969-5.736 2.954-6.512 2.1-.821-.995 6.634-4.512 15.883-11.151 29.32l-5.929 12-.315-4.75c-.535-8.073-2.205-5.233-2.205 3.75 0 4.675.338 8.494.75 8.488 1.097-.018 4.262-5.288 9.303-15.488 2.446-4.95 4.672-9.225 4.947-9.5.825-.825 4.983-11.055 7.316-18 2.086-6.209 2.173-7.911 1.934-38-.261-33.015-1.277-43.616-5.409-56.453-1.071-3.326-2.209-9.872-2.53-14.547-.32-4.675-.927-8.95-1.347-9.5-.42-.55-1.093-12.137-1.496-25.75-.447-15.145-1.114-24.75-1.719-24.75-.642 0-.795 11.128-.437 31.75Zm147.491-27.28c.347.346-3.707 4.77-9.007 9.83-11.547 11.023-25.529 24.472-43.811 42.14-10.997 10.627-43.418 41.77-60.965 58.56-2.011 1.925-4.639 4.357-5.839 5.405L184 187.31V67.862l60.587.489c33.323.269 60.87.773 61.216 1.119Zm17.136 1.165c.241.225-2.009 2.694-5 5.486-2.992 2.792-10.858 10.32-17.482 16.728-20.705 20.03-54.846 52.67-77.41 74.005-1.951 1.845-11.099 10.62-20.328 19.5-9.23 8.88-17.218 16.296-17.75 16.479-.548.189-.969-2.048-.969-5.146 0-5.091.266-5.709 3.75-8.712 2.063-1.778 10.062-9.362 17.776-16.854a7427.953 7427.953 0 0 1 29.683-28.621c15.196-14.558 43.835-42.147 66.291-63.859l11-10.636 5 .611c2.75.335 5.197.794 5.439 1.019ZM507 74.312c0 2.103-5.647 5.688-8.96 5.688-2.512 0-3.04-.402-3.04-2.318 0-1.998.723-2.458 5.25-3.345 2.888-.565 5.587-1.097 6-1.182.413-.085.75.435.75 1.157Zm0 9.739c0 2.536-.585 3.296-3.468 4.5-1.907.797-4.607 1.449-6 1.449-2.034 0-2.532-.492-2.532-2.5 0-1.556.567-2.5 1.5-2.5.825 0 1.5-.45 1.5-1s1.013-1.007 2.25-1.015c1.237-.009 2.925-.452 3.75-.985 2.428-1.569 3-1.178 3 2.051Zm0 10.923c0 3.441-3.84 6.026-8.95 6.026-2.787 0-3.05-.286-3.05-3.318 0-3.204.178-3.352 5.25-4.345 2.888-.565 5.587-1.097 6-1.182.413-.085.75 1.183.75 2.819ZM491 121.5c0 23.984-.226 28.5-1.423 28.5-.783 0-2.761 1.125-4.395 2.5-1.698 1.429-4.233 2.5-5.918 2.5-2.598 0-3.097-.5-4.213-4.225-1.291-4.307-4.159-10.867-11.136-25.466-2.153-4.505-3.915-8.845-3.915-9.646 0-1.72 14.804-15.891 18.761-17.959a496.222 496.222 0 0 0 5.739-3.061c6.765-3.677 6.5-4.772 6.5 26.857Zm-45.227-21.257c2.47 1.234 4.954 3.259 5.52 4.5.565 1.242 1.406 2.257 1.868 2.257.461 0 .839.463.839 1.028 0 .566 2.204 5.628 4.898 11.25 5.83 12.166 8.102 17.276 8.102 18.222 0 .384.64 2.116 1.421 3.849 2.853 6.326 10.085 29.479 9.417 30.147-.248.248-3.341-5.275-6.874-12.273-6.439-12.757-8.538-16.324-12.773-21.707-1.947-2.476-3.122-2.956-8.122-3.317-4.91-.356-6.174-.094-7.901 1.633-4.283 4.283-3.741 14.023 1.077 19.365 1.24 1.375 5.18 5.82 8.755 9.877 3.575 4.057 7.583 8.405 8.907 9.661 1.323 1.257 2.119 2.572 1.768 2.923-1.768 1.768-23.265-17.189-39.59-34.913-12.993-14.106-14.481-17.475-11.665-26.408 4.399-13.956 22.063-22.231 34.353-16.094ZM507 105.385c0 2.831-3.652 5.522-8.581 6.322-3.366.546-3.419.499-3.419-3.076 0-3.415.193-3.635 3.25-3.701 1.788-.039 4.15-.457 5.25-.93 3.1-1.332 3.5-1.174 3.5 1.385Zm-108.066 1.769c7.753 3.657 7.974 4.029 7.344 12.351-.51 6.747-.33 7.731 2.211 12.066 1.521 2.596 4.621 6.729 6.888 9.185l7.485 8.104 3.362 3.64-4.862.264c-2.674.145-12.737-.656-22.362-1.781-21.239-2.482-19.201-2.449-32-.525-5.775.868-16.35 2.246-23.5 3.062-7.15.816-14.919 1.933-17.264 2.482-2.346.549-9.898.998-16.784.998-11.56 0-12.918-.203-17.735-2.648-3.455-1.754-7.091-2.723-10.767-2.87-3.053-.121-6.54-.535-7.75-.919-5.038-1.598-.744-9.179 7.384-13.036 6.905-3.276 31.882-2.875 36.044.58.906.752 2.589-.274 6.268-3.82 3.282-3.163 6.867-5.471 10.317-6.642 5.157-1.75 5.401-1.745 9.927.198 2.552 1.095 4.941 2.479 5.309 3.074 1.153 1.866 2.198 1.216 5.088-3.167 5.839-8.853 18.328-19.385 25.963-21.893 4.699-1.544 14.848-.867 19.434 1.297ZM507 115.98c0 2.464-.685 3.329-3.96 5-6.082 3.103-8.04 2.742-8.04-1.48 0-2.762.397-3.5 1.885-3.5 1.037 0 3.4-.657 5.25-1.461 4.632-2.011 4.865-1.942 4.865 1.441Zm-.187 11.127c-.273 2.714-.947 3.347-5.313 4.999-2.75 1.041-5.337 1.893-5.75 1.893-.413.001-.75-1.557-.75-3.46 0-3.235.279-3.534 4.25-4.554 2.337-.601 4.7-1.258 5.25-1.46 2.229-.818 2.613-.389 2.313 2.582Zm.187 10.944c0 3.166-2.179 4.658-9.25 6.335-2.642.627-2.75.499-2.75-3.259 0-3.86.062-3.924 4.75-4.901 7.221-1.505 7.25-1.497 7.25 1.825Zm-50.082.375c2.876 2.603 18.169 34.49 16.808 35.048-.124.051-1.465.717-2.98 1.48-2.529 1.275-2.968 1.191-5.389-1.033-1.449-1.332-6.016-6.471-10.147-11.421-4.131-4.95-7.876-9.241-8.322-9.535-1.297-.856-3.888-7.684-3.888-10.244 0-1.289.965-3.379 2.144-4.645 1.756-1.885 2.854-2.205 6.077-1.773 2.164.29 4.728 1.245 5.697 2.123ZM507 147.465c0 2.097-3.227 3.535-7.934 3.535-2.948 0-4.066-.413-4.066-1.5 0-1.011 1.059-1.523 3.25-1.57 1.788-.039 4.15-.457 5.25-.93 2.909-1.25 3.5-1.171 3.5.465Zm-11.449 5.74c2.315 1.055 2.574 1.636 2.083 4.664-.788 4.853-1.812 5.557-6.05 4.159-4.286-1.415-6.118-4.161-4.631-6.941 1.688-3.153 4.471-3.762 8.598-1.882Zm20.971.819c1.779 1.966 1.773 2.104-.201 4.75-2.962 3.971-4.933 3.979-5.598.023-.304-1.813-.864-4.084-1.245-5.047-1.024-2.588 4.653-2.367 7.044.274Zm-9.951 3.404c.902 3.593-.379 6.486-3.184 7.19-3.349.84-3.649.311-2.848-5.026.595-3.969 1.009-4.592 3.055-4.592 1.673 0 2.547.713 2.977 2.428Zm-23.61 2.761c2.277 2.444 2.509 3.403 1.039 4.311-.55.34-1 1.941-1 3.559 0 3.105-1.393 3.964-2.357 1.453-.314-.818-.87-3.743-1.236-6.5-.743-5.6.24-6.381 3.554-2.823Zm-71.984 6.999c2.142 4.434 2.644 10.685 1.089 13.576-.513.955-1.414 3.851-2.001 6.435-2.241 9.859-12.849 23.439-20.89 26.74-3.142 1.291-3.472 1.219-6-1.312-2.47-2.472-2.674-3.309-2.659-10.902.021-10.334 1.804-15.502 9.394-27.225 5.034-7.775 9.977-11.5 15.261-11.5 3.452 0 3.959.365 5.806 4.188Zm79.659-1.694c1.575.821 3.877 1.496 5.114 1.5 1.331.003 2.25.619 2.25 1.506 0 1.152-1.278 1.5-5.5 1.5-5.444 0-5.5-.03-5.5-3 0-3.486-.089-3.449 3.636-1.506Zm27.891-.45c.743 1.203-2.09 5.956-3.55 5.956-1.092 0-1.351-5.292-.31-6.333 1.007-1.008 3.133-.8 3.86.377ZM510 169c0 2.086-1.63 2.474-5.75 1.37-4.197-1.125-2.184-2.753 4-3.234 1.129-.088 1.75.574 1.75 1.864Zm-84.114 6.699c11.543 9.243 21.114 18.332 21.114 20.05 0 1.842-1.812 1.533-5.868-.999-6.356-3.968-7.557-4.66-11.632-6.702-5.745-2.879-9.667-2.629-13.394.853-1.708 1.596-3.106 3.621-3.106 4.5 0 .88-.45 1.599-1 1.599-1.306 0-1.292-.111.708-5.715 1.065-2.983 1.723-7.891 1.75-13.034.023-4.537.441-8.249.928-8.25.487 0 5.212 3.463 10.5 7.698Zm85.22.606c1.867.845 4.519 1.855 5.894 2.246 8.37 2.375 22.106 15.719 26.199 25.449 1.04 2.475 2.398 5.4 3.017 6.5.619 1.1 1.329 6.525 1.577 12.056.397 8.835.146 10.959-2.067 17.5-1.385 4.094-3.577 9.44-4.872 11.88-2.651 4.997-15.178 18.064-17.317 18.064-.767 0-2.006.612-2.754 1.359-2.576 2.577-11.239 5.725-18.554 6.742-11.138 1.549-24.143-.928-32.229-6.139-.825-.532-2.589-1.434-3.919-2.004-4.538-1.945-15.441-14.189-18.239-20.481-6.586-14.812-7.493-25.149-3.353-38.253 3.9-12.345 11.841-22.701 22.546-29.402 3.069-1.921 14.501-6.491 17.965-7.182 5.05-1.008 22.686.118 26.106 1.665Zm-78.341 15.445c3.154 2.063 6.32 4.303 7.034 4.978.715.675 2.029 1.636 2.919 2.134 1.49.834 1.486 1.189-.049 4.423-.918 1.935-1.669 4.012-1.669 4.616 0 .605-.653 1.099-1.451 1.099-2.853 0-11.752-2.224-14.376-3.593-1.47-.767-3.424-1.397-4.341-1.401-.918-.003-2.669-1.624-3.891-3.601-2.128-3.444-2.152-3.738-.582-7.032 3.027-6.347 8.373-6.876 16.406-1.623Zm-197.157-.132c4.245 2.015 13.851 11.661 15.445 15.51 1.391 3.359 3.891 3.697 6.447.872 3.309-3.657 7.965-2.376 14.134 3.888 2.274 2.31 2.547 2.347 8.286 1.129 8.82-1.872 18.017-1.022 21.864 2.02 3.423 2.707 4.905 5.674 3.525 7.054-.489.489-3.122 1.188-5.849 1.552-2.728.364-6.033 1.493-7.345 2.509-3.401 2.635-18.135 2.449-38.115-.483-1.925-.283-6.754-.996-10.732-1.585-6.105-.905-8.83-.769-17.5.87-7.955 1.505-33.523 4.046-40.705 4.046-.68 0-1.053-3.516-1.035-9.75l.028-9.75 5.941-5.886c5.489-5.438 6.208-5.842 9.452-5.316 1.931.313 5.116 1.794 7.078 3.291l3.568 2.721 1.62-2.405c2.699-4.006 10.295-10.758 12.61-11.209 4.652-.906 8.008-.632 11.283.922ZM133 210.855v19.855l-30.75.717c-16.912.395-43.125.484-58.25.198-15.125-.285-29.862-.543-32.75-.572-2.888-.029-5.25-.4-5.25-.824 0-1.424 8.439-5.177 15.302-6.807 4.241-1.007 8.571-1.385 11.5-1.004 2.584.336 6.354.596 8.377.578 2.024-.019 3.963.425 4.309.985 1.171 1.895 3.244 1.034 5.524-2.294 5.514-8.047 14.777-8.717 23.681-1.714 3.365 2.647 4.735 2.557 7.567-.498 2.432-2.623 6.553-3.462 10.443-2.126 1.878.644 2.508.158 4.27-3.297 1.137-2.228 2.509-4.052 3.047-4.052.539 0 .98-.591.98-1.313 0-2.247 5.31-6.463 9.555-7.586 2.776-.735 5.142-.756 7.5-.067 3.727 1.089 3.372 1.336 9.934-6.907 4.696-5.899 5.011-4.848 5.011 16.728Zm22.446-11.44c.739 5.913-.076 12.238-1.706 13.246-.681.42-.858-.922-.519-3.929.405-3.597.224-4.456-.853-4.043-.856.328-1.366-.171-1.362-1.332.008-2.963 2.008-9.357 2.926-9.357.461 0 1.142 2.437 1.514 5.415ZM413.39 202.5c.363 1.1 1.814 2.839 3.224 3.864 2.362 1.717 4.669 2.525 17.386 6.092 4.934 1.384 6.959 4.595 2.823 4.478-6.572-.186-34.823-5.771-34.823-6.884 0-.359 1.84-3.484 4.089-6.946 3.735-5.747 4.201-6.133 5.366-4.449.701 1.015 1.573 2.745 1.935 3.845Zm84.61-.117c0 5.988-.735 6.576-8.25 6.603-3.833.014-5.007 1.318-2.168 2.407.87.334 3.57.607 6 .607 4.367 0 4.418.04 4.418 3.435 0 1.889.467 4.662 1.037 6.163 1.512 3.977 3.175 1.681 3.268-4.512.073-4.821.216-5.086 2.737-5.086 3.337 0 8.958-1.914 8.958-3.05 0-.47-2.812-.989-6.25-1.152l-6.25-.298-.932-5.25c-1.209-6.802-2.568-6.731-2.568.133Zm-16 20.183c0 6.059-1.358 7.462-6.986 7.217-4.606-.2-7.035.53-5.816 1.748.292.292 2.794.799 5.56 1.127l5.029.595-.52 5.737c-.802 8.848 3.268 8.894 4.455.049l.541-4.039 4.619-.015c4.727-.016 8.128-1.308 6.838-2.598-.397-.398-3.197-.928-6.221-1.179l-5.499-.456v-5.876c0-3.251-.447-5.876-1-5.876-.55 0-1 1.605-1 3.566Zm46.983.184c-.016 3.58-.264 3.857-5.453 6.103l-5.436 2.353-.297 5.562c-.287 5.375-.415 5.601-3.797 6.729-2.829.942-3.678 1.869-4.426 4.834-.51 2.018-1.433 3.669-2.051 3.669-.618 0-2.352.563-3.854 1.25-2.192 1.004-2.674 1.825-2.449 4.173.325 3.396 2.78 4.834 2.78 1.629 0-2.154.411-2.427 5.25-3.488 2.402-.526 2.75-1.075 2.75-4.343 0-4.107 1.409-5.493 6.783-6.673 3.081-.677 3.217-.911 3.217-5.538 0-4.724.099-4.879 4.419-6.971 6.387-3.091 7.127-4.272 5.69-9.071-1.501-5.008-3.104-5.12-3.126-.218ZM505 227.778c0 1.54-.891 3.54-2 4.49-3.19 2.732-2.383 3.7 2.75 3.299 5.064-.396 6.585-2.214 3.793-4.531-.849-.705-1.543-2.351-1.543-3.658 0-1.447-.587-2.378-1.5-2.378-.973 0-1.5.975-1.5 2.778ZM447 256c0 .55-.45 1-1 1s-1-.45-1-1 .45-1 1-1 1 .45 1 1Zm4.834 7.94c.227 1.551-.093 2.142-1 1.843-.734-.242-1.484-1.467-1.668-2.723-.227-1.551.093-2.142 1-1.843.734.242 1.484 1.467 1.668 2.723Zm-118.581 1.026c-2.336 1.072-4.963 2.531-5.838 3.242-3.434 2.788-7.217 6.698-7.604 7.858-.311.934-.909.952-2.543.077-3.075-1.645-8.936-1.406-11.819.482-2.358 1.545-2.666 1.496-6.268-1-2.084-1.444-4.525-2.625-5.426-2.625-.9 0-1.915-.45-2.255-1-.34-.55-1.491-1-2.559-1s-1.941.45-1.941 1-.987 1-2.193 1c-1.346 0-4.245 2.118-7.498 5.476-4.773 4.928-5.558 5.38-7.84 4.512-2.676-1.017-4.982-.177-9.085 3.31-1.842 1.566-2.698 1.652-6.616.665-9.346-2.353-21.526 4.879-16.568 9.837.66.66 2.81 1.2 4.777 1.2 1.968 0 4.605.72 5.861 1.599 1.52 1.065 3.517 1.43 5.973 1.093 32.19-4.416 26.97-4.109 54.689-3.218 21.792.7 41.318.091 93-2.9 25.631-1.483 45.507-3.462 45.493-4.528-.004-.3-1.661-1.671-3.683-3.046-3.471-2.361-4.429-2.501-17.243-2.514-11.563-.011-13.976-.288-16.334-1.876-3.437-2.313-10.979-2.334-14.48-.04-1.982 1.299-3.003 1.409-4.924.534-1.333-.607-3.947-1.104-5.809-1.104-2.327 0-3.574-.547-3.989-1.75-1.134-3.285-7.635-6.564-13.256-6.686-3.382-.073-5.675-.658-6.5-1.659-1.279-1.55-5.109-4.189-9.775-6.734-4.246-2.317-12.928-2.417-17.747-.205Zm-168.776-.201C160.061 267.937 156 281.414 156 292.9c0 4.94.374 9.213.831 9.495.457.283 1.4 3.06 2.096 6.171 1.471 6.572.774 12.976-2.1 19.303-3.648 8.028-4.149 20.209-.963 23.395 1.771 1.771 2.235.318 1.015-3.18-1.318-3.783-.602-10.551 1.555-14.684 4.315-8.27 5.066-11.075 5.066-18.934 0-5.699-.543-9.238-1.866-12.172-1.545-3.422-1.796-5.919-1.455-14.465.226-5.681.942-11.229 1.591-12.329.649-1.1 1.955-3.8 2.902-6 .947-2.2 1.896-4.337 2.109-4.75.492-.956-.965-.946-2.304.015Zm188.492 5.26c1.908 1.361 4.825 3.699 6.481 5.194 1.944 1.755 3.356 2.375 3.981 1.75 2.903-2.903 12.457.981 15.131 6.151 1.61 3.112 2.54 3.431 5.46 1.868 1.423-.761 2.682-.531 5.087.932l3.197 1.944 3.579-2.432c4.323-2.937 10.548-3.254 13.393-.682 1.64 1.482 3.974 1.75 15.241 1.75 11.879 0 15.782.532 14.357 1.957-.467.467-20.57 1.874-51.876 3.632-9.625.54-38.698 1.14-64.606 1.334-28.694.215-47.846.742-49 1.35-3.084 1.625-15.787 2.487-25.42 1.725-9.504-.752-10.707-1.62-6.953-5.017 1.636-1.48 3.589-1.81 10.25-1.732 7.015.083 8.556-.207 10.444-1.967 2.316-2.159 6.283-2.744 9.932-1.465 1.762.617 2.543.112 4.352-2.816 5.209-8.428 14.789-11.03 21.174-5.751 1.83 1.512 3.477 3.087 3.66 3.5.553 1.245 2.843.845 4.145-.724 1.999-2.408 7.494-2.936 11.217-1.077l3.305 1.65 3.5-4.023c3.214-3.694 8.645-7.921 12.096-9.414.772-.334 4.329-.496 7.904-.36 5.055.193 7.271.799 9.969 2.723Zm106.088.082c1.768 3.303-.49 4.878-3.051 2.129-1.104-1.184-2.006-2.621-2.006-3.194 0-1.901 3.911-1.078 5.057 1.065Zm70.911 2.643c-.081 1.912-5.219 6.25-7.402 6.25-1.74 0-.152-3.748 2.186-5.159 2.987-1.802 5.267-2.279 5.216-1.091Zm-62.675 2.5c1.576 1.176 1.448 5.784-.16 5.728-1.931-.068-5.379-3.894-4.82-5.35.746-1.945 2.683-2.092 4.98-.378Zm51.124 4.393c.346.904.507 1.728.357 1.832-6.46 4.45-8.774 4.728-8.774 1.054 0-1.93.713-2.678 3.25-3.41 4.516-1.304 4.463-1.309 5.167.524Zm-40.667-.013c2.275.61 2.886 2.82 1.418 5.132-.618.973-1.529 1.008-3.984.152-2.387-.832-3.184-1.711-3.184-3.512 0-2.513 1.387-2.941 5.75-1.772Zm12.125 2.995c2.447.489 3.125 1.14 3.125 3 0 2.151-.428 2.375-4.531 2.375-4.678 0-6.289-1.42-5.107-4.5.633-1.65 1.832-1.811 6.513-.875ZM506 284.383c0 2.531-2.106 3.578-7.25 3.603-2.251.012-2.75-.428-2.75-2.423 0-1.999.583-2.509 3.25-2.84 6.697-.831 6.75-.818 6.75 1.66Zm-34.75 2.924c5.326 2.549 6.855 4.035 5 4.86-.912.405-5.25 9.459-5.25 10.959 0 .589-.653 2.49-1.451 4.223-2.597 5.64-9.243 26.913-11.56 37.005-2.424 10.554-3.053 26.151-1.236 30.646.555 1.375 2.843 4.717 5.084 7.427 4.397 5.32 6.163 10.96 6.163 19.688 0 7.877-2.201 10.818-9.673 12.925-3.76 1.06-4.718.927-9.677-1.343-8.217-3.762-10.924-8.38-11.455-19.543-.418-8.791.972-23.833 2.728-29.523.532-1.722 2.137-8.306 3.568-14.631 1.431-6.325 3.226-13.3 3.989-15.5.763-2.2 2.59-8.05 4.06-13 1.47-4.95 3.252-10.35 3.961-12 .708-1.65 1.612-4.575 2.009-6.5.397-1.925 1.05-3.95 1.453-4.5.402-.55 1.786-4.046 3.076-7.769 1.289-3.724 2.596-6.636 2.903-6.472.307.163 3.145 1.535 6.308 3.048Zm51.624.443c.614 1.512 1.824 6.125 2.689 10.25 9.576 45.661 14.22 81.037 12.276 93.508-1.741 11.169-7.882 21.533-16.036 27.067-2.367 1.606-4.558 3.263-4.869 3.683-.311.42-5.036 1.906-10.5 3.301l-9.934 2.538-9.343-2.142c-5.163-1.184-10.931-3.219-12.89-4.549-1.95-1.323-3.903-2.406-4.339-2.406-1.879 0-1.965-4.142-.14-6.751 3.35-4.789 3.568-13.778.585-24.168-.588-2.048-.418-2.312 1.114-1.724.994.381 5.183.979 9.308 1.327 6.501.55 7.673.396 8.807-1.154 1.101-1.506.998-2.394-.651-5.626-2.698-5.288-12.704-15.767-21.117-22.115l-7.011-5.289.478-5.5c.263-3.025 1.156-7.75 1.984-10.5 5.653-18.771 8.015-26.299 11.297-36 2.047-6.05 3.765-11.073 3.82-11.163.054-.09 3.473.211 7.598.669 9.76 1.084 21.206-.26 28.597-3.358 7.46-3.126 6.964-3.133 8.277.102Zm-30.389 6.156c-3.562 1.512-8.5 7.406-9.684 11.559-.633 2.219-1.546 4.559-2.028 5.2-1.685 2.239-2.804 19.251-1.83 27.824 2.134 18.782 8.722 30.495 17.159 30.507 5.561.008 12.169-7.187 14.376-15.655 3.14-12.048 2.065-40.126-1.861-48.63-4.044-8.757-10.604-13.151-16.132-10.805Zm8.54 6.344c11.768 12.592 12.512 45.868 1.353 60.499-1.364 1.788-3.094 3.251-3.846 3.251-.751 0-1.53.493-1.73 1.095-.625 1.873-7.518-2.949-9.839-6.883-10.528-17.843-4.064-60.212 9.185-60.212 1.587 0 3.674.963 4.877 2.25Zm-115.093 30.687 4.265 3.938-2.563 2.764c-3.046 3.285-4.488 2.461-2.927-1.673 1.294-3.429.354-4.449-3.264-3.541-1.344.337-2.449.267-2.457-.156-.007-.423-.285-1.781-.616-3.019-.974-3.632 2.685-2.816 7.562 1.687Zm20.644 2.813c.811 2.063 1.913 4.531 2.449 5.486 1.383 2.464 1.417 2.432-3.32 3.081-2.363.324-4.951.84-5.752 1.148-.834.32-2.006-.32-2.74-1.495-1.131-1.812-.932-2.405 1.689-5.026 1.635-1.635 3.256-3.866 3.602-4.958.961-3.027 2.441-2.386 4.072 1.764Zm9.36 8.189c1.19.753 1.211 1.178.127 2.485-1.954 2.354-3.813 1.904-3.813-.924 0-2.598 1.227-3.117 3.686-1.561Zm24.723.615c.465 1.213-4.208 23.995-5.176 25.233-.402.515-5.939-2.233-7.696-3.82-.943-.851-2.396-3.18-3.229-5.175-1.405-3.361-1.366-3.988.531-8.552 1.461-3.516 3.1-5.535 5.729-7.059 4.366-2.532 8.997-2.827 9.841-.627Zm27.01 20.946C479.755 373.891 487 381.551 487 383.937c0 2.177-.292 2.295-4.317 1.743-8.26-1.132-15.6-3.999-18.866-7.369-2.964-3.058-3.204-3.845-3.627-11.92-.307-5.834-.11-8.523.605-8.268.582.207 3.675 2.627 6.874 5.377Zm-247.406 27.41c1.827.694 4.803 5.749 12.565 21.342 6.216 12.486 10.172 21.62 10.172 23.487 0 2.241-.936 3.876-3.518 6.143-7.904 6.94-13.604 4.344-19.498-8.882-2.213-4.966-5.871-12.253-11.043-22-4.478-8.438-5.006-10.797-3.243-14.493 2.522-5.288 8.916-7.745 14.565-5.597Zm-63.271 48.687c-.926 10.67-.98 15.984-.201 19.75.586 2.834 1.327 6.756 1.647 8.715.32 1.959 2.133 7.294 4.028 11.855 5.036 12.123 6.92 22.518 6.176 34.083-.787 12.242-1.343 14.23-3.766 13.461-2.345-.745-2.416.886-.154 3.528 2.383 2.782 3.007 2.562 4.917-1.739 1.187-2.674 1.793-7.625 2.112-17.25.536-16.197-.767-23.632-6.219-35.5-.758-1.65-1.7-4.35-2.093-6-.393-1.65-1.173-3.581-1.734-4.291-.574-.728-1.228-9.994-1.499-21.25-.264-10.978-.81-19.959-1.214-19.959-.404 0-1.304 6.569-2 14.597Zm84.178 8.653c.894 1.788 4.093 8.425 7.11 14.75 3.018 6.325 10.039 20.763 15.603 32.085S274 515.969 274 516.335c0 .366-1.012.655-2.25.642-1.894-.019-3.253-2.116-8.589-13.25-3.487-7.275-11.03-22.677-16.764-34.227-5.734-11.55-10.419-21.525-10.411-22.167.012-1.013 1.338-1.997 3.037-2.254.287-.043 1.253 1.383 2.147 3.171Zm-84.542 62.5c-2.044 17.333-1.932 21.038.904 30.036 1.51 4.793 3.108 9.614 3.55 10.714.443 1.1 1.108 4.025 1.48 6.5.747 4.986 2.973 10 4.439 10 .955 0 .651-3.099-1.028-10.5-.499-2.2-1.402-6.579-2.007-9.73-.605-3.152-1.807-7.148-2.671-8.881-1.243-2.492-1.538-6.259-1.41-18.02.134-12.301-.085-14.869-1.268-14.869-.96 0-1.613 1.559-1.989 4.75Zm143.855 6.222c.349.566 1.527 1.028 2.617 1.028 2.688 0 14.478 3.817 19.4 6.281 8.962 4.486 21.589 16.102 25.24 23.219.846 1.65 1.849 3.225 2.228 3.5 2.905 2.109 9.032 20.518 9.032 27.139 0 4.86-.001 4.861-3.395 4.861-3.172 0-3.426-.246-3.868-3.75-2.358-18.708-13.607-34.58-31.237-44.077-8.574-4.618-30.453-8.593-34.762-6.315-1.231.651-3.363 1.136-4.738 1.077-4.133-.175-13.097 2.526-20 6.027-4.245 2.153-8.929 5.782-13.5 10.459-6.165 6.308-8.26 9.5-13.632 20.764-.683 1.432-2.837 12.778-2.86 15.065-.005.413-1.553.75-3.441.75-4.621 0-4.986-1.683-2.669-12.285 2.936-13.436 10.141-26.217 20.051-35.566C253.55 527.035 271.548 518 279.111 518c1.524 0 3.002-.374 3.284-.83.762-1.233 17.336-1.415 18.088-.198Zm4.967 15.093c.522.514 1.669.935 2.548.935 2.263 0 14.621 6.472 19.444 10.184 10.035 7.723 18.859 22.513 20.129 33.742l.655 5.786-4.863.643c-6.171.816-51.221.808-84.113-.014-29.044-.726-26.751.413-23.196-11.521 3.369-11.315 10.47-21.671 19.76-28.82a387.291 387.291 0 0 0 4.493-3.5c2.155-1.732 10.067-5.388 13.193-6.096 1.65-.374 3.459-1.037 4.02-1.473 2.497-1.943 25.934-1.83 27.93.134Zm41.05 55.872c146.503.824 274.797 2.103 275.486 2.748.268.25.656 11.448.864 24.885l.377 24.43H330.113C40.637 640 37 639.976 37 638.059c0-1.068.374-2.172.831-2.454.457-.283 1.407-3.122 2.111-6.309.704-3.188 1.668-6.277 2.142-6.865.473-.588 1.562-4.091 2.418-7.784 1.725-7.437 1.339-10.117-3.072-21.318-1.337-3.393-2.43-6.445-2.43-6.781 0-.336 41.063-.319 91.25.038 50.188.357 147.5.965 216.25 1.351ZM92 598.963c-7.759 1.2-12.469 2.905-16.552 5.994-4.679 3.541-8.539 3.827-12.601.934-4.028-2.868-4.857-1.554-1.337 2.119 2.381 2.486 3.653 2.99 7.542 2.99 3.038 0 5.515-.652 7.063-1.859 6.966-5.428 8.084-5.641 29.635-5.641 11.138 0 20.25-.278 20.25-.617 0-.34-2.363-1.155-5.25-1.811-13.285-3.018-19.788-3.495-28.75-2.109Zm353.253 2.074c-8.655 1.085-12.799 3.018-13.637 6.359-1.35 5.379 2.739 10.147 9.656 11.26 2.075.334 4.027 1.018 4.338 1.521.65 1.052-9.555-.033-11.11-1.181-.55-.406-3.363-1.331-6.25-2.056-2.887-.725-5.25-1.683-5.25-2.129 0-.446-.466-.811-1.035-.811-.57 0-5.255-2.025-10.412-4.5-5.157-2.475-9.866-4.5-10.464-4.5-.599 0-1.089-.45-1.089-1s1.575-1 3.5-1 3.5-.45 3.5-1c0-.583-3.333-1-8-1-4.4 0-8 .367-8 .815 0 .448 3.938 2.811 8.75 5.25 4.813 2.439 9.345 4.998 10.071 5.685.727.688 1.768 1.25 2.312 1.25.545 0 3.55 1.169 6.679 2.598 10.832 4.947 11.834 5.322 16.023 5.992 2.315.37 4.451 1.064 4.746 1.541.793 1.284 52.295 1.075 63.919-.259 5.5-.631 12.925-1.792 16.5-2.58 28.723-6.331 27.449-6.173 55.75-6.905 25.166-.651 32.198-1.425 24-2.643-3.667-.544-49.034-.033-58.25.656-5.889.441-8 .908-12 2.655-7.645 3.339-28.71 5.605-54.309 5.841-11.059.102-14.147-1.008-6.299-2.263 6.872-1.099 18.108-7.518 18.108-10.346 0-.782-1.937-.077-5.05 1.839-2.778 1.709-5.361 2.796-5.742 2.416-.38-.381.092-1.131 1.05-1.667.958-.536 1.742-2.037 1.742-3.335 0-5.599-16.147-8.711-33.747-6.503Zm25.165 4.493c2.015.842 3.393 1.967 3.063 2.5-.848 1.373-16.196 1.24-17.054-.148-.479-.776.572-.997 3.441-.723 4.334.413 4.916.025 2.932-1.959-1.782-1.782 3.066-1.572 7.618.33Zm-327.375 3.416c-1.719 2.17-3.969 4.213-5 4.54-1.646.523-10.376-.699-25.043-3.506-8.493-1.625-16.228-1.157-20.998 1.27-8.262 4.205-8.512 11.894-.474 14.575 4.539 1.514 19.081 1.655 22.851.221 3.108-1.182 5.856-6.062 4.563-8.105-1.706-2.697-.947-3.202 3.808-2.533 12.648 1.78 14.432 1.832 16.924.499 2.221-1.189 8.326-8.769 8.326-10.337 0-1.618-2.176-.136-4.957 3.376Zm306.302-2.489c.308.802 2.372 2.602 4.587 4 3.418 2.158 5.201 2.543 11.762 2.543 7.094 0 7.602.133 6.133 1.602-2.561 2.561-21.105 3.188-28.002.947-10.024-3.256-12.147-7.979-4.075-9.066 2.613-.352 5.2-.794 5.75-.983 2.14-.732 3.308-.442 3.845.957Zm-203.21 9.766-9.67 4.902-16.196-.011c-8.908-.005-17.788-.308-19.733-.673-4.24-.796-4.998 1.219-.786 2.089 1.512.313 4.537 1.102 6.722 1.753 2.185.651 9.861 1.184 17.06 1.184h13.087l10.211-5.234c9.797-5.02 10.536-5.233 18.191-5.233 4.549 0 7.979-.422 7.979-.981 0-1.308-3.178-2.007-10.848-2.385-5.909-.29-7.016.027-16.017 4.589ZM99.491 615.01c-1.586 1.753-1.648 2.328-.486 4.5 1.105 2.065 2.072 2.49 5.664 2.49 2.382 0 4.331-.45 4.331-1s-1.575-1-3.5-1c-5.056 0-4.422-2.339 1.029-3.797 3.873-1.035 4.887-.976 7 .408 3.446 2.258 3.084 4.106-1.151 5.876-7.246 3.027-21.533.949-22.176-3.225-.368-2.39 1.79-4.275 6.054-5.287 4.983-1.183 5.184-1.119 3.235 1.035Z" fill="#000"/></svg>