<svg width="740" height="644" fill="none" xmlns="http://www.w3.org/2000/svg"><path fill-rule="evenodd" clip-rule="evenodd" d="M141.632 2.626c-1.855 2.545-3.51 2.733-7.882.896-1.613-.678-1.75.251-1.75 11.871V28l-44.25.188c-54.065.229-49.435.105-50.69 1.356-.576.574-1.338 3.826-1.694 7.227-.505 4.833-.342 6.273.744 6.589L42 45.068c2.475.717 4.7 1.457 4.943 1.645.601.461-5.837 6.287-6.948 6.287-1.268 0-4.009 4.169-3.394 5.163.284.46 2.29.837 4.458.837S45 59.45 45 60s-.499 1-1.108 1C41.605 61 33 65.538 33 66.744c0 1.211 25.441 1.598 82.764 1.258 11.655-.069 15.371.216 15.716 1.204.635 1.823 1.133 115.74.507 116.044-.282.138-2.908 2.993-5.836 6.345-5.317 6.088-5.328 6.094-10.061 5.64-7.73-.743-15.228 4.067-20.342 13.05-1.872 3.287-2.512 3.706-4.871 3.188-2.869-.63-10.877 2.718-10.877 4.547 0 1.669-1.719 1.102-6.552-2.16-6.451-4.354-13.567-4.532-18.889-.473-2.033 1.551-4.185 3.892-4.782 5.203-.96 2.108-1.562 2.318-5.182 1.816-2.252-.313-5.339-1.039-6.86-1.615-4.195-1.587-17.388-.429-24.377 2.14C7.587 225.053 0 230.771 0 232.998c0 .551 1.463 1.003 3.25 1.003 1.787.001 7.975.206 13.75.455 5.775.249 34.237.483 63.25.521l52.75.069.087 30.227c.047 16.625.288 39.227.535 50.227.247 11 .86 65.675 1.362 121.5.501 55.825 1.21 111.492 1.574 123.705l.662 22.206-51.61-.617c-37.044-.442-51.61-.308-51.61.477 0 1.066 5.154 15.744 6.928 19.729.49 1.1 1.118 2.723 1.395 3.606.277.884-1.752 8.759-4.51 17.5-2.757 8.742-5.246 16.907-5.53 18.144l-.516 2.25h594.142l.688-3.663c.789-4.211-.043-51.632-.932-53.07-.363-.587-35.545-1.198-91.377-1.586-49.934-.347-108.776-.755-130.762-.906l-39.975-.275-.268-3.5c-.644-8.402-6.686-28.629-9.259-31-.299-.275-1.76-2.379-3.248-4.675-8.866-13.683-27.234-26.002-42.82-28.718-9.651-1.682-20.507-2.138-26.486-1.113l-4.03.691-2.38-5.342c-2.946-6.616-11.634-24.851-22.793-47.843-4.672-9.625-8.452-18.625-8.401-20 .051-1.375.367-4.807.702-7.626.665-5.606.625-5.715-10.171-28.03-2.968-6.136-5.397-11.465-5.397-11.843 0-1.432-4.136-5.86-6.762-7.238-6.028-3.164-13.642-.756-17.985 5.689-2.273 3.374-3.006 8.465-1.364 9.48.489.302 1.168 1.66 1.509 3.019 1.259 5.016 15.634 34.816 17.961 37.234.628.652 3.376 2.056 6.107 3.12 2.732 1.063 5.283 2.555 5.67 3.314.387.76 2.495 5.206 4.685 9.881 3.461 7.39 6.339 13.527 15.271 32.566 1.05 2.236 1.908 4.561 1.908 5.166 0 .606.337 1.251.75 1.435.956.425 9.25 17.038 9.25 18.528 0 .614-2.934 2.489-6.52 4.167-21.617 10.116-36.642 31.262-39.131 55.07l-.634 6.068H184V233.262l3.75-.62c2.063-.341 5.787-.625 8.277-.631 5.978-.015 32.488-3.668 37.098-5.113 2.614-.819 4.567-.838 7-.07 3.734 1.179 20.826 3.066 36.604 4.04 8.323.514 10.957.323 14.136-1.028 2.148-.914 4.209-2.151 4.58-2.75.37-.6 2.192-1.09 4.049-1.09 4.461 0 8.079-1.446 8.887-3.551.94-2.448-2.325-7.467-6.927-10.649-3.504-2.422-4.884-2.737-12.121-2.767-4.491-.018-8.316.347-8.5.812-.183.465-1.494 1.13-2.913 1.477-2.047.5-3.37-.092-6.395-2.863-2.098-1.921-4.898-3.766-6.224-4.098-3.083-.774-9.681.279-10.126 1.615-.526 1.578-2.175 1.212-2.175-.483 0-2.086-13.048-15.181-16.396-16.453-3.473-1.321-11.678-1.342-15.104-.04-1.446.55-4.852 3.281-7.568 6.07l-4.939 5.07-2.631-2.07c-1.448-1.138-3.471-2.07-4.497-2.07-3.309 0-2.021-2.078 5.802-9.362a1196.627 1196.627 0 0 0 15.882-15.138c4.518-4.4 11.756-11.334 16.083-15.408 4.327-4.075 12.819-12.175 18.87-18 6.051-5.826 20.653-19.817 32.449-31.092 11.796-11.275 25.52-24.45 30.498-29.278l9.051-8.778 77.545.278c90.849.326 82.955-.741 82.955 11.207v7.382l-6.25 2.95c-7.675 3.622-17.341 10.831-22.731 16.955-2.224 2.526-4.202 4.411-4.396 4.189-.195-.223-1.446-2.396-2.781-4.829-1.335-2.434-4.139-5.809-6.23-7.5-3.666-2.965-4.152-3.075-13.458-3.051-11.007.028-14.187 1.36-21.941 9.191l-4.287 4.33-3.213-2.363c-5.358-3.941-9.741-5.184-18.23-5.17-6.896.011-8.845.43-13.942 3-5.926 2.987-15.748 11.996-20.541 18.841-2.653 3.789-3.505 3.884-9.404 1.044-3.369-1.622-9.197-1.852-10.096-.398-.34.55-1.474 1-2.52 1s-4.457 2.081-7.58 4.625l-5.678 4.625-6.611-1.279c-9.07-1.755-22-2.346-24.525-1.122-1.147.556-3.858 1.556-6.023 2.221-4.266 1.31-13.563 9.798-13.563 12.382 0 3.901 7.354 7.531 15.28 7.542 2.079.003 6.579 1.191 10 2.638 6.142 2.6 6.419 2.624 22.22 1.922 8.8-.391 18.475-1.11 21.5-1.598 3.025-.488 9.55-1.359 14.5-1.935 4.95-.576 13.171-1.8 18.268-2.721 8.706-1.572 9.921-1.569 20 .047 5.903.947 17.874 2.112 26.603 2.588l15.871.867 6.097 5.849c3.353 3.217 6.336 6.08 6.629 6.363 2.319 2.239 10.972 8.925 12.782 9.875 1.237.65 2.25 1.594 2.25 2.099 0 .504-2.293 3.21-5.095 6.012l-5.096 5.095-4.697-4.297c-5.72-5.235-15.27-12.845-20.112-16.027-1.375-.904-5.425-3.694-9-6.201-6.85-4.803-10.948-5.681-16.562-3.546-3.24 1.231-13.341 11.388-15.436 15.521-.825 1.625-1.787 3.18-2.139 3.455-.351.275-1.64 3.866-2.862 7.98-3.953 13.301-2.323 24.408 4.079 27.803 2.947 1.563 9.659.763 12.094-1.44 1.928-1.745 3.353-1.629 19.326 1.581a5362.46 5362.46 0 0 0 12.5 2.501c1.375.27 4.669.767 7.319 1.105l4.82.613-.638 8.679c-.538 7.304-.255 10.182 1.781 18.178 1.331 5.225 3.375 11.075 4.541 13a202.698 202.698 0 0 1 3.759 6.5c.9 1.65 4.481 5.701 7.958 9.001l6.321 6.002-1.703 4.998c-.937 2.75-1.972 5.449-2.299 5.999-.328.55-1.144 2.8-1.814 5-.67 2.2-1.816 5.35-2.548 7-.732 1.65-1.644 4.688-2.025 6.75-.382 2.063-1.023 3.75-1.424 3.75s-1.288 2.494-1.97 5.542c-.682 3.048-1.876 6.761-2.653 8.25-.777 1.489-1.43 3.608-1.451 4.708-.07 3.726-2.14 5-8.12 5-3.973 0-6.218.518-7.578 1.75-2.339 2.117-4.624 2.241-6.204.336-.646-.777-3.137-2.336-5.536-3.464-3.344-1.572-4.517-2.761-5.031-5.098-.396-1.803-2.101-4.14-4.178-5.723-4.104-3.131-5.699-2.599-8.847 2.953-2.327 4.103-2.356 4.095-11.617-3.004-5.605-4.296-9.082-5.285-10.545-3-.44.688-.825 3.725-.856 6.75-.03 3.025-.439 6.338-.909 7.362-.761 1.661-.521 1.79 2.21 1.19l3.063-.673-.545 4.061c-.299 2.233-.242 4.06.127 4.06 1.236 0 8.448-3.959 9.083-4.986.98-1.585 4.228-1.189 4.914.599.34.887-.338 3.16-1.507 5.052-2.293 3.71-1.848 5.486.9 3.59 6.842-4.721 16.202-8.616 16.202-6.742 0 .369-.9 1.816-2 3.214-1.1 1.399-2 3.193-2 3.987 0 2.022 5.181.782 9.783-2.342 1.963-1.332 4.048-2.262 4.634-2.066.627.209 1.068 3.474 1.074 7.944.01 8.655 1.283 10.76 8.968 14.837l4.284 2.273-.122 15.144c-.128 16.056.15 17.341 5.264 24.294 1.334 1.814 3.347 3.791 4.474 4.394 4.164 2.229 11.14 3.428 15.46 2.658 3.933-.7 4.737-.464 9 2.652 6.939 5.071 12.758 7.459 20.952 8.599 13.607 1.893 29.131-2.276 36.714-9.859 2.132-2.132 2.993-2.366 6.244-1.699 8.073 1.656 14.92-.35 20.609-6.039 3.894-3.894 4.663-5.411 6.164-12.156 1.417-6.37 1.53-8.935.654-14.778-.583-3.888-1.335-9.995-1.67-13.57-.336-3.575-1.234-8.525-1.997-11-.763-2.475-2.1-7.425-2.972-11-3.87-15.882-6.165-23.815-8.533-29.5-.459-1.1-2.246-6.275-3.972-11.5-1.727-5.225-3.786-10.918-4.576-12.651-.79-1.733-1.451-3.533-1.47-4-.019-.467-.903-2.649-1.966-4.849-2.975-6.158-2.557-8.11 3.047-14.242 5.415-5.925 8.014-10.279 11.793-19.758 2.024-5.078 2.467-8.273 2.886-20.797.449-13.445.286-15.456-1.788-22-3.996-12.608-11.097-22.695-21.976-31.215-3.814-2.988-6.387-7.463-5.055-8.795 1.369-1.369 1.433-6.365.093-7.193-1.988-1.229-1.095-4.497 1.25-4.573 1.237-.04 20.7-.459 43.25-.931 90.523-1.894 174.564-5.234 174.468-6.934-.21-3.717-13.956-11.22-24.298-13.263-11.677-2.308-44.317-.661-47.17 2.379-.704.75.48.881 4 .444 18.006-2.241 48.5-1.388 48.5 1.356 0 .425 1.281 1.028 2.847 1.341 2.908.582 10.034 4.675 10.111 5.808.023.345-12.895.931-28.708 1.302-15.812.372-34.15 1.077-40.75 1.567-6.6.491-28.65 1.148-49 1.46-20.35.313-49.894.828-65.654 1.146-28.149.568-28.665.542-29.297-1.447-.38-1.198-2.463-2.72-5.096-3.726L511 147.728v-58l4.649.637c2.557.351 5.145 1.032 5.75 1.514.606.482 2.169 1.204 3.475 1.605 3.985 1.224 14.265 8.669 21.106 15.284 4.423 4.278 6.964 6.053 8.001 5.59.835-.373 4.713-.877 8.616-1.119 6.098-.38 7.86-.081 12.513 2.12 6.076 2.874 12.573 8.846 16.658 15.313 2.601 4.118 5.391 5.497 6.732 3.328.34-.55 2.885-1 5.655-1 5.213 0 9.566 2.131 13.002 6.364 1.646 2.028 1.696 2.015 7.541-1.996 3.235-2.22 8.082-4.787 10.77-5.703 5.156-1.756 16.532-2.289 16.532-.773 0 .49 1.037 1.152 2.305 1.47 1.268.318 4.433 2.676 7.034 5.241 2.601 2.564 4.923 4.468 5.159 4.232 1.197-1.196-7.506-9.874-11.998-11.965-5.37-2.499-16.154-3.183-18.683-1.186-.724.572-2.539 1.332-4.032 1.688-1.493.357-4.709 1.994-7.145 3.638-2.437 1.645-4.75 2.99-5.141 2.99s-2.559-1.463-4.817-3.25c-3.853-3.05-4.577-3.245-11.738-3.165-7.442.083-7.684.008-9.746-3-6.03-8.798-13.567-14.686-21.228-16.583-6.278-1.555-5.823-1.532-12.725-.626l-6.256.822-7.834-7.349c-4.309-4.042-10.925-9.055-14.701-11.14-6.114-3.376-8.602-4.301-17.204-6.395-2.097-.51-2.25-1.084-2.25-8.431V70h182.954l1.75-2.75c.962-1.513 2.111-3.01 2.552-3.327.89-.64.257-12.283-.757-13.924-.352-.571-.193-2.492.354-4.269.547-1.776 1.292-6.717 1.656-10.98l.662-7.75H513.77l-3.145-3.434C506.94 19.544 503.402 18 497.869 18c-4.751 0-7.174 1.123-11.869 5.499l-3.5 3.263-149.25.654L184 28.07V14.035C184 4.981 183.631 0 182.96 0c-.573 0-2.322.947-3.888 2.105-3.391 2.507-12.704 4.858-19.332 4.879-3.84.013-5.723-.661-9.74-3.484-2.739-1.925-5.322-3.486-5.74-3.469-.418.018-1.6 1.185-2.628 2.595Zm7.963 4.874c3.285 2.229 9.826 3.413 13.905 2.517.55-.121 3.584-.461 6.742-.756 3.158-.296 6.251-1.15 6.873-1.899C181.142 2.509 181-7.995 181 294.5V583h-39.781l-.596-19.25c-1.014-32.805-1.807-75.323-2.3-123.25-.816-79.349-2.216-308.321-2.271-371.317-.052-60.292-.051-60.318 1.99-59.67 1.482.471 2.6-.059 4.073-1.932 2.504-3.183 2.903-3.187 7.48-.081Zm353.661 15.524 2.172 2.024-2.743 2.543c-4.067 3.772-8.505 4.069-12.131.813-2.825-2.536-2.868-2.701-1.059-4.024 1.038-.759 2.701-1.38 3.696-1.38.995 0 1.809-.45 1.809-1 0-1.797 6.031-1.049 8.256 1.024Zm7.343 7.516c.441 1.757.062 3.178-1.23 4.607-1.812 2.003-9.29 6.319-9.83 5.673-.148-.176-.81-1.361-1.473-2.634-1.32-2.535-.042-5.186 2.501-5.186.727 0 2.584-1.111 4.127-2.468 3.593-3.161 5.111-3.159 5.905.008Zm184.814 4.874c-.401 2.797-.77 10.261-.821 16.586-.051 6.325-.456 12.063-.901 12.75-.637.985-19.995 1.25-91.25 1.25-55.846 0-90.441-.36-90.441-.941 0-.518.444-1.215.987-1.551.542-.335 1.943-3.76 3.113-7.611 2.107-6.938 2.228-14.584.351-22.141l-.682-2.743 76.366-.282c42.001-.155 82.585-.309 90.186-.342l13.821-.06-.729 5.085Zm-204.135-1.495c3.016 3.584 6.185 13.116 5.416 16.291-1.98 8.176-2.771 10.416-4.486 12.713l-1.924 2.577-32.392-.03c-17.816-.016-86.729-.129-153.142-.25L184 65V32.029l30.25-.264c16.637-.146 85.212-.39 152.389-.542l122.138-.277 2.501 2.973ZM132 48.517v16.517l-35.25-.047c-35.266-.047-49.094-.622-48.238-2.006.251-.406 2.038-1.489 3.972-2.406C54.418 59.657 56 58.535 56 58.08c0-.454-2.26-1.043-5.022-1.308-2.762-.265-5.35-.816-5.75-1.223-.4-.407 1.501-2.678 4.225-5.047 4.294-3.734 4.777-4.52 3.628-5.905-.729-.878-1.924-1.597-2.654-1.597-.731 0-3.601-.487-6.378-1.083-5.328-1.143-5.901-2.136-4.419-7.667l.603-2.25H132v16.517Zm19.483-14.03c-3.955 2.015-5.599 4.804-5.665 9.61-.077 5.57 1.868 9.529 5.524 11.245 4.526 2.125 5.707 2.217 9.925.777 4.575-1.561 6.733-5.265 6.733-11.554 0-8.551-8.879-13.969-16.517-10.078ZM155 40c0 2.667-.333 3-3 3-3.617 0-3.977-2.075-.75-4.326C154.463 36.433 155 36.622 155 40Zm8.04-.812c1.628 1.203 2.96 2.553 2.96 3 0 1.021-6.995 1.083-7.014.062-.007-.412-.285-1.763-.616-3-.772-2.881.829-2.902 4.67-.062ZM313 38.637c-4.267.552-26.176 5.354-27.138 5.948-1.179.729-15.012 3.484-22.362 4.453-8.778 1.158-63.327 3.13-67.161 2.428-3.045-.558-6.305.904-4.973 2.23 1.219 1.213 70.283.829 71.84-.4.712-.562 4.219-1.308 7.794-1.657 3.575-.35 8.75-1.278 11.5-2.062 7.282-2.076 18.189-4.647 24.5-5.777 6.3-1.127 38.982-.547 41.045.728.754.466 2.289.949 3.413 1.073 1.923.213 11.043 1.89 27.042 4.971 3.85.742 8.661 1.366 10.691 1.388 2.03.022 3.969.49 4.309 1.04.758 1.227 24.16 1.359 24.913.141.292-.472 3.059-1.156 6.15-1.519 3.104-.365 6.357-1.399 7.268-2.31 1.532-1.532 1.437-1.595-1.341-.887-5.499 1.402-17.9 2.248-26.99 1.841-10.191-.456-15.724-1.246-30-4.281-21.599-4.592-24.168-5.125-29-6.022-5.937-1.102-26.527-1.969-31.5-1.326Zm201 3.84c0 2.722-.617 3.732-3.25 5.32-1.788 1.078-4.937 2.26-7 2.627l-3.75.667v-3.546c0-2.703.416-3.549 1.75-3.563.962-.01 3.718-1.352 6.124-2.982 2.406-1.631 4.768-2.721 5.25-2.423.482.297.876 2.053.876 3.9ZM155 50c0 3.713-3.079 4.153-5.443.777C147.302 47.559 147.59 47 151.5 47c3.222 0 3.5.238 3.5 3Zm11-2.18c0 1.088-4.745 5.18-6.008 5.18-.545 0-.992-1.35-.992-3 0-2.762.278-3 3.5-3 1.925 0 3.5.369 3.5.82Zm347 6.081c0 2.291-.789 3.369-3.75 5.122-2.062 1.222-5.462 2.454-7.554 2.738-3.764.511-3.797.486-3.112-2.372.989-4.128.944-4.091 5.904-4.835 2.481-.372 4.512-1.066 4.512-1.542s.788-1.071 1.75-1.323c.962-.251 1.862-.509 2-.573.138-.064.25 1.19.25 2.785Zm-6.13 12.684c-1.896 1.895-3.962 2.672-8.299 3.12-5.297.547-5.746.438-5.414-1.305.293-1.539 1.388-1.958 5.766-2.208 2.972-.169 6.316-.946 7.43-1.727 3.05-2.136 3.387-.751.517 2.12ZM158.312 96.75c.303 17.463 1.007 33.55 1.565 35.75.557 2.2 1.657 6.7 2.443 10s1.968 7.35 2.628 9c1.526 3.819 2.777 51.482 1.312 50-.543-.55-1.514-3.169-2.156-5.821-1.26-5.2-4.563-11.032-7.974-14.084-2.74-2.451-2.828-.384-.144 3.386 5.372 7.544 6.428 11.79 6.472 26.019.044 14.183-1.027 19.164-4.523 21.035-2.803 1.5-4.639.168-5.303-3.846-1.014-6.135-.73-9.214.911-9.844.848-.325 2.456-2.384 3.574-4.574 2.385-4.675 2.769-17.148.674-21.881-3.119-7.046-9.286-.724-10.693 10.962-1.46 12.126 1.505 31.001 5.243 33.38 4.437 2.823 11.133-1.159 12.159-7.231.969-5.736 2.954-6.512 2.1-.821-.995 6.634-4.512 15.883-11.151 29.32l-5.929 12-.315-4.75c-.535-8.073-2.205-5.233-2.205 3.75 0 4.675.338 8.494.75 8.488 1.097-.018 4.262-5.288 9.303-15.488 2.446-4.95 4.672-9.225 4.947-9.5.825-.825 4.983-11.055 7.316-18 2.086-6.209 2.173-7.911 1.934-38-.261-33.015-1.277-43.616-5.409-56.453-1.071-3.326-2.209-9.872-2.53-14.547-.32-4.675-.927-8.95-1.347-9.5-.42-.55-1.093-12.137-1.496-25.75-.447-15.145-1.114-24.75-1.719-24.75-.642 0-.795 11.128-.437 31.75Zm147.491-27.28c.347.346-3.707 4.77-9.007 9.83-11.547 11.023-25.529 24.472-43.811 42.14-10.997 10.627-43.418 41.77-60.965 58.56-2.011 1.925-4.639 4.357-5.839 5.405L184 187.31V67.862l60.587.489c33.323.269 60.87.773 61.216 1.119Zm17.136 1.165c.241.225-2.009 2.694-5 5.486-2.992 2.792-10.858 10.32-17.482 16.728-20.705 20.03-54.846 52.67-77.41 74.005-1.951 1.845-11.099 10.62-20.328 19.5-9.23 8.88-17.218 16.296-17.75 16.479-.548.189-.969-2.048-.969-5.146 0-5.091.266-5.709 3.75-8.712 2.063-1.778 10.062-9.362 17.776-16.854a7427.953 7427.953 0 0 1 29.683-28.621c15.196-14.558 43.835-42.147 66.291-63.859l11-10.636 5 .611c2.75.335 5.197.794 5.439 1.019ZM507 74.521c0 .837-1.125 2.034-2.5 2.661-1.375.626-2.5 1.517-2.5 1.979 0 .461-1.575.839-3.5.839-3.011 0-3.5-.33-3.5-2.359 0-2.349.84-2.686 11.25-4.51.413-.072.75.554.75 1.39Zm0 9.504c0 3.243-2.045 4.573-8.75 5.694-2.934.49-3.25.303-3.25-1.919 0-2.491 1.255-3.422 7.5-5.56 4.437-1.519 4.5-1.494 4.5 1.785Zm0 11.026c0 2.536-.585 3.296-3.468 4.5-1.907.797-4.607 1.449-6 1.449-2.207 0-2.532-.431-2.532-3.359 0-3.536.009-3.541 11.25-5.51.413-.072.75 1.242.75 2.92Zm-16 26.341v28.391l-2.27.57c-1.248.313-3.255 1.487-4.458 2.608-1.204 1.122-3.486 2.039-5.072 2.039-2.523 0-3.042-.528-4.149-4.225-1.291-4.307-4.159-10.867-11.136-25.466-2.153-4.505-3.915-8.845-3.915-9.646 0-1.72 14.804-15.891 18.761-17.959a496.222 496.222 0 0 0 5.739-3.061c6.763-3.676 6.5-4.759 6.5 26.749Zm-44.985-21.012c4.127 2.189 5.004 3.409 10.985 15.279 6.383 12.668 7.833 15.843 9.972 21.841.588 1.65 1.482 3.9 1.987 5 .969 2.114 4.627 13.117 7.57 22.773.967 3.175 1.556 5.975 1.309 6.223-.248.248-3.341-5.275-6.874-12.273-6.439-12.757-8.538-16.324-12.773-21.707-1.947-2.476-3.122-2.956-8.122-3.317-4.91-.356-6.174-.094-7.901 1.633-4.283 4.283-3.741 14.031 1.077 19.358a708.603 708.603 0 0 1 6.106 6.902c2.118 2.424 6.116 6.785 8.885 9.69 2.768 2.905 4.75 5.566 4.403 5.913-1.729 1.728-21.841-15.924-38.088-33.429-14.459-15.58-16.008-18.811-13.23-27.604 2.26-7.152 6.643-12.046 13.972-15.6 7.921-3.842 14.367-4.055 20.722-.682ZM507 105.385c0 2.831-3.652 5.522-8.581 6.322-3.366.546-3.419.499-3.419-3.076 0-3.415.193-3.635 3.25-3.701 1.788-.039 4.15-.457 5.25-.93 3.1-1.332 3.5-1.174 3.5 1.385Zm-108.066 1.769c7.753 3.657 7.974 4.029 7.344 12.351-.51 6.747-.33 7.731 2.211 12.066 1.521 2.596 4.621 6.729 6.888 9.185l7.485 8.104 3.362 3.64-4.862.264c-2.674.145-12.737-.656-22.362-1.781-21.239-2.482-19.201-2.449-32-.525-5.775.868-16.35 2.246-23.5 3.062-7.15.816-14.919 1.933-17.264 2.482-2.346.549-9.898.998-16.784.998-11.56 0-12.918-.203-17.735-2.648-3.455-1.754-7.091-2.723-10.767-2.87-3.053-.121-6.54-.535-7.75-.919-5.038-1.598-.744-9.179 7.384-13.036 6.905-3.276 31.882-2.875 36.044.58.906.752 2.589-.274 6.268-3.82 3.282-3.163 6.867-5.471 10.317-6.642 5.157-1.75 5.401-1.745 9.927.198 2.552 1.095 4.941 2.479 5.309 3.074 1.153 1.866 2.198 1.216 5.088-3.167 5.839-8.853 18.328-19.385 25.963-21.893 4.699-1.544 14.848-.867 19.434 1.297ZM507 115.98c0 2.464-.685 3.329-3.96 5-6.082 3.103-8.04 2.742-8.04-1.48 0-2.762.397-3.5 1.885-3.5 1.037 0 3.4-.657 5.25-1.461 4.632-2.011 4.865-1.942 4.865 1.441Zm0 10.887c0 2.506-.645 3.135-5.133 5-2.824 1.173-5.551 2.133-6.061 2.133-.51 0-.787-1.666-.616-3.702.297-3.549.516-3.75 5.31-4.881 2.75-.649 5.337-1.233 5.75-1.298.413-.066.75 1.171.75 2.748Zm0 11.184c0 3.166-2.179 4.658-9.25 6.335-2.642.627-2.75.499-2.75-3.259 0-3.86.062-3.924 4.75-4.901 7.221-1.505 7.25-1.497 7.25 1.825Zm-50.046.408c2.23 2.017 13.46 24.501 15.14 30.311 1.117 3.864 1.053 4.407-.68 5.718-1.053.797-2.402 1.463-2.998 1.48-1.254.037-7.661-6.629-15.35-15.968-2.943-3.575-5.72-6.741-6.17-7.035-1.301-.851-3.896-7.674-3.896-10.244 0-1.289.965-3.379 2.144-4.645 1.756-1.885 2.854-2.205 6.077-1.773 2.164.29 4.744 1.26 5.733 2.156ZM507 147.465c0 2.097-3.227 3.535-7.934 3.535-2.948 0-4.066-.413-4.066-1.5 0-1.011 1.059-1.523 3.25-1.57 1.788-.039 4.15-.457 5.25-.93 2.909-1.25 3.5-1.171 3.5.465Zm-10.629 6.015c1.474 1.117 1.731 2.162 1.211 4.934-.363 1.934-1.101 3.789-1.64 4.122-1.597.987-7.873-1.539-8.985-3.616-2.603-4.864 4.644-9.052 9.414-5.44Zm20.151.544c1.779 1.966 1.773 2.104-.201 4.75-2.962 3.971-4.933 3.979-5.598.023-.304-1.813-.864-4.084-1.245-5.047-1.024-2.588 4.653-2.367 7.044.274Zm-9.951 3.404c.902 3.593-.379 6.486-3.184 7.19-3.349.84-3.649.311-2.848-5.026.595-3.969 1.009-4.592 3.055-4.592 1.673 0 2.547.713 2.977 2.428Zm-23.61 2.761c2.277 2.444 2.509 3.403 1.039 4.311-.55.34-1 1.941-1 3.559 0 3.105-1.393 3.964-2.357 1.453-.314-.818-.87-3.743-1.236-6.5-.743-5.6.24-6.381 3.554-2.823Zm-71.984 6.999c2.18 4.513 2.545 8.368 1.136 12.015-.488 1.263-1.451 4.743-2.14 7.732-2.417 10.486-12.521 23.606-20.798 27.004-3.142 1.291-3.472 1.219-6-1.312-2.471-2.473-2.673-3.305-2.653-10.902.026-9.375 2.21-16.275 8.033-25.379 6.213-9.711 10.734-13.329 16.672-13.339 3.389-.006 3.91.372 5.75 4.181Zm79.659-1.694c1.575.821 3.877 1.496 5.114 1.5 1.331.003 2.25.619 2.25 1.506 0 1.152-1.278 1.5-5.5 1.5-5.444 0-5.5-.03-5.5-3 0-3.486-.089-3.449 3.636-1.506Zm27.891-.45c.743 1.203-2.09 5.956-3.55 5.956-1.092 0-1.351-5.292-.31-6.333 1.007-1.008 3.133-.8 3.86.377ZM510 169c0 2.086-1.63 2.474-5.75 1.37-4.197-1.125-2.184-2.753 4-3.234 1.129-.088 1.75.574 1.75 1.864Zm-84.424 6.483C442.369 188.991 449.923 197 445.868 197c-.623 0-2.754-1.012-4.736-2.25-6.356-3.968-7.557-4.66-11.632-6.702-5.659-2.835-9.675-2.622-13.229.702-1.618 1.512-3.179 3.425-3.469 4.25-.291.825-.775 1.275-1.076 1-.301-.275.136-2.3.97-4.5.875-2.307 1.578-7.702 1.661-12.747.078-4.811.542-8.749 1.029-8.75.487-.002 5.072 3.365 10.19 7.48Zm88.786 1.87c12.339 5.119 21.885 13.514 27.461 24.147 4.94 9.421 5.421 11.133 5.918 21.056.447 8.916.218 10.899-2.021 17.5-3.114 9.183-4.25 11.354-9.511 18.173C532.022 263.656 524.973 270 523.13 270c-.543 0-1.599.612-2.347 1.359-2.527 2.528-10.659 5.485-18.241 6.635-11.273 1.708-24.269-.7-32.542-6.032-.825-.532-2.562-1.423-3.859-1.981-6.282-2.701-19.147-18.741-20.773-25.898-.323-1.421-1.213-4.511-1.978-6.868-4.49-13.841 1.25-34.614 12.848-46.489 6.268-6.417 11.146-9.629 19.82-13.048 8.714-3.435 9.872-3.602 21.942-3.15 8.221.307 11.773.92 16.362 2.825Zm-78.993 16.296c4.472 3.107 8.302 5.791 8.512 5.964.209.174-.353 1.862-1.25 3.752-.897 1.891-1.631 3.932-1.631 4.536 0 .605-.653 1.099-1.451 1.099-2.853 0-11.752-2.224-14.376-3.593-1.47-.767-3.424-1.397-4.341-1.401-.918-.003-2.669-1.624-3.891-3.601-2.128-3.444-2.152-3.738-.582-7.032 1.684-3.532 4.355-5.198 8.51-5.31 1.33-.035 5.933 2.413 10.5 5.586Zm-199.761-2.031c4.245 2.015 13.851 11.661 15.445 15.51 1.391 3.359 3.891 3.697 6.447.872 3.309-3.657 7.965-2.376 14.134 3.888 2.274 2.31 2.547 2.347 8.286 1.129 8.82-1.872 18.017-1.022 21.864 2.02 3.423 2.707 4.905 5.674 3.525 7.054-.489.489-3.122 1.188-5.849 1.552-2.728.364-6.033 1.493-7.345 2.509-3.401 2.635-18.135 2.449-38.115-.483-1.925-.283-6.754-.996-10.732-1.585-6.105-.905-8.83-.769-17.5.87-7.955 1.505-33.523 4.046-40.705 4.046-.68 0-1.053-3.516-1.035-9.75l.028-9.75 5.941-5.886c5.489-5.438 6.208-5.842 9.452-5.316 1.931.313 5.116 1.794 7.078 3.291l3.568 2.721 1.62-2.405c2.699-4.006 10.295-10.758 12.61-11.209 4.652-.906 8.008-.632 11.283.922ZM133 210.855v19.855l-30.75.717c-16.912.395-43.125.484-58.25.198-15.125-.285-29.862-.543-32.75-.572-2.888-.029-5.25-.4-5.25-.824 0-1.424 8.439-5.177 15.302-6.807 4.241-1.007 8.571-1.385 11.5-1.004 2.584.336 6.354.596 8.377.578 2.024-.019 3.963.425 4.309.985 1.171 1.895 3.244 1.034 5.524-2.294 5.514-8.047 14.777-8.717 23.681-1.714 3.365 2.647 4.735 2.557 7.567-.498 2.432-2.623 6.553-3.462 10.443-2.126 1.878.644 2.508.158 4.27-3.297 1.137-2.228 2.509-4.052 3.047-4.052.539 0 .98-.591.98-1.313 0-2.247 5.31-6.463 9.555-7.586 2.776-.735 5.142-.756 7.5-.067 3.727 1.089 3.372 1.336 9.934-6.907 4.696-5.899 5.011-4.848 5.011 16.728Zm22.446-11.44c.739 5.913-.076 12.238-1.706 13.246-.681.42-.858-.922-.519-3.929.405-3.597.224-4.456-.853-4.043-.856.328-1.366-.171-1.362-1.332.008-2.963 2.008-9.357 2.926-9.357.461 0 1.142 2.437 1.514 5.415Zm256.519.585c.45 0 1.093 1.012 1.428 2.25.335 1.238 1.774 3.089 3.198 4.114 2.384 1.717 4.698 2.527 17.409 6.092 4.934 1.384 6.959 4.595 2.823 4.478-3.298-.093-17.936-2.549-27.092-4.545-7.101-1.548-7.714-1.874-7.135-3.791.349-1.154 1.399-2.998 2.334-4.098.936-1.1 2.556-3.35 3.601-5 1.523-2.405 1.971-2.653 2.258-1.25.197.963.726 1.75 1.176 1.75ZM498 202.383c0 5.988-.735 6.576-8.25 6.603-2.062.008-3.75.412-3.75.897 0 1.168 3.603 2.086 8.25 2.103 3.603.013 3.75.149 3.75 3.449 0 1.889.467 4.662 1.037 6.163 1.545 4.064 3.362 1.514 3.27-4.589-.073-4.81.033-5.009 2.659-5.009 3.4 0 9.034-1.902 9.034-3.05 0-.47-2.812-.989-6.25-1.152l-6.25-.298-.932-5.25c-1.209-6.802-2.568-6.731-2.568.133Zm-16 20.183c0 6.059-1.358 7.462-6.986 7.217-4.606-.2-7.035.53-5.816 1.748.292.292 2.794.799 5.56 1.127l5.029.595-.52 5.737c-.802 8.848 3.268 8.894 4.455.049l.541-4.039h5.31c4.848 0 7.539-1.221 6.026-2.734-.331-.331-3.076-.807-6.1-1.058l-5.499-.456v-5.876c0-3.251-.447-5.876-1-5.876-.55 0-1 1.605-1 3.566Zm46.983.184c-.016 3.58-.264 3.857-5.453 6.103l-5.436 2.353-.297 5.52c-.287 5.336-.414 5.558-3.797 6.647-2.87.924-3.667 1.802-4.426 4.877-.695 2.811-1.446 3.758-3 3.782-3.4.052-5.761 2.481-5.399 5.556.388 3.293 2.825 4.556 2.825 1.464 0-2.154.411-2.427 5.25-3.488 2.402-.526 2.75-1.075 2.75-4.343 0-4.107 1.409-5.493 6.783-6.673 3.097-.68 3.217-.893 3.217-5.678 0-4.651.21-5.064 3.25-6.393 1.788-.782 4.348-2.288 5.689-3.346 2.301-1.816 2.37-2.157 1.21-6.028-1.536-5.126-3.144-5.305-3.166-.353ZM505 227.965c0 1.941-.69 3.334-2 4.035-1.1.589-2 1.786-2 2.66 0 1.247.673 1.455 3.125.965 1.719-.344 3.969-.625 5-.625 2.25 0 2.462-2.268.375-4-.825-.685-1.5-2.315-1.5-3.622 0-1.447-.587-2.378-1.5-2.378-.996 0-1.5.996-1.5 2.965ZM447 256c0 .55-.45 1-1 1s-1-.45-1-1 .45-1 1-1 1 .45 1 1Zm4.834 7.94c.227 1.551-.093 2.142-1 1.843-.734-.242-1.484-1.467-1.668-2.723-.227-1.551.093-2.142 1-1.843.734.242 1.484 1.467 1.668 2.723Zm-118.581 1.026c-2.336 1.072-4.963 2.531-5.838 3.242-3.434 2.788-7.217 6.698-7.604 7.858-.311.934-.909.952-2.543.077-3.075-1.645-8.936-1.406-11.819.482-2.358 1.545-2.666 1.496-6.268-1-2.084-1.444-4.525-2.625-5.426-2.625-.9 0-1.915-.45-2.255-1-.34-.55-1.491-1-2.559-1s-1.941.45-1.941 1-.987 1-2.193 1c-1.346 0-4.245 2.118-7.498 5.476-4.773 4.928-5.558 5.38-7.84 4.512-2.676-1.017-4.982-.177-9.085 3.31-1.842 1.566-2.698 1.652-6.616.665-9.346-2.353-21.526 4.879-16.568 9.837.66.66 2.81 1.2 4.777 1.2 1.968 0 4.605.72 5.861 1.599 1.52 1.065 3.517 1.43 5.973 1.093 32.19-4.416 26.97-4.109 54.689-3.218 21.792.7 41.318.091 93-2.9 25.631-1.483 45.507-3.462 45.493-4.528-.004-.3-1.661-1.671-3.683-3.046-3.471-2.361-4.429-2.501-17.243-2.514-11.563-.011-13.976-.288-16.334-1.876-3.437-2.313-10.979-2.334-14.48-.04-1.982 1.299-3.003 1.409-4.924.534-1.333-.607-3.947-1.104-5.809-1.104-2.327 0-3.574-.547-3.989-1.75-1.134-3.285-7.635-6.564-13.256-6.686-3.382-.073-5.675-.658-6.5-1.659-1.279-1.55-5.109-4.189-9.775-6.734-4.246-2.317-12.928-2.417-17.747-.205Zm-168.776-.201C160.061 267.937 156 281.414 156 292.9c0 4.94.374 9.213.831 9.495.457.283 1.4 3.06 2.096 6.171 1.471 6.572.774 12.976-2.1 19.303-3.648 8.028-4.149 20.209-.963 23.395 1.771 1.771 2.235.318 1.015-3.18-1.318-3.783-.602-10.551 1.555-14.684 4.315-8.27 5.066-11.075 5.066-18.934 0-5.699-.543-9.238-1.866-12.172-1.545-3.422-1.796-5.919-1.455-14.465.226-5.681.942-11.229 1.591-12.329.649-1.1 1.955-3.8 2.902-6 .947-2.2 1.896-4.337 2.109-4.75.492-.956-.965-.946-2.304.015Zm188.492 5.26c1.908 1.361 4.825 3.699 6.481 5.194 1.944 1.755 3.356 2.375 3.981 1.75 2.903-2.903 12.457.981 15.131 6.151 1.61 3.112 2.54 3.431 5.46 1.868 1.423-.761 2.682-.531 5.087.932l3.197 1.944 3.579-2.432c4.323-2.937 10.548-3.254 13.393-.682 1.64 1.482 3.974 1.75 15.241 1.75 11.879 0 15.782.532 14.357 1.957-.467.467-20.57 1.874-51.876 3.632-9.625.54-38.698 1.14-64.606 1.334-28.694.215-47.846.742-49 1.35-3.084 1.625-15.787 2.487-25.42 1.725-9.504-.752-10.707-1.62-6.953-5.017 1.636-1.48 3.589-1.81 10.25-1.732 7.015.083 8.556-.207 10.444-1.967 2.316-2.159 6.283-2.744 9.932-1.465 1.762.617 2.543.112 4.352-2.816 5.209-8.428 14.789-11.03 21.174-5.751 1.83 1.512 3.477 3.087 3.66 3.5.553 1.245 2.843.845 4.145-.724 1.999-2.408 7.494-2.936 11.217-1.077l3.305 1.65 3.5-4.023c3.214-3.694 8.645-7.921 12.096-9.414.772-.334 4.329-.496 7.904-.36 5.055.193 7.271.799 9.969 2.723Zm106.088.082c1.768 3.303-.49 4.878-3.051 2.129-1.104-1.184-2.006-2.621-2.006-3.194 0-1.901 3.911-1.078 5.057 1.065Zm70.911 2.643c-.081 1.912-5.219 6.25-7.402 6.25-1.555 0-.296-3.951 1.434-4.5 1.1-.349 2-1.054 2-1.567 0-.513.9-.933 2-.933s1.986.337 1.968.75Zm-62.675 2.5c1.576 1.176 1.448 5.784-.16 5.728-1.931-.068-5.379-3.894-4.82-5.35.746-1.945 2.683-2.092 4.98-.378Zm51.124 4.393c.346.904.507 1.728.357 1.832-6.46 4.45-8.774 4.728-8.774 1.054 0-1.93.713-2.678 3.25-3.41 4.516-1.304 4.463-1.309 5.167.524Zm-40.593.007c1.927.516 2.212 1.069 1.669 3.234-.85 3.386-.666 3.3-4.331 2.023-2.366-.825-3.162-1.707-3.162-3.505 0-2.525 1.384-2.941 5.824-1.752Zm12.926 2.98c1.535.412 2.25 1.36 2.25 2.987 0 2.16-.424 2.383-4.531 2.383-4.678 0-6.289-1.42-5.107-4.5.598-1.56 3.525-1.905 7.388-.87Zm15.25 1.753c0 2.531-2.106 3.578-7.25 3.603-2.25.012-2.75-.428-2.75-2.42 0-1.887.617-2.527 2.75-2.85 6.517-.987 7.25-.818 7.25 1.667Zm22.469.367c.377 1.512 1.28 4.1 2.006 5.75.727 1.65 2.538 6.825 4.025 11.5 1.487 4.675 3.283 9.85 3.991 11.5.709 1.65 2.273 6.375 3.477 10.5 1.204 4.125 3.017 10.2 4.029 13.5 1.013 3.3 2.129 7.575 2.48 9.5.352 1.925 1.046 4.4 1.543 5.5.498 1.1 1.636 6.05 2.53 11 5.718 31.645 4.122 43.789-6.502 49.475-4.434 2.372-8.36 3.018-12.148 1.998-8.638-2.326-11.242-8.844-8.484-21.24 1.419-6.38 2.397-8.437 5.681-11.959 2.181-2.339 4.448-5.862 5.038-7.829 1.345-4.49.585-20.125-1.434-29.477-2.905-13.457-13.336-43.884-17.726-51.704-1.896-3.377-1.016-5.236 3.779-7.985 5.972-3.425 6.867-3.428 7.715-.029Zm-57.548 2.5c2.792 1.238 5.063 2.7 5.046 3.25-.016.55-1.136 3.25-2.489 6s-2.464 5.607-2.469 6.349c-.005.742-.664 2.767-1.464 4.5-1.87 4.047-4.327 10.925-5.966 16.697-.71 2.5-1.748 5.425-2.307 6.5-.559 1.075-1.341 4.204-1.738 6.954s-1.095 5.455-1.551 6.01c-.456.556-1.339 5.637-1.961 11.293-1.614 14.663-.251 21.967 4.982 26.699 3.9 3.527 6.034 9.124 6.586 17.273.616 9.087-.474 11.9-5.604 14.473-10.47 5.252-22.984-2.376-24.557-14.97-.888-7.108.182-22.653 2.148-31.201 5.431-23.614 6.754-28.901 7.901-31.577.706-1.65 1.603-4.8 1.993-7 .389-2.2 1.059-4.45 1.488-5 .428-.55 1.349-3.428 2.045-6.395.696-2.967 1.877-6.567 2.624-8 .748-1.433 1.365-3.28 1.372-4.105.007-.825.615-2.655 1.352-4.067.736-1.411 1.652-3.814 2.035-5.338 1.008-4.016 3.97-10.595 4.771-10.595.377 0 2.97 1.012 5.763 2.25ZM514 290.941c0 1.068.388 2.181.863 2.474.474.294 1.444 2.683 2.155 5.309.711 2.627 1.601 5.226 1.978 5.776.377.55 2.151 5.725 3.943 11.5 1.792 5.775 3.658 11.625 4.148 13 3.429 9.627 6.196 27.817 5.671 37.284-.386 6.968-.745 8.121-3.43 11-4.723 5.065-7.215 10.25-8.355 17.386-1.253 7.84-.455 14.447 2.142 17.749 1.037 1.318 1.885 2.791 1.885 3.273 0 .482-2.587 2.542-5.749 4.579-6.017 3.876-17.468 7.169-24.508 7.049-8.258-.141-25.151-6.878-26.296-10.488-.318-1.002.411-3.074 1.693-4.807 1.934-2.616 2.236-4.207 2.145-11.285-.059-4.532-.609-9.54-1.224-11.129-.614-1.588-.939-3.067-.721-3.284.218-.218 2.368.058 4.778.614 7.071 1.63 13.626 1.338 14.743-.657 2.178-3.892-8.646-17.402-22.031-27.495l-7.014-5.289.549-6.195c.302-3.407 1.001-7.007 1.552-8 .551-.993 1.445-3.83 1.986-6.305 1.894-8.664 11.403-37.286 13.654-41.097.793-1.344 2.054-1.477 7.943-.838 6.482.703 22.095-.326 23.305-1.537 1.351-1.351 4.195-.393 4.195 1.413Zm-21.515 2.965c-14.877 6.315-18.837 44.787-6.988 67.881 4.081 7.955 13.895 9.24 19.588 2.565.868-1.018 2.588-4.263 3.821-7.21 4.7-11.232 4.53-41.994-.289-52.431-4.044-8.757-10.604-13.151-16.132-10.805Zm8.54 6.344c11.525 12.332 12.528 44.93 1.844 59.934-4.319 6.066-11.135 5.523-15.395-1.225-3.687-5.84-6.792-19.863-6.164-27.835C482.857 311.492 488.84 298 496 298c1.741 0 3.772.91 5.025 2.25Zm-115.14 30.643 4.217 3.894-2.561 2.763c-3.046 3.287-4.389 2.536-2.834-1.584 1.294-3.429.354-4.449-3.264-3.541-1.344.337-2.449.267-2.457-.156-.007-.423-.285-1.781-.616-3.019-.97-3.619 2.678-2.821 7.515 1.643Zm21.232 4.145c.89 2.406 2.128 4.544 2.75 4.751 2.505.835.873 1.964-3.617 2.501-2.613.312-5.457.842-6.322 1.178-1.055.409-1.949-.22-2.72-1.91-.967-2.123-.868-2.67.628-3.47.976-.523 2.641-2.559 3.7-4.525 1.059-1.967 2.384-3.423 2.945-3.237.56.187 1.747 2.307 2.636 4.712Zm8.819 6.901c1.19.753 1.211 1.178.127 2.485-1.987 2.394-4.063 1.922-4.063-.924 0-2.579 1.431-3.146 3.936-1.561Zm24.725.619c.329.857-.184 4.57-1.14 8.25-.956 3.681-2.206 8.942-2.778 11.692-.572 2.75-1.177 5.167-1.346 5.371-.169.205-2.298-.795-4.732-2.221-3.142-1.841-4.886-3.746-6.014-6.564-1.496-3.739-1.47-4.255.448-8.87 1.451-3.492 3.095-5.514 5.719-7.035 4.371-2.534 8.997-2.827 9.843-.623Zm27.008 20.942C479.755 373.891 487 381.551 487 383.937c0 2.192-.275 2.297-4.506 1.717-11.534-1.581-19.089-5.827-21.459-12.062-1.285-3.38-1.373-15.88-.108-15.425.509.183 3.543 2.583 6.742 5.333Zm-247.406 27.41c1.827.694 4.803 5.749 12.565 21.342 6.216 12.486 10.172 21.62 10.172 23.487 0 2.241-.936 3.876-3.518 6.143-7.904 6.94-13.604 4.344-19.498-8.882-2.213-4.966-5.871-12.253-11.043-22-4.478-8.438-5.006-10.797-3.243-14.493 2.522-5.288 8.916-7.745 14.565-5.597Zm-63.271 48.687c-.926 10.67-.98 15.984-.201 19.75.586 2.834 1.327 6.756 1.647 8.715.32 1.959 2.133 7.294 4.028 11.855 5.036 12.123 6.92 22.518 6.176 34.083-.787 12.242-1.343 14.23-3.766 13.461-2.345-.745-2.416.886-.154 3.528 2.383 2.782 3.007 2.562 4.917-1.739 1.187-2.674 1.793-7.625 2.112-17.25.536-16.197-.767-23.632-6.219-35.5-.758-1.65-1.7-4.35-2.093-6-.393-1.65-1.173-3.581-1.734-4.291-.574-.728-1.228-9.994-1.499-21.25-.264-10.978-.81-19.959-1.214-19.959-.404 0-1.304 6.569-2 14.597Zm84.178 8.653c.894 1.788 4.093 8.425 7.11 14.75 3.018 6.325 10.039 20.763 15.603 32.085S274 515.969 274 516.335c0 .366-1.012.655-2.25.642-1.894-.019-3.253-2.116-8.589-13.25-3.487-7.275-11.03-22.677-16.764-34.227-5.734-11.55-10.419-21.525-10.411-22.167.012-1.013 1.338-1.997 3.037-2.254.287-.043 1.253 1.383 2.147 3.171Zm-84.542 62.5c-2.044 17.333-1.932 21.038.904 30.036 1.51 4.793 3.108 9.614 3.55 10.714.443 1.1 1.108 4.025 1.48 6.5.747 4.986 2.973 10 4.439 10 .955 0 .651-3.099-1.028-10.5-.499-2.2-1.402-6.579-2.007-9.73-.605-3.152-1.807-7.148-2.671-8.881-1.243-2.492-1.538-6.259-1.41-18.02.134-12.301-.085-14.869-1.268-14.869-.96 0-1.613 1.559-1.989 4.75Zm143.855 6.222c.349.566 1.527 1.028 2.617 1.028 2.688 0 14.478 3.817 19.4 6.281 8.962 4.486 21.589 16.102 25.24 23.219.846 1.65 1.849 3.225 2.228 3.5 2.905 2.109 9.032 20.518 9.032 27.139 0 4.86-.001 4.861-3.395 4.861-3.172 0-3.426-.246-3.868-3.75-2.358-18.708-13.607-34.58-31.237-44.077-8.574-4.618-30.453-8.593-34.762-6.315-1.231.651-3.363 1.136-4.738 1.077-4.133-.175-13.097 2.526-20 6.027-4.245 2.153-8.929 5.782-13.5 10.459-6.165 6.308-8.26 9.5-13.632 20.764-.683 1.432-2.837 12.778-2.86 15.065-.005.413-1.553.75-3.441.75-4.621 0-4.986-1.683-2.669-12.285 2.936-13.436 10.141-26.217 20.051-35.566C253.55 527.035 271.548 518 279.111 518c1.524 0 3.002-.374 3.284-.83.762-1.233 17.336-1.415 18.088-.198Zm4.967 15.093c.522.514 1.669.935 2.548.935 2.263 0 14.621 6.472 19.444 10.184 10.035 7.723 18.859 22.513 20.129 33.742l.655 5.786-4.863.643c-6.171.816-51.221.808-84.113-.014-29.044-.726-26.751.413-23.196-11.521 3.369-11.315 10.47-21.671 19.76-28.82a387.291 387.291 0 0 0 4.493-3.5c2.155-1.732 10.067-5.388 13.193-6.096 1.65-.374 3.459-1.037 4.02-1.473 2.497-1.943 25.934-1.83 27.93.134Zm41.05 55.872c146.503.824 274.797 2.103 275.486 2.748.268.25.656 11.448.864 24.885l.377 24.43H330.113C40.637 640 37 639.976 37 638.059c0-1.068.374-2.172.831-2.454.457-.283 1.407-3.122 2.111-6.309.704-3.188 1.668-6.277 2.142-6.865.473-.588 1.562-4.091 2.418-7.784 1.725-7.437 1.339-10.117-3.072-21.318-1.337-3.393-2.43-6.445-2.43-6.781 0-.336 41.063-.319 91.25.038 50.188.357 147.5.965 216.25 1.351ZM92 598.963c-7.759 1.2-12.469 2.905-16.552 5.994-4.679 3.541-8.539 3.827-12.601.934-4.028-2.868-4.857-1.554-1.337 2.119 2.381 2.486 3.653 2.99 7.542 2.99 3.038 0 5.515-.652 7.063-1.859 6.966-5.428 8.084-5.641 29.635-5.641 11.138 0 20.25-.278 20.25-.617 0-.34-2.363-1.155-5.25-1.811-13.285-3.018-19.788-3.495-28.75-2.109Zm353.253 2.074c-8.655 1.085-12.799 3.018-13.637 6.359-1.35 5.379 2.739 10.147 9.656 11.26 2.075.334 4.027 1.018 4.338 1.521.65 1.052-9.555-.033-11.11-1.181-.55-.406-3.363-1.331-6.25-2.056-2.887-.725-5.25-1.683-5.25-2.129 0-.446-.466-.811-1.035-.811-.57 0-5.255-2.025-10.412-4.5-5.157-2.475-9.866-4.5-10.464-4.5-.599 0-1.089-.45-1.089-1s1.575-1 3.5-1 3.5-.45 3.5-1c0-.583-3.333-1-8-1-4.4 0-8 .367-8 .815 0 .448 3.938 2.811 8.75 5.25 4.813 2.439 9.345 4.998 10.071 5.685.727.688 1.768 1.25 2.312 1.25.545 0 3.55 1.169 6.679 2.598 10.832 4.947 11.834 5.322 16.023 5.992 2.315.37 4.451 1.064 4.746 1.541.793 1.284 52.295 1.075 63.919-.259 5.5-.631 12.925-1.792 16.5-2.58 28.723-6.331 27.449-6.173 55.75-6.905 25.166-.651 32.198-1.425 24-2.643-3.667-.544-49.034-.033-58.25.656-5.889.441-8 .908-12 2.655-7.645 3.339-28.71 5.605-54.309 5.841-11.059.102-14.147-1.008-6.299-2.263 6.872-1.099 18.108-7.518 18.108-10.346 0-.782-1.937-.077-5.05 1.839-2.778 1.709-5.361 2.796-5.742 2.416-.38-.381.092-1.131 1.05-1.667.958-.536 1.742-2.037 1.742-3.335 0-5.599-16.147-8.711-33.747-6.503Zm25.165 4.493c2.015.842 3.393 1.967 3.063 2.5-.848 1.373-16.196 1.24-17.054-.148-.479-.776.572-.997 3.441-.723 4.334.413 4.916.025 2.932-1.959-1.782-1.782 3.066-1.572 7.618.33Zm-327.375 3.416c-1.719 2.17-3.969 4.213-5 4.54-1.646.523-10.376-.699-25.043-3.506-8.493-1.625-16.228-1.157-20.998 1.27-8.262 4.205-8.512 11.894-.474 14.575 4.539 1.514 19.081 1.655 22.851.221 3.108-1.182 5.856-6.062 4.563-8.105-1.706-2.697-.947-3.202 3.808-2.533 12.648 1.78 14.432 1.832 16.924.499 2.221-1.189 8.326-8.769 8.326-10.337 0-1.618-2.176-.136-4.957 3.376Zm306.302-2.489c.308.802 2.372 2.602 4.587 4 3.418 2.158 5.201 2.543 11.762 2.543 7.094 0 7.602.133 6.133 1.602-2.561 2.561-21.105 3.188-28.002.947-10.024-3.256-12.147-7.979-4.075-9.066 2.612-.352 5.2-.794 5.75-.983 2.14-.732 3.308-.442 3.845.957Zm-203.21 9.766-9.67 4.902-16.196-.011c-8.908-.005-17.788-.308-19.733-.673-4.24-.796-4.998 1.219-.786 2.089 1.512.313 4.537 1.102 6.722 1.753 2.185.651 9.861 1.184 17.06 1.184h13.087l10.211-5.234c9.797-5.02 10.536-5.233 18.191-5.233 4.549 0 7.979-.422 7.979-.981 0-1.308-3.178-2.007-10.848-2.385-5.909-.29-7.016.027-16.017 4.589ZM99.491 615.01c-1.586 1.753-1.648 2.328-.486 4.5 1.105 2.065 2.072 2.49 5.664 2.49 2.382 0 4.331-.45 4.331-1s-1.575-1-3.5-1c-5.056 0-4.422-2.339 1.029-3.797 3.873-1.035 4.887-.976 7 .408 3.446 2.258 3.084 4.106-1.151 5.876-7.246 3.027-21.533.949-22.176-3.225-.368-2.39 1.79-4.275 6.054-5.287 4.983-1.183 5.184-1.119 3.235 1.035Z" fill="#000"/></svg>