<svg width="740" height="644" fill="none" xmlns="http://www.w3.org/2000/svg"><path fill-rule="evenodd" clip-rule="evenodd" d="M141.632 2.626c-1.855 2.545-3.51 2.733-7.882.896-1.613-.678-1.75.251-1.75 11.871V28l-44.25.188c-54.065.229-49.435.105-50.69 1.356-.576.574-1.338 3.826-1.694 7.227-.505 4.833-.342 6.273.744 6.589L42 45.068c2.475.717 4.7 1.457 4.943 1.645.601.461-5.837 6.287-6.948 6.287-1.268 0-4.009 4.169-3.394 5.163.284.46 2.29.837 4.458.837S45 59.45 45 60s-.499 1-1.108 1C41.605 61 33 65.538 33 66.744c0 1.211 25.441 1.598 82.764 1.258 11.655-.069 15.371.216 15.716 1.204.635 1.823 1.133 115.74.507 116.044-.282.138-2.908 2.993-5.836 6.345-5.317 6.088-5.328 6.094-10.061 5.64-7.73-.743-15.228 4.067-20.342 13.05-1.872 3.287-2.512 3.706-4.871 3.188-2.869-.63-10.877 2.718-10.877 4.547 0 1.669-1.719 1.102-6.552-2.16-6.451-4.354-13.567-4.532-18.889-.473-2.033 1.551-4.185 3.892-4.782 5.203-.96 2.108-1.562 2.318-5.182 1.816-2.252-.313-5.339-1.039-6.86-1.615-4.195-1.587-17.388-.429-24.377 2.14C7.587 225.053 0 230.771 0 232.998c0 .551 1.463 1.003 3.25 1.003 1.787.001 7.975.206 13.75.455 5.775.249 34.237.483 63.25.521l52.75.069.087 30.227c.047 16.625.288 39.227.535 50.227.247 11 .86 65.675 1.362 121.5.501 55.825 1.21 111.492 1.574 123.705l.662 22.206-51.61-.617c-37.044-.442-51.61-.308-51.61.477 0 1.066 5.154 15.744 6.928 19.729.49 1.1 1.118 2.723 1.395 3.606.277.884-1.752 8.759-4.51 17.5-2.757 8.742-5.246 16.907-5.53 18.144l-.516 2.25h594.142l.688-3.663c.789-4.211-.043-51.632-.932-53.07-.363-.587-35.545-1.198-91.377-1.586-49.934-.347-108.776-.755-130.762-.906l-39.975-.275-.268-3.5c-.644-8.402-6.686-28.629-9.259-31-.299-.275-1.76-2.379-3.248-4.675-8.866-13.683-27.234-26.002-42.82-28.718-9.651-1.682-20.507-2.138-26.486-1.113l-4.03.691-2.38-5.342c-2.946-6.616-11.634-24.851-22.793-47.843-4.672-9.625-8.452-18.625-8.401-20 .051-1.375.367-4.807.702-7.626.665-5.606.625-5.715-10.171-28.03-2.968-6.136-5.397-11.465-5.397-11.843 0-1.432-4.136-5.86-6.762-7.238-6.028-3.164-13.642-.756-17.985 5.689-2.273 3.374-3.006 8.465-1.364 9.48.489.302 1.168 1.66 1.509 3.019 1.259 5.016 15.634 34.816 17.961 37.234.628.652 3.376 2.056 6.107 3.12 2.732 1.063 5.283 2.555 5.67 3.314.387.76 2.495 5.206 4.685 9.881 3.461 7.39 6.339 13.527 15.271 32.566 1.05 2.236 1.908 4.561 1.908 5.166 0 .606.337 1.251.75 1.435.956.425 9.25 17.038 9.25 18.528 0 .614-2.934 2.489-6.52 4.167-21.617 10.116-36.642 31.262-39.131 55.07l-.634 6.068H184V233.262l3.75-.62c2.063-.341 5.787-.625 8.277-.631 5.978-.015 32.488-3.668 37.098-5.113 2.614-.819 4.567-.838 7-.07 3.734 1.179 20.826 3.066 36.604 4.04 8.323.514 10.957.323 14.136-1.028 2.148-.914 4.209-2.151 4.58-2.75.37-.6 2.192-1.09 4.049-1.09 4.461 0 8.079-1.446 8.887-3.551.94-2.448-2.325-7.467-6.927-10.649-3.504-2.422-4.884-2.737-12.121-2.767-4.491-.018-8.316.347-8.5.812-.183.465-1.494 1.13-2.913 1.477-2.047.5-3.37-.092-6.395-2.863-2.098-1.921-4.898-3.766-6.224-4.098-3.083-.774-9.681.279-10.126 1.615-.526 1.578-2.175 1.212-2.175-.483 0-2.086-13.048-15.181-16.396-16.453-3.473-1.321-11.678-1.342-15.104-.04-1.446.55-4.852 3.281-7.568 6.07l-4.939 5.07-2.631-2.07c-1.448-1.138-3.471-2.07-4.497-2.07-3.309 0-2.021-2.078 5.802-9.362a1196.627 1196.627 0 0 0 15.882-15.138c4.518-4.4 11.756-11.334 16.083-15.408 4.327-4.075 12.819-12.175 18.87-18 6.051-5.826 20.653-19.817 32.449-31.092 11.796-11.275 25.52-24.45 30.498-29.278l9.051-8.778 77.545.278c90.849.326 82.955-.741 82.955 11.207v7.382l-6.25 2.95c-7.675 3.622-17.341 10.831-22.731 16.955-2.224 2.526-4.202 4.411-4.396 4.189-.195-.223-1.446-2.396-2.781-4.829-1.335-2.434-4.139-5.809-6.23-7.5-3.666-2.965-4.152-3.075-13.458-3.051-10.986.028-14.114 1.328-21.989 9.144l-4.335 4.303-3.165-2.326c-5.31-3.903-9.715-5.147-18.182-5.133-6.896.011-8.845.43-13.942 3-5.926 2.987-15.748 11.996-20.541 18.841-2.653 3.789-3.505 3.884-9.404 1.044-3.369-1.622-9.197-1.852-10.096-.398-.34.55-1.474 1-2.52 1s-4.457 2.081-7.58 4.625l-5.678 4.625-6.611-1.279c-9.07-1.755-22-2.346-24.525-1.122-1.147.556-3.858 1.556-6.023 2.221-4.266 1.31-13.563 9.798-13.563 12.382 0 3.901 7.354 7.531 15.28 7.542 2.079.003 6.579 1.191 10 2.638 6.142 2.6 6.419 2.624 22.22 1.922 8.8-.391 18.475-1.11 21.5-1.598 3.025-.488 9.55-1.359 14.5-1.935 4.95-.576 13.171-1.8 18.268-2.721 8.706-1.572 9.921-1.569 20 .047 5.903.947 17.874 2.112 26.603 2.588l15.871.867 6.097 5.849c3.353 3.217 6.336 6.08 6.629 6.363 2.351 2.271 10.986 8.932 12.843 9.907 2.833 1.489 2.807 1.557-3.075 8.06l-4.764 5.266-4.81-4.373c-7.145-6.497-11.466-10.187-13.28-11.343-2.27-1.447-6.221-4.203-14.736-10.281-7.773-5.548-11.747-6.493-17.731-4.218-3.625 1.379-15.206 13.286-16.001 16.453-.347 1.383-.97 2.515-1.383 2.515-1.397 0-5.456 16.455-5.381 21.809.174 12.338 7.219 17.853 16.851 13.191 4.931-2.388 4.244-2.418 20.999.933 5.5 1.1 11.125 2.222 12.5 2.492s4.675.768 7.334 1.107l4.833.616-.695 8.35c-.854 10.244 1.955 24.121 6.376 31.502a229.458 229.458 0 0 1 3.734 6.5c.9 1.65 4.578 5.791 8.173 9.203l6.536 6.203-3.031 7.797c-1.668 4.288-4.262 11.397-5.765 15.797-1.503 4.4-3.307 9.35-4.009 11-.701 1.65-1.59 4.493-1.975 6.317-.385 1.825-1.329 4.525-2.099 6-.77 1.476-1.402 3.477-1.406 4.447-.014 3.934-2.074 5.483-6.613 4.971-3.181-.359-5.397.086-8.509 1.708l-4.208 2.194-2.703-1.999c-1.487-1.099-4.294-2.663-6.238-3.475-2.633-1.101-3.709-2.27-4.217-4.582-.409-1.863-2.085-4.174-4.191-5.78-4.106-3.132-5.698-2.599-8.852 2.961-2.351 4.147-2.686 4.06-11.317-2.934-8.189-6.636-12.959-5.191-11.569 3.505.37 2.312.14 4.804-.564 6.119-1.488 2.781-.539 3.85 2.007 2.26 2.866-1.79 2.986-1.62 2.313 3.288-.339 2.475-.313 4.5.059 4.5.8 0 7.355-3.497 9.827-5.244 1.411-.996 2.049-.904 3.449.496 1.624 1.624 1.598 1.881-.481 4.692-1.209 1.636-2.199 3.443-2.199 4.016 0 1.285 2.673 1.379 3.45.12 1.609-2.602 15.55-8.49 15.55-6.567 0 .369-.9 1.816-2 3.214-2.314 2.942-2.597 5.273-.641 5.273.748 0 3.944-1.379 7.102-3.065 3.159-1.685 6.03-2.777 6.381-2.426s.643 4.032.648 8.179c.01 7.52.021 7.55 3.918 10.919 2.149 1.858 5.403 3.918 7.231 4.579 3.219 1.164 3.3 1.328 2.592 5.258-.402 2.231-.725 9.006-.718 15.056.011 9.333.339 11.606 2.163 15 3.159 5.878 7.576 10.023 11.815 11.087 2.187.549 2.557 1.086 2.074 3.008-.748 2.983-.829 58.554-.087 60.486.305.796 1.175 5.49 1.933 10.433.758 4.942 1.688 9.743 2.065 10.668.495 1.213-.104 2.097-2.145 3.168-1.557.817-4.457 3.21-6.444 5.318-10.745 11.396-10.259 27.145 1.071 34.751 3.845 2.581 5.359 2.987 11 2.954 4.991-.03 7.49-.592 10.542-2.371 10.404-6.062 15.679-14.46 15.706-25.002.009-3.575-.484-7.767-1.095-9.315-1.383-3.504-1.473-21.344-.111-22.185.55-.34 1.03-3.404 1.066-6.809.036-3.405.682-10.016 1.435-14.691 2.662-16.525 4.535-26.53 5.431-29 .498-1.375 1.176-3.738 1.506-5.25.509-2.335 1.107-2.75 3.959-2.75 1.847 0 3.805.563 4.352 1.25.968 1.218 2.494 8.31 6.398 29.75 3.431 18.842 4.08 27.771 3.429 47.222-.714 21.331-.412 22.745 6.429 30.168 10.726 11.636 27.354 12.064 34.995.901 2.194-3.205 2.497-4.701 2.478-12.222-.021-8.002-.235-8.875-3.231-13.186-3.207-4.614-9.167-9.883-11.18-9.883-1.47 0-1.264-3.716.471-8.5 1.358-3.746 3.407-25.161 3.587-37.5.044-3.025-.248-13.42-.649-23.1l-.73-17.599 2.997-.6c4.418-.883 12.036-8.911 12.804-13.492.342-2.04 1.084-5.218 1.649-7.063 1.673-5.459-2.557-33.862-7.766-52.146-2.695-9.462-14.746-46.45-15.475-47.5-.382-.55-1.252-2.731-1.934-4.847-.682-2.115-1.863-5.04-2.624-6.5-2.216-4.247-1.732-7.693 1.457-10.377 1.57-1.321 3.697-3.723 4.727-5.339 1.03-1.615 2.142-3.162 2.47-3.437 1.074-.898 4.845-8.381 7.056-14 1.774-4.506 2.246-8.21 2.616-20.5.421-14 .283-15.511-2.066-22.664-4.065-12.376-10.367-21.166-21.75-30.336-3.8-3.061-6.315-7.492-5-8.807 1.369-1.369 1.433-6.365.093-7.193-1.988-1.229-1.095-4.497 1.25-4.573 1.237-.04 20.7-.459 43.25-.931 90.523-1.894 174.564-5.234 174.468-6.934-.21-3.717-13.956-11.22-24.298-13.263-11.677-2.308-44.317-.661-47.17 2.379-.704.75.48.881 4 .444 18.006-2.241 48.5-1.388 48.5 1.356 0 .425 1.281 1.028 2.847 1.341 2.908.582 10.034 4.675 10.111 5.808.023.345-12.895.931-28.708 1.302-15.812.372-34.15 1.077-40.75 1.567-6.6.491-28.65 1.148-49 1.46-20.35.313-49.84.827-65.534 1.143l-28.535.575-1.316-2.459c-.791-1.478-2.871-2.925-5.215-3.627l-3.9-1.168V89.728l4.649.637c2.557.351 5.145 1.032 5.75 1.514.606.482 2.169 1.204 3.475 1.605 3.985 1.224 14.265 8.669 21.106 15.284 4.423 4.278 6.964 6.053 8.001 5.59.835-.373 4.713-.877 8.616-1.119 6.098-.38 7.86-.081 12.513 2.12 6.076 2.874 12.573 8.846 16.658 15.313 2.601 4.118 5.391 5.497 6.732 3.328.34-.55 2.885-1 5.655-1 5.213 0 9.566 2.131 13.002 6.364 1.646 2.028 1.696 2.015 7.541-1.996 3.235-2.22 8.082-4.787 10.77-5.703 5.156-1.756 16.532-2.289 16.532-.773 0 .49 1.037 1.152 2.305 1.47 1.268.318 4.433 2.676 7.034 5.241 2.601 2.564 4.923 4.468 5.159 4.232 1.197-1.196-7.506-9.874-11.998-11.965-5.37-2.499-16.154-3.183-18.683-1.186-.724.572-2.539 1.332-4.032 1.688-1.493.357-4.709 1.994-7.145 3.638-2.437 1.645-4.75 2.99-5.141 2.99s-2.559-1.463-4.817-3.25c-3.853-3.05-4.577-3.245-11.738-3.165-7.442.083-7.684.008-9.746-3-6.03-8.798-13.567-14.686-21.228-16.583-6.278-1.555-5.823-1.532-12.725-.626l-6.256.822-7.834-7.349c-4.309-4.042-10.925-9.055-14.701-11.14-6.114-3.376-8.602-4.301-17.204-6.395-2.097-.51-2.25-1.084-2.25-8.431V70h182.954l1.75-2.75c.962-1.513 2.111-3.01 2.552-3.327.89-.64.257-12.283-.757-13.924-.352-.571-.193-2.492.354-4.269.547-1.776 1.292-6.717 1.656-10.98l.662-7.75H513.77l-3.135-3.365c-4.227-4.537-6.631-5.636-12.319-5.631-5.116.004-9.757 2.192-13.64 6.433l-2.176 2.376-149.25.628L184 28.07V14.035C184 4.981 183.631 0 182.96 0c-.573 0-2.322.947-3.888 2.105-3.391 2.507-12.704 4.858-19.332 4.879-3.84.013-5.723-.661-9.74-3.484-2.739-1.925-5.322-3.486-5.74-3.469-.418.018-1.6 1.185-2.628 2.595Zm7.963 4.874c3.285 2.229 9.826 3.413 13.905 2.517.55-.121 3.584-.461 6.742-.756 3.158-.296 6.251-1.15 6.873-1.899C181.142 2.509 181-7.995 181 294.5V583h-39.781l-.596-19.25c-1.014-32.805-1.807-75.323-2.3-123.25-.816-79.349-2.216-308.321-2.271-371.317-.052-60.292-.051-60.318 1.99-59.67 1.482.471 2.6-.059 4.073-1.932 2.504-3.183 2.903-3.187 7.48-.081Zm353.394 15.222c1.106.947 2.011 2.011 2.011 2.364 0 1.224-7.617 5.914-9.554 5.882-1.782-.029-7.446-4.146-7.446-5.412 0-1.061 7.55-4.34 10.239-4.447 1.506-.06 3.643.666 4.75 1.613Zm7.61 7.818c.441 1.757.062 3.178-1.23 4.607-1.812 2.003-9.29 6.319-9.83 5.673-.148-.176-.839-1.415-1.537-2.753-1.122-2.152-1.009-2.643.976-4.25 1.234-.999 2.799-1.817 3.478-1.817.679 0 2.049-.9 3.044-2 2.455-2.713 4.333-2.514 5.099.54Zm184.814 4.874c-.401 2.797-.77 10.261-.821 16.586-.051 6.325-.456 12.063-.901 12.75-.637.985-19.995 1.25-91.25 1.25-55.846 0-90.441-.36-90.441-.941 0-.518.408-1.193.908-1.502 3.398-2.1 5.802-21.191 3.69-29.301l-.845-3.243 76.373-.282c42.006-.155 82.594-.309 90.195-.342l13.821-.06-.729 5.085ZM490.831 33.32c4.094 4.358 7.763 17.577 5.3 19.099-.477.295-1.147 2.279-1.487 4.408-.341 2.13-1.598 5.116-2.794 6.637l-2.175 2.764-44.087-.585c-24.249-.322-93.025-.598-152.838-.614L184 65V32.029l30.25-.264c16.637-.146 85.173-.39 152.301-.542l122.05-.276 2.23 2.373ZM132 48.517v16.517l-35.25-.047c-35.266-.047-49.094-.622-48.238-2.006.251-.406 2.038-1.489 3.972-2.406C54.418 59.657 56 58.535 56 58.08c0-.454-2.26-1.043-5.022-1.308-2.762-.265-5.35-.816-5.75-1.223-.4-.407 1.501-2.678 4.225-5.047 4.294-3.734 4.777-4.52 3.628-5.905-.729-.878-1.924-1.597-2.654-1.597-.731 0-3.601-.487-6.378-1.083-5.328-1.143-5.901-2.136-4.419-7.667l.603-2.25H132v16.517Zm19.483-14.03c-3.955 2.015-5.599 4.804-5.665 9.61-.077 5.57 1.868 9.529 5.524 11.245 4.526 2.125 5.707 2.217 9.925.777 4.575-1.561 6.733-5.265 6.733-11.554 0-8.551-8.879-13.969-16.517-10.078ZM155 40c0 2.667-.333 3-3 3-3.617 0-3.977-2.075-.75-4.326C154.463 36.433 155 36.622 155 40Zm8.04-.812c1.628 1.203 2.96 2.553 2.96 3 0 1.021-6.995 1.083-7.014.062-.007-.412-.285-1.763-.616-3-.772-2.881.829-2.902 4.67-.062ZM313 38.637c-4.267.552-26.176 5.354-27.138 5.948-1.179.729-15.012 3.484-22.362 4.453-8.778 1.158-63.327 3.13-67.161 2.428-3.045-.558-6.305.904-4.973 2.23 1.219 1.213 70.283.829 71.84-.4.712-.562 4.219-1.308 7.794-1.657 3.575-.35 8.75-1.278 11.5-2.062 7.282-2.076 18.189-4.647 24.5-5.777 6.3-1.127 38.982-.547 41.045.728.754.466 2.289.949 3.413 1.073 1.923.213 11.043 1.89 27.042 4.971 3.85.742 8.661 1.366 10.691 1.388 2.03.022 3.969.49 4.309 1.04.758 1.227 24.16 1.359 24.913.141.292-.472 3.059-1.156 6.15-1.519 3.104-.365 6.357-1.399 7.268-2.31 1.532-1.532 1.437-1.595-1.341-.887-5.499 1.402-17.9 2.248-26.99 1.841-10.191-.456-15.724-1.246-30-4.281-21.599-4.592-24.168-5.125-29-6.022-5.937-1.102-26.527-1.969-31.5-1.326Zm200.393.945c1.965 5.121-1.929 9.504-9.643 10.853l-3.75.656v-3.546c0-2.763.402-3.545 1.822-3.545 1.002 0 3.589-1.337 5.75-2.972 4.567-3.456 5.008-3.565 5.821-1.446ZM155 50c0 3.713-3.079 4.153-5.443.777C147.302 47.559 147.59 47 151.5 47c3.222 0 3.5.238 3.5 3Zm11-2.18c0 1.088-4.745 5.18-6.008 5.18-.545 0-.992-1.35-.992-3 0-2.762.278-3 3.5-3 1.925 0 3.5.369 3.5.82Zm346.988 5.93c-.016 3.409-5.404 7.228-11.319 8.021-3.499.47-3.918.319-3.335-1.199.366-.954.666-2.541.666-3.525 0-1.392 1.11-1.937 5-2.453 2.75-.364 5-1.064 5-1.555 0-.491.788-1.098 1.75-1.35.962-.251 1.862-.509 2-.573.138-.064.244 1.121.238 2.634Zm-5.095 11.881c-1.966 2.37-7.197 4.369-11.434 4.369-2.894 0-3.54-.345-3.273-1.75.259-1.361 1.533-1.818 5.737-2.058 2.972-.169 6.316-.946 7.43-1.727 2.514-1.761 3.406-1.085 1.54 1.166ZM158.312 96.75c.303 17.463 1.007 33.55 1.565 35.75.557 2.2 1.657 6.7 2.443 10s1.968 7.35 2.628 9c1.526 3.819 2.777 51.482 1.312 50-.543-.55-1.514-3.169-2.156-5.821-1.26-5.2-4.563-11.032-7.974-14.084-2.74-2.451-2.828-.384-.144 3.386 5.372 7.544 6.428 11.79 6.472 26.019.044 14.183-1.027 19.164-4.523 21.035-2.803 1.5-4.639.168-5.303-3.846-1.014-6.135-.73-9.214.911-9.844.848-.325 2.456-2.384 3.574-4.574 2.385-4.675 2.769-17.148.674-21.881-3.119-7.046-9.286-.724-10.693 10.962-1.46 12.126 1.505 31.001 5.243 33.38 4.437 2.823 11.133-1.159 12.159-7.231.969-5.736 2.954-6.512 2.1-.821-.995 6.634-4.512 15.883-11.151 29.32l-5.929 12-.315-4.75c-.535-8.073-2.205-5.233-2.205 3.75 0 4.675.338 8.494.75 8.488 1.097-.018 4.262-5.288 9.303-15.488 2.446-4.95 4.672-9.225 4.947-9.5.825-.825 4.983-11.055 7.316-18 2.086-6.209 2.173-7.911 1.934-38-.261-33.015-1.277-43.616-5.409-56.453-1.071-3.326-2.209-9.872-2.53-14.547-.32-4.675-.927-8.95-1.347-9.5-.42-.55-1.093-12.137-1.496-25.75-.447-15.145-1.114-24.75-1.719-24.75-.642 0-.795 11.128-.437 31.75Zm147.491-27.28c.347.346-3.707 4.77-9.007 9.83-11.547 11.023-25.529 24.472-43.811 42.14-10.997 10.627-43.418 41.77-60.965 58.56-2.011 1.925-4.639 4.357-5.839 5.405L184 187.31V67.862l60.587.489c33.323.269 60.87.773 61.216 1.119Zm17.136 1.165c.241.225-2.009 2.694-5 5.486-2.992 2.792-10.858 10.32-17.482 16.728-20.705 20.03-54.846 52.67-77.41 74.005-1.951 1.845-11.099 10.62-20.328 19.5-9.23 8.88-17.218 16.296-17.75 16.479-.548.189-.969-2.048-.969-5.146 0-5.091.266-5.709 3.75-8.712 2.063-1.778 10.062-9.362 17.776-16.854a7427.953 7427.953 0 0 1 29.683-28.621c15.196-14.558 43.835-42.147 66.291-63.859l11-10.636 5 .611c2.75.335 5.197.794 5.439 1.019ZM507 74.401c0 1.832-6.43 5.599-9.557 5.599-1.9 0-2.443-.524-2.443-2.359 0-2.349.84-2.686 11.25-4.51.413-.072.75.5.75 1.27Zm0 9.624c0 3.243-2.045 4.573-8.75 5.694-2.924.488-3.25.299-3.25-1.888 0-3.125 1.739-4.827 4.95-4.846 1.402-.009 3.225-.452 4.05-.985 2.425-1.567 3-1.179 3 2.025Zm0 11.026c0 2.536-.585 3.296-3.468 4.5-1.907.797-4.607 1.449-6 1.449-2.207 0-2.532-.431-2.532-3.359 0-3.536.009-3.541 11.25-5.51.413-.072.75 1.242.75 2.92Zm-16 26.341v28.391l-2.27.57c-1.248.313-3.255 1.487-4.458 2.608-1.204 1.122-3.486 2.039-5.072 2.039-2.523 0-3.042-.528-4.149-4.225-1.291-4.307-4.159-10.867-11.136-25.466-2.153-4.505-3.915-8.845-3.915-9.646 0-1.72 14.804-15.891 18.761-17.959a496.222 496.222 0 0 0 5.739-3.061c6.763-3.676 6.5-4.759 6.5 26.749Zm-45.227-21.149c2.47 1.234 4.954 3.259 5.52 4.5.565 1.242 1.406 2.257 1.868 2.257.461 0 .839.416.839.924 0 .509 2.193 5.571 4.874 11.25C465.159 132.488 467 136.64 467 137.5c0 .384.623 2.116 1.384 3.849 1.357 3.089 4.703 12.869 8.045 23.511.926 2.948 1.433 5.611 1.127 5.917-.678.679.093 2.021-7.056-12.277-6.066-12.131-8.178-15.733-12.309-20.984-1.947-2.476-3.122-2.956-8.122-3.317-4.91-.356-6.174-.094-7.901 1.633-4.283 4.283-3.741 14.023 1.077 19.365 1.24 1.375 5.18 5.82 8.755 9.877 3.575 4.057 7.583 8.405 8.907 9.661 1.323 1.257 2.113 2.579 1.754 2.938-2.706 2.706-47.471-40.497-51.195-49.408-1.855-4.441-1.844-6.8.062-12.393 2.213-6.496 6.645-11.303 13.646-14.801 7.653-3.824 14.082-4.082 20.599-.828ZM507 105.385c0 2.831-3.652 5.522-8.581 6.322-3.338.542-3.419.473-3.419-2.894 0-3.362.13-3.474 5.25-4.476 2.888-.565 5.587-1.097 6-1.182.413-.085.75.918.75 2.23Zm-108.066 1.769c7.753 3.657 7.974 4.029 7.344 12.351-.51 6.747-.33 7.731 2.211 12.066 1.521 2.596 4.621 6.729 6.888 9.185l7.485 8.104 3.362 3.64-4.862.264c-2.674.145-12.737-.656-22.362-1.781-21.239-2.482-19.201-2.449-32-.525-5.775.868-16.35 2.246-23.5 3.062-7.15.816-14.919 1.933-17.264 2.482-2.346.549-9.898.998-16.784.998-11.56 0-12.918-.203-17.735-2.648-3.455-1.754-7.091-2.723-10.767-2.87-3.053-.121-6.54-.535-7.75-.919-5.038-1.598-.744-9.179 7.384-13.036 6.905-3.276 31.882-2.875 36.044.58.906.752 2.589-.274 6.268-3.82 3.282-3.163 6.867-5.471 10.317-6.642 5.157-1.75 5.401-1.745 9.927.198 2.552 1.095 4.941 2.479 5.309 3.074 1.153 1.866 2.198 1.216 5.088-3.167 5.839-8.853 18.328-19.385 25.963-21.893 4.699-1.544 14.848-.867 19.434 1.297ZM507 116.049c0 2.618-.601 3.322-4.25 4.978-6.386 2.899-7.75 2.63-7.75-1.527 0-2.986.338-3.5 2.3-3.5 1.265 0 2.728-.406 3.25-.903.822-.781 3.13-1.584 5.7-1.981.413-.064.75 1.256.75 2.933Zm0 10.818c0 2.506-.645 3.135-5.133 5-2.824 1.173-5.551 2.133-6.061 2.133-.51 0-.787-1.687-.616-3.748.298-3.61.495-3.792 5.31-4.904 2.75-.636 5.337-1.199 5.75-1.252.413-.053.75 1.194.75 2.771Zm0 11.184c0 3.166-2.179 4.658-9.25 6.335-2.642.627-2.75.499-2.75-3.259 0-3.86.062-3.924 4.75-4.901 7.221-1.505 7.25-1.497 7.25 1.825Zm-49.963.482C460.35 141.532 473 168.414 473 172.457c0 .663-1.127 1.808-2.504 2.545-3.081 1.649-4.324.633-15.286-12.502-4.131-4.95-7.876-9.241-8.322-9.535-1.297-.856-3.888-7.684-3.888-10.244 0-1.289.965-3.379 2.144-4.645 1.756-1.885 2.854-2.205 6.077-1.773 2.164.29 4.781 1.294 5.816 2.23ZM507 147.465c0 2.097-3.227 3.535-7.934 3.535-6.037 0-5.261-2.401 1.184-3.663 2.888-.565 5.587-1.097 6-1.182.413-.085.75.504.75 1.31Zm-10.629 6.015c1.474 1.117 1.731 2.162 1.211 4.934-.363 1.934-1.101 3.789-1.64 4.122-1.597.987-7.873-1.539-8.985-3.616-2.603-4.864 4.644-9.052 9.414-5.44Zm20.058.091c2.131 2.132 1.988 3.103-.884 5.974-3.25 3.25-4.175 3.098-4.829-.795-.3-1.787-.857-4.037-1.238-5-.567-1.434-.144-1.75 2.344-1.75 1.669 0 3.742.707 4.607 1.571Zm-9.858 3.857c.902 3.593-.379 6.486-3.184 7.19-3.368.845-3.738.209-2.946-5.072.593-3.954.996-4.546 3.101-4.546 1.728 0 2.594.694 3.029 2.428Zm-23.61 2.761c2.277 2.444 2.509 3.403 1.039 4.311-.55.34-1 1.941-1 3.559 0 3.712-1.761 3.843-2.574.191-.795-3.571-1.466-6.326-2.073-8.5-.697-2.499 2.121-2.231 4.608.439Zm-71.984 6.999c1.112 2.303 2.023 5.223 2.023 6.489 0 3.748-4.047 17.44-6.722 22.74-3.249 6.44-11.243 14.812-16.332 17.108l-4.05 1.826-2.698-2.701c-2.497-2.499-2.697-3.315-2.682-10.925.017-8.683 1.544-14.147 6.352-22.725 6.091-10.869 11.973-16 18.341-16 3.408 0 3.926.377 5.768 4.188Zm79.659-1.694c1.575.821 3.877 1.496 5.114 1.5 1.331.003 2.25.619 2.25 1.506 0 1.152-1.278 1.5-5.5 1.5-5.444 0-5.5-.03-5.5-3 0-3.486-.089-3.449 3.636-1.506Zm27.891-.45c.743 1.203-2.09 5.956-3.55 5.956-1.092 0-1.351-5.292-.31-6.333 1.007-1.008 3.133-.8 3.86.377ZM510 169c0 2.086-1.63 2.474-5.75 1.37-4.197-1.125-2.184-2.753 4-3.234 1.129-.088 1.75.574 1.75 1.864Zm-84.424 6.483C442.369 188.991 449.923 197 445.868 197c-.623 0-2.754-1.012-4.736-2.25-6.356-3.968-7.557-4.66-11.632-6.702-2.2-1.102-5.308-2.014-6.906-2.026-3.251-.025-9.594 4.292-9.594 6.529 0 .797-.419 1.449-.93 1.449-.555 0-.517-1.313.094-3.25 2.034-6.455 3.021-13.342 2.58-18-.263-2.768-.038-4.75.539-4.75.543 0 5.175 3.368 10.293 7.483Zm88.786 1.87c14.976 6.214 23.221 14.579 31.193 31.647 2.425 5.194 3.192 23.564 1.172 28.069-.847 1.887-1.811 4.652-2.143 6.144-1.748 7.856-15.346 24.762-21.697 26.976-1.588.554-2.887 1.413-2.887 1.909s-.455.902-1.011.902c-.556 0-2.918.891-5.25 1.979-11.938 5.574-32.77 4.142-43.739-3.006-.825-.538-2.562-1.434-3.859-1.992-6.282-2.701-19.147-18.741-20.773-25.898-.323-1.421-1.213-4.511-1.978-6.868-2.073-6.391-1.744-17.239.775-25.532 2.563-8.438 4.725-12.43 10.414-19.225 4.152-4.961 15.317-13.452 17.702-13.464.671-.004 2.569-.716 4.219-1.584 4.959-2.608 10.45-3.351 21.5-2.909 8.173.326 11.799.959 16.362 2.852Zm-81.597 14.397c3.154 2.063 6.32 4.303 7.034 4.978.715.675 2.029 1.636 2.919 2.134 1.49.834 1.486 1.189-.049 4.423-.918 1.935-1.669 4.063-1.669 4.73 0 1.655-6.705.587-15.573-2.481-5.358-1.853-7.348-3.098-8.786-5.494-1.599-2.664-1.684-3.521-.612-6.109 2.856-6.895 8.419-7.62 16.736-2.181Zm-197.157-.132c4.245 2.015 13.851 11.661 15.445 15.51 1.391 3.359 3.891 3.697 6.447.872 3.309-3.657 7.965-2.376 14.134 3.888 2.274 2.31 2.547 2.347 8.286 1.129 8.82-1.872 18.017-1.022 21.864 2.02 3.423 2.707 4.905 5.674 3.525 7.054-.489.489-3.122 1.188-5.849 1.552-2.728.364-6.033 1.493-7.345 2.509-3.401 2.635-18.135 2.449-38.115-.483-1.925-.283-6.754-.996-10.732-1.585-6.105-.905-8.83-.769-17.5.87-7.955 1.505-33.523 4.046-40.705 4.046-.68 0-1.053-3.516-1.035-9.75l.028-9.75 5.941-5.886c5.489-5.438 6.208-5.842 9.452-5.316 1.931.313 5.116 1.794 7.078 3.291l3.568 2.721 1.62-2.405c2.699-4.006 10.295-10.758 12.61-11.209 4.652-.906 8.008-.632 11.283.922ZM133 210.855v19.855l-30.75.717c-16.912.395-43.125.484-58.25.198-15.125-.285-29.862-.543-32.75-.572-2.888-.029-5.25-.4-5.25-.824 0-1.424 8.439-5.177 15.302-6.807 4.241-1.007 8.571-1.385 11.5-1.004 2.584.336 6.354.596 8.377.578 2.024-.019 3.963.425 4.309.985 1.171 1.895 3.244 1.034 5.524-2.294 5.514-8.047 14.777-8.717 23.681-1.714 3.365 2.647 4.735 2.557 7.567-.498 2.432-2.623 6.553-3.462 10.443-2.126 1.878.644 2.508.158 4.27-3.297 1.137-2.228 2.509-4.052 3.047-4.052.539 0 .98-.591.98-1.313 0-2.247 5.31-6.463 9.555-7.586 2.776-.735 5.142-.756 7.5-.067 3.727 1.089 3.372 1.336 9.934-6.907 4.696-5.899 5.011-4.848 5.011 16.728Zm22.446-11.44c.739 5.913-.076 12.238-1.706 13.246-.681.42-.858-.922-.519-3.929.405-3.597.224-4.456-.853-4.043-.856.328-1.366-.171-1.362-1.332.008-2.963 2.008-9.357 2.926-9.357.461 0 1.142 2.437 1.514 5.415ZM498 201.883c0 6.548-.612 7.076-8.25 7.103-2.062.008-3.75.412-3.75.897 0 1.168 3.603 2.086 8.25 2.103 3.603.013 3.75.149 3.75 3.449 0 1.889.467 4.662 1.037 6.163 1.528 4.017 3.165 1.657 3.117-4.495-.038-4.85.091-5.103 2.582-5.103 3.191 0 9.264-2.098 9.264-3.201 0-.439-2.673-.799-5.941-.799s-6.212-.439-6.544-.976c-.332-.537-.871-3.237-1.199-6-.816-6.89-2.316-6.333-2.316.859Zm-81.331 4.481c2.469 1.834 8.219 3.775 17.581 5.935 3.563.822 4.75 1.559 4.75 2.948 0 1.678-.589 1.788-6.25 1.174-6.851-.744-11.29-1.525-23.019-4.052-8.677-1.87-8.981-2.536-4.087-8.963 1.296-1.702 2.356-3.577 2.356-4.167 0-2.613 2.651-1.583 4.324 1.68 1.01 1.969 2.965 4.42 4.345 5.445ZM482 221.935c0 1.614-.439 4.09-.976 5.501-.885 2.328-1.438 2.546-5.951 2.35-4.657-.203-7.098.522-5.875 1.745.292.292 2.771.796 5.508 1.121l4.977.589-.465 4.837c-.255 2.661-.179 5.582.171 6.492 1.059 2.761 3.427-.16 4.176-5.152l.662-4.418 4.637-.015c4.743-.016 8.148-1.306 6.856-2.598-.397-.398-3.197-.928-6.221-1.179l-5.499-.456v-5.876c0-3.251-.447-5.876-1-5.876-.55 0-1 1.321-1 2.935ZM529 223c0 2.328-.477 4-1.14 4-.628 0-3.082.97-5.455 2.155-4.229 2.112-4.32 2.263-4.61 7.682-.278 5.201-.472 5.575-3.294 6.325-3.513.935-5.501 3.295-5.501 6.529 0 1.718-.576 2.317-2.25 2.341-3.562.05-5.943 2.424-5.575 5.556.388 3.293 2.825 4.556 2.825 1.464 0-2.154.411-2.427 5.25-3.488 2.402-.526 2.75-1.075 2.75-4.343 0-4.107 1.409-5.493 6.783-6.673 3.081-.677 3.217-.911 3.217-5.532 0-4.806.022-4.838 5.5-7.929 5.922-3.342 6.117-3.739 4.299-8.766-1.618-4.474-2.799-4.187-2.799.679Zm-24 4.965c0 1.941-.69 3.334-2 4.035-1.1.589-2 1.786-2 2.66 0 1.247.673 1.455 3.125.965 1.719-.344 3.969-.625 5-.625 2.25 0 2.462-2.268.375-4-.825-.685-1.5-2.315-1.5-3.622 0-1.447-.587-2.378-1.5-2.378-.996 0-1.5.996-1.5 2.965ZM447 256c0 .55-.45 1-1 1s-1-.45-1-1 .45-1 1-1 1 .45 1 1Zm4.834 7.94c.227 1.551-.093 2.142-1 1.843-.734-.242-1.484-1.467-1.668-2.723-.227-1.551.093-2.142 1-1.843.734.242 1.484 1.467 1.668 2.723Zm-118.581 1.026c-2.336 1.072-4.963 2.531-5.838 3.242-3.434 2.788-7.217 6.698-7.604 7.858-.311.934-.909.952-2.543.077-3.075-1.645-8.936-1.406-11.819.482-2.358 1.545-2.666 1.496-6.268-1-2.084-1.444-4.525-2.625-5.426-2.625-.9 0-1.915-.45-2.255-1-.34-.55-1.491-1-2.559-1s-1.941.45-1.941 1-.987 1-2.193 1c-1.346 0-4.245 2.118-7.498 5.476-4.773 4.928-5.558 5.38-7.84 4.512-2.676-1.017-4.982-.177-9.085 3.31-1.842 1.566-2.698 1.652-6.616.665-9.346-2.353-21.526 4.879-16.568 9.837.66.66 2.81 1.2 4.777 1.2 1.968 0 4.605.72 5.861 1.599 1.52 1.065 3.517 1.43 5.973 1.093 32.19-4.416 26.97-4.109 54.689-3.218 21.792.7 41.318.091 93-2.9 25.631-1.483 45.507-3.462 45.493-4.528-.004-.3-1.661-1.671-3.683-3.046-3.471-2.361-4.429-2.501-17.243-2.514-11.563-.011-13.976-.288-16.334-1.876-3.437-2.313-10.979-2.334-14.48-.04-1.982 1.299-3.003 1.409-4.924.534-1.333-.607-3.947-1.104-5.809-1.104-2.327 0-3.574-.547-3.989-1.75-1.134-3.285-7.635-6.564-13.256-6.686-3.382-.073-5.675-.658-6.5-1.659-1.279-1.55-5.109-4.189-9.775-6.734-4.246-2.317-12.928-2.417-17.747-.205Zm-168.776-.201C160.061 267.937 156 281.414 156 292.9c0 4.94.374 9.213.831 9.495.457.283 1.4 3.06 2.096 6.171 1.471 6.572.774 12.976-2.1 19.303-3.648 8.028-4.149 20.209-.963 23.395 1.771 1.771 2.235.318 1.015-3.18-1.318-3.783-.602-10.551 1.555-14.684 4.315-8.27 5.066-11.075 5.066-18.934 0-5.699-.543-9.238-1.866-12.172-1.545-3.422-1.796-5.919-1.455-14.465.226-5.681.942-11.229 1.591-12.329.649-1.1 1.955-3.8 2.902-6 .947-2.2 1.896-4.337 2.109-4.75.492-.956-.965-.946-2.304.015Zm188.492 5.26c1.908 1.361 4.825 3.699 6.481 5.194 1.944 1.755 3.356 2.375 3.981 1.75 2.903-2.903 12.457.981 15.131 6.151 1.61 3.112 2.54 3.431 5.46 1.868 1.423-.761 2.682-.531 5.087.932l3.197 1.944 3.579-2.432c4.323-2.937 10.548-3.254 13.393-.682 1.64 1.482 3.974 1.75 15.241 1.75 11.879 0 15.782.532 14.357 1.957-.467.467-20.57 1.874-51.876 3.632-9.625.54-38.698 1.14-64.606 1.334-28.694.215-47.846.742-49 1.35-3.084 1.625-15.787 2.487-25.42 1.725-9.504-.752-10.707-1.62-6.953-5.017 1.636-1.48 3.589-1.81 10.25-1.732 7.015.083 8.556-.207 10.444-1.967 2.316-2.159 6.283-2.744 9.932-1.465 1.762.617 2.543.112 4.352-2.816 5.209-8.428 14.789-11.03 21.174-5.751 1.83 1.512 3.477 3.087 3.66 3.5.553 1.245 2.843.845 4.145-.724 1.999-2.408 7.494-2.936 11.217-1.077l3.305 1.65 3.5-4.023c3.214-3.694 8.645-7.921 12.096-9.414.772-.334 4.329-.496 7.904-.36 5.055.193 7.271.799 9.969 2.723Zm106.088.082c1.768 3.303-.49 4.878-3.051 2.129-1.104-1.184-2.006-2.621-2.006-3.194 0-1.901 3.911-1.078 5.057 1.065ZM530 272.911c0 1.109-5.787 6.089-7.077 6.089-1.752 0-.916-3.185 1.327-5.056 2.366-1.974 5.75-2.582 5.75-1.033Zm-63.582 1.696c1.574.604 2.332 6.415.832 6.371-2.018-.06-5.514-3.848-4.937-5.35.67-1.748 1.606-1.98 4.105-1.021ZM518 279.943c0 2.189-3.529 5.057-6.223 5.057-1.223 0-1.777-.77-1.777-2.471 0-1.93.713-2.678 3.25-3.41 4.644-1.341 4.75-1.323 4.75.824Zm-40.176-.293c1.927.516 2.212 1.069 1.669 3.234-.85 3.386-.666 3.3-4.331 2.023-2.366-.825-3.162-1.707-3.162-3.505 0-2.525 1.384-2.941 5.824-1.752Zm12.926 2.98c1.535.412 2.25 1.36 2.25 2.987 0 2.16-.424 2.383-4.531 2.383-4.678 0-6.289-1.42-5.107-4.5.598-1.56 3.525-1.905 7.388-.87Zm15.25 1.753c0 2.531-2.106 3.578-7.25 3.603-2.25.012-2.75-.428-2.75-2.42 0-1.887.617-2.527 2.75-2.85 6.517-.987 7.25-.818 7.25 1.667Zm22.469.367c.377 1.512 1.275 4.1 1.996 5.75 1.435 3.282 7.194 20.373 11.12 33 1.369 4.4 3.335 10.7 4.371 14 1.035 3.3 2.17 7.575 2.521 9.5.352 1.925 1.055 4.4 1.564 5.5.98 2.121 3.365 15.048 5.074 27.5 1.458 10.624.396 22.463-2.368 26.396-3.41 4.853-4.484 5.696-9.852 7.736-4.096 1.556-5.737 1.718-8.866.876-8.775-2.363-11.386-8.812-8.613-21.275 1.419-6.38 2.397-8.437 5.681-11.959 2.181-2.339 4.448-5.862 5.038-7.829 1.345-4.49.585-20.125-1.434-29.477-2.692-12.473-10.375-35.403-16.03-47.842-1.469-3.231-2.658-6.606-2.642-7.5.032-1.754 7.422-6.898 10.113-7.04.994-.052 1.911.998 2.327 2.664Zm-57.72 2.29c2.886 1.353 5.245 2.91 5.24 3.46-.005.55-1.129 3.407-2.499 6.349-1.369 2.942-2.505 5.867-2.524 6.5-.019.633-.903 2.951-1.966 5.151-1.063 2.2-1.947 4.607-1.966 5.349-.019.742-.659 2.767-1.424 4.5-4.996 11.33-9.809 33.265-9.908 45.151-.09 10.9.175 11.713 6.188 18.989 4.232 5.122 6.11 10.934 6.11 18.911 0 6.729-1.655 10.204-5.82 12.218-7.529 3.642-16.954.709-21.929-6.823-2.701-4.09-2.749-4.43-2.639-18.73.062-8.011.649-16.59 1.305-19.065.656-2.475 1.836-7.65 2.623-11.5.787-3.85 2.308-10.15 3.38-14 1.072-3.85 2.67-9.7 3.552-13 .881-3.3 2.014-6.9 2.519-8 .504-1.1 1.466-4.025 2.138-6.5.672-2.475 1.523-4.95 1.891-5.5.368-.55 1.259-3.25 1.98-6 .721-2.75 1.632-5.45 2.025-6 .393-.55 1.266-2.8 1.941-5 1.734-5.658 3.438-9.553 4.029-9.211.278.16 2.867 1.399 5.754 2.751ZM514 290.941c0 1.068.388 2.181.863 2.474.474.294 1.444 2.683 2.155 5.309.711 2.627 1.601 5.226 1.978 5.776.377.55 2.151 5.725 3.943 11.5 1.792 5.775 3.658 11.625 4.148 13 3.429 9.627 6.196 27.817 5.671 37.284-.386 6.968-.745 8.121-3.43 11-4.723 5.065-7.215 10.25-8.355 17.386-1.489 9.32-.448 14.799 3.682 19.37 3.092 3.422 8.391 5.69 11.956 5.115 1.206-.194 2.958 14.609 1.859 15.708-.348.349-1.3-.265-2.114-1.365-1.343-1.814-1.59-1.849-2.682-.379-.661.89-2.623 1.931-4.359 2.312-4.029.885-8.315 4.834-8.315 7.661 0 1.203-.788 2.828-1.75 3.611-1.273 1.035-1.41 1.564-.5 1.943 1.581.658 1.599 2.823.044 5.312-.984 1.576-.892 2.276.5 3.815.938 1.036 1.706 2.637 1.706 3.556s.675 1.671 1.5 1.671c.833 0 1.5.889 1.5 2 0 1.1-.45 2-1 2s-1 .45-1 1 1.392 1 3.094 1c2.252 0 3.235.544 3.616 2 .288 1.1.921 2 1.407 2 .485 0 .883.675.883 1.5s.597 1.5 1.326 1.5c.729 0 2.375 1.117 3.658 2.483 2.264 2.41 2.299 2.717 1.199 10.497-.623 4.407-2.041 9.893-3.151 12.19-1.11 2.298-1.909 4.264-1.775 4.369.134.106 1.929.979 3.99 1.939 12.137 5.658 18.508 20.708 12.503 29.532-3.927 5.771-7.162 7.491-14.073 7.484-9.066-.008-16.441-5.035-20.839-14.203-1.666-3.473-1.902-5.31-1.347-10.5 1.291-12.056.891-34.192-.862-47.791-.957-7.425-2.015-14.175-2.351-15-.336-.825-1.381-5.55-2.322-10.5-.94-4.95-2.328-11.187-3.083-13.859l-1.373-4.859-6.5-.093-6.5-.093-1.226 3.952c-1.602 5.16-5.03 21.214-6.289 29.452-.547 3.575-1.415 8.75-1.929 11.5-1.619 8.662-2.364 34.465-1.226 42.452 1.597 11.206.236 16.113-6.277 22.625-6.425 6.425-13.383 8.57-20.938 6.455-9.288-2.6-13.099-13.73-8.296-24.23 2.514-5.496 9.783-12.784 12.784-12.817.768-.009 2.072-.459 2.897-1 1.25-.821 1.272-1.132.135-1.865-1.533-.988-3.928-8.87-5.179-17.04-.85-5.556-1.154-20.528-1.028-50.691l.072-17.11 5.126-.608c8.257-.977 12.445-4.858 13.914-12.892.711-3.887-.072-12.249-1.658-17.698-.596-2.05-.428-2.313 1.105-1.724.994.381 5.183.979 9.308 1.327 6.501.55 7.673.396 8.807-1.154 1.102-1.507.994-2.402-.688-5.699-2.576-5.048-14.066-17.074-21.815-22.831-5.4-4.012-6.056-4.879-6.054-8 .001-1.925.421-5.075.933-7a4036.27 4036.27 0 0 0 2.894-11c2.827-10.794 4.669-16.75 7.112-23 1.182-3.025 3.095-8.557 4.25-12.293 2.079-6.721 2.133-6.785 5.106-6.132 4.411.968 22.677.654 26.16-.451 4.826-1.531 6.5-1.321 6.5.817Zm-21.579 2.989c-3.696 1.563-8.606 7.715-10.543 13.21-5.67 16.088-3.96 40.788 3.797 54.86 2.425 4.399 8.158 7.415 12.345 6.496 3.348-.736 8.977-5.017 8.986-6.835.004-.639.695-2.483 1.538-4.098 2.694-5.166 3.591-11.719 3.574-26.106-.017-14.77-.973-21.354-4.059-27.957-3.567-7.635-10.369-11.798-15.638-9.57Zm8.574 6.295c3.986 4.279 7.983 14.458 8.851 22.545 2.587 24.089-6.357 45.575-17.117 41.118-4.122-1.708-7.324-7.39-9.775-17.346-3.842-15.607.013-38.032 7.959-46.292 2.814-2.925 7.37-2.936 10.082-.025Zm-115.11 30.668 4.217 3.894-2.561 2.763c-3.046 3.287-4.389 2.536-2.834-1.584 1.294-3.429.354-4.449-3.264-3.541-1.344.337-2.449.267-2.457-.156-.007-.423-.285-1.781-.616-3.019-.97-3.619 2.678-2.821 7.515 1.643Zm19.925 1.357c.632 1.238 1.597 3.488 2.145 5 .547 1.512 1.457 2.75 2.02 2.75.564 0 1.025.393 1.025.873s-2.137 1.1-4.75 1.379c-2.613.278-5.457.803-6.322 1.166-1.078.452-1.932-.131-2.72-1.86-.967-2.123-.868-2.67.628-3.47.976-.523 2.64-2.556 3.697-4.519 2.252-4.181 2.74-4.332 4.277-1.319Zm10.068 9.654c1.6 1.013.836 2.644-1.934 4.126-1.727.924-1.944.702-1.944-1.995 0-3.078 1.276-3.78 3.878-2.131Zm24.781.65c.492 1.281-4.249 24.102-5.26 25.317-.17.205-2.273-.779-4.673-2.186-2.969-1.74-4.954-3.864-6.207-6.642-1.824-4.045-1.82-4.131.427-8.929 1.511-3.225 3.486-5.55 5.912-6.956 4.331-2.512 8.96-2.797 9.801-.604Zm27.01 20.946C479.648 373.8 487 381.556 487 383.895c0 2.161-.273 2.255-4.75 1.635-7.666-1.062-15.257-4.075-18.543-7.361-2.843-2.844-3.092-3.675-3.515-11.742-.308-5.86-.112-8.559.603-8.304.582.207 3.675 2.627 6.874 5.377Zm-247.406 27.41c1.827.694 4.803 5.749 12.565 21.342 6.216 12.486 10.172 21.62 10.172 23.487 0 2.241-.936 3.876-3.518 6.143-7.904 6.94-13.604 4.344-19.498-8.882-2.213-4.966-5.871-12.253-11.043-22-4.478-8.438-5.006-10.797-3.243-14.493 2.522-5.288 8.916-7.745 14.565-5.597Zm-63.271 48.687c-.926 10.67-.98 15.984-.201 19.75.586 2.834 1.327 6.756 1.647 8.715.32 1.959 2.133 7.294 4.028 11.855 5.036 12.123 6.92 22.518 6.176 34.083-.787 12.242-1.343 14.23-3.766 13.461-2.345-.745-2.416.886-.154 3.528 2.383 2.782 3.007 2.562 4.917-1.739 1.187-2.674 1.793-7.625 2.112-17.25.536-16.197-.767-23.632-6.219-35.5-.758-1.65-1.7-4.35-2.093-6-.393-1.65-1.173-3.581-1.734-4.291-.574-.728-1.228-9.994-1.499-21.25-.264-10.978-.81-19.959-1.214-19.959-.404 0-1.304 6.569-2 14.597Zm382.582-.159c.757 3.016.155 32.17-.681 33.004-.967.964-3.893-.525-3.893-1.982 0-.729-.9-1.611-2-1.96s-2-1.228-2-1.952c0-.725-1.125-2.055-2.5-2.956-1.375-.901-2.5-2.141-2.5-2.755 0-.614-.66-1.616-1.467-2.227-1.914-1.449-3.267-9.61-1.593-9.61.741 0 .953-.762.558-2.005-.422-1.332-.11-2.207.933-2.607.863-.331 1.569-1.396 1.569-2.366 0-1.36 1.136-1.915 4.959-2.422 2.727-.362 5.229-1.095 5.559-1.629 1.054-1.705 2.425-1.046 3.056 1.467ZM241.17 448.25c.894 1.788 4.093 8.425 7.11 14.75 3.018 6.325 10.039 20.763 15.603 32.085S274 515.969 274 516.335c0 .366-1.012.655-2.25.642-1.894-.019-3.253-2.116-8.589-13.25-3.487-7.275-11.03-22.677-16.764-34.227-5.734-11.55-10.419-21.525-10.411-22.167.012-1.013 1.338-1.997 3.037-2.254.287-.043 1.253 1.383 2.147 3.171Zm-84.542 62.5c-2.044 17.333-1.932 21.038.904 30.036 1.51 4.793 3.108 9.614 3.55 10.714.443 1.1 1.108 4.025 1.48 6.5.747 4.986 2.973 10 4.439 10 .955 0 .651-3.099-1.028-10.5-.499-2.2-1.402-6.579-2.007-9.73-.605-3.152-1.807-7.148-2.671-8.881-1.243-2.492-1.538-6.259-1.41-18.02.134-12.301-.085-14.869-1.268-14.869-.96 0-1.613 1.559-1.989 4.75Zm143.855 6.222c.349.566 1.527 1.028 2.617 1.028 2.688 0 14.478 3.817 19.4 6.281 8.962 4.486 21.589 16.102 25.24 23.219.846 1.65 1.849 3.225 2.228 3.5 2.905 2.109 9.032 20.518 9.032 27.139 0 4.86-.001 4.861-3.395 4.861-3.172 0-3.426-.246-3.868-3.75-2.358-18.708-13.607-34.58-31.237-44.077-8.574-4.618-30.453-8.593-34.762-6.315-1.231.651-3.363 1.136-4.738 1.077-4.133-.175-13.097 2.526-20 6.027-4.245 2.153-8.929 5.782-13.5 10.459-6.165 6.308-8.26 9.5-13.632 20.764-.683 1.432-2.837 12.778-2.86 15.065-.005.413-1.553.75-3.441.75-4.621 0-4.986-1.683-2.669-12.285 2.936-13.436 10.141-26.217 20.051-35.566C253.55 527.035 271.548 518 279.111 518c1.524 0 3.002-.374 3.284-.83.762-1.233 17.336-1.415 18.088-.198Zm4.967 15.093c.522.514 1.669.935 2.548.935 2.263 0 14.621 6.472 19.444 10.184 10.035 7.723 18.859 22.513 20.129 33.742l.655 5.786-4.863.643c-6.171.816-51.221.808-84.113-.014-29.044-.726-26.751.413-23.196-11.521 3.369-11.315 10.47-21.671 19.76-28.82a387.291 387.291 0 0 0 4.493-3.5c2.155-1.732 10.067-5.388 13.193-6.096 1.65-.374 3.459-1.037 4.02-1.473 2.497-1.943 25.934-1.83 27.93.134Zm41.05 55.872c146.503.824 274.797 2.103 275.486 2.748.268.25.656 11.448.864 24.885l.377 24.43H330.113C40.637 640 37 639.976 37 638.059c0-1.068.374-2.172.831-2.454.457-.283 1.407-3.122 2.111-6.309.704-3.188 1.668-6.277 2.142-6.865.473-.588 1.562-4.091 2.418-7.784 1.725-7.437 1.339-10.117-3.072-21.318-1.337-3.393-2.43-6.445-2.43-6.781 0-.336 41.063-.319 91.25.038 50.188.357 147.5.965 216.25 1.351ZM92 598.963c-7.759 1.2-12.469 2.905-16.552 5.994-4.679 3.541-8.539 3.827-12.601.934-4.028-2.868-4.857-1.554-1.337 2.119 2.381 2.486 3.653 2.99 7.542 2.99 3.038 0 5.515-.652 7.063-1.859 6.966-5.428 8.084-5.641 29.635-5.641 11.138 0 20.25-.278 20.25-.617 0-.34-2.363-1.155-5.25-1.811-13.285-3.018-19.788-3.495-28.75-2.109Zm353.253 2.074c-8.655 1.085-12.799 3.018-13.637 6.359-1.35 5.379 2.739 10.147 9.656 11.26 2.075.334 4.027 1.018 4.338 1.521.65 1.052-9.555-.033-11.11-1.181-.55-.406-3.363-1.331-6.25-2.056-2.887-.725-5.25-1.683-5.25-2.129 0-.446-.466-.811-1.035-.811-.57 0-5.255-2.025-10.412-4.5-5.157-2.475-9.866-4.5-10.464-4.5-.599 0-1.089-.45-1.089-1s1.575-1 3.5-1 3.5-.45 3.5-1c0-.583-3.333-1-8-1-4.4 0-8 .367-8 .815 0 .448 3.938 2.811 8.75 5.25 4.813 2.439 9.345 4.998 10.071 5.685.727.688 1.768 1.25 2.312 1.25.545 0 3.55 1.169 6.679 2.598 10.832 4.947 11.834 5.322 16.023 5.992 2.315.37 4.451 1.064 4.746 1.541.793 1.284 52.295 1.075 63.919-.259 5.5-.631 12.925-1.792 16.5-2.58 28.723-6.331 27.449-6.173 55.75-6.905 25.166-.651 32.198-1.425 24-2.643-3.667-.544-49.034-.033-58.25.656-5.889.441-8 .908-12 2.655-7.645 3.339-28.71 5.605-54.309 5.841-11.059.102-14.147-1.008-6.299-2.263 6.872-1.099 18.108-7.518 18.108-10.346 0-.782-1.937-.077-5.05 1.839-2.778 1.709-5.361 2.796-5.742 2.416-.38-.381.092-1.131 1.05-1.667.958-.536 1.742-2.037 1.742-3.335 0-5.599-16.147-8.711-33.747-6.503Zm25.165 4.493c2.015.842 3.393 1.967 3.063 2.5-.848 1.373-16.196 1.24-17.054-.148-.479-.776.572-.997 3.441-.723 4.334.413 4.916.025 2.932-1.959-1.782-1.782 3.066-1.572 7.618.33Zm-327.375 3.416c-1.719 2.17-3.969 4.213-5 4.54-1.646.523-10.376-.699-25.043-3.506-8.493-1.625-16.228-1.157-20.998 1.27-8.262 4.205-8.512 11.894-.474 14.575 4.539 1.514 19.081 1.655 22.851.221 3.108-1.182 5.856-6.062 4.563-8.105-1.706-2.697-.947-3.202 3.808-2.533 12.648 1.78 14.432 1.832 16.924.499 2.221-1.189 8.326-8.769 8.326-10.337 0-1.618-2.176-.136-4.957 3.376Zm306.302-2.489c.308.802 2.372 2.602 4.587 4 3.418 2.158 5.201 2.543 11.762 2.543 7.094 0 7.602.133 6.133 1.602-2.561 2.561-21.105 3.188-28.002.947-10.024-3.256-12.147-7.979-4.075-9.066 2.612-.352 5.2-.794 5.75-.983 2.14-.732 3.308-.442 3.845.957Zm-203.21 9.766-9.67 4.902-16.196-.011c-8.908-.005-17.788-.308-19.733-.673-4.24-.796-4.998 1.219-.786 2.089 1.512.313 4.537 1.102 6.722 1.753 2.185.651 9.861 1.184 17.06 1.184h13.087l10.211-5.234c9.797-5.02 10.536-5.233 18.191-5.233 4.549 0 7.979-.422 7.979-.981 0-1.308-3.178-2.007-10.848-2.385-5.909-.29-7.016.027-16.017 4.589ZM99.491 615.01c-1.586 1.753-1.648 2.328-.486 4.5 1.105 2.065 2.072 2.49 5.664 2.49 2.382 0 4.331-.45 4.331-1s-1.575-1-3.5-1c-5.056 0-4.422-2.339 1.029-3.797 3.873-1.035 4.887-.976 7 .408 3.446 2.258 3.084 4.106-1.151 5.876-7.246 3.027-21.533.949-22.176-3.225-.368-2.39 1.79-4.275 6.054-5.287 4.983-1.183 5.184-1.119 3.235 1.035Z" fill="#000"/></svg>